<?xml version="1.0" encoding="UTF-8"?>
<svg id="a" data-name="Ebene_1" xmlns="http://www.w3.org/2000/svg" width="1024" height="1024" xmlns:xlink="http://www.w3.org/1999/xlink" viewBox="0 0 1024 1024">
  <defs>
    <linearGradient id="b" data-name="Unbenannter Verlauf 11" x1="512" y1="-1027" x2="512" y2="2052.005" gradientUnits="userSpaceOnUse">
      <stop offset="0" stop-color="#68c1e8"/>
      <stop offset=".5" stop-color="#5c93e5"/>
      <stop offset="1" stop-color="#395bac"/>
    </linearGradient>
  </defs>
  <path d="M767.832,448.621l97.578-169.01c11.48-19.883-2.87-44.738-25.829-44.738H184.419c-22.96,0-37.309,24.854-25.829,44.738l97.578,169.01c5.328,9.228,15.174,14.913,25.829,14.913h0c22.96,0,37.309-24.854,25.829-44.738l-71.749-124.272h551.843l-63.139,109.359h-297.288c-16.472,0-29.825,13.353-29.825,29.825v406.319c0,22.959,24.854,37.309,44.738,25.829l169.01-97.578c9.228-5.328,14.913-15.174,14.913-25.829v-163.244c0-22.959-24.854-37.309-44.738-25.829h0c-9.228,5.328-14.913,15.174-14.913,25.829v146.025l-109.359,63.138v-324.835h284.682c10.656,0,20.502-5.685,25.829-14.913Z" fill="url(#b)"/>
</svg>