<svg xmlns="http://www.w3.org/2000/svg" xmlns:xlink="http://www.w3.org/1999/xlink" width="3000" height="340" viewBox="0 0 3000 340">
  <defs>
    <linearGradient id="a" data-name="Unbenannter Verlauf 15" x1="1500" y1="239.333" x2="1500" y2="-0.112" gradientUnits="userSpaceOnUse">
      <stop offset="0" stop-color="#fff"/>
      <stop offset="1"/>
    </linearGradient>
    <filter id="c" x="0" y="0" width="3000" height="340" filterUnits="userSpaceOnUse" color-interpolation-filters="sRGB">
      <feFlood flood-color="#fff" result="bg"/>
      <feBlend in="SourceGraphic" in2="bg"/>
    </filter>
    <mask id="b" x="0" y="0" width="3000" height="340" maskUnits="userSpaceOnUse">
      <rect width="3000" height="340" fill="url(#a)" filter="url(#c)"/>
    </mask>
  </defs>
  <rect x="-651.644" y="-1078.319" width="4303.287" height="2496.638" fill="#2f2f2f"/>
  <g mask="url(#b)">
    <g>
      <g>
        <polygon points="380.462 34.951 279.762 57.143 380.462 57.143 380.462 34.951" fill="#395bac" opacity="0"/>
        <polygon points="465.808 16.143 424.826 25.175 424.826 37.326 465.808 27.831 465.808 16.143" fill="#395bac" opacity="0"/>
        <polygon points="420.785 83.721 364.679 99.083 364.679 116.129 375 116.129 420.785 102.784 420.785 83.721" fill="#395bac" opacity="0"/>
        <polygon points="540.103 135.154 414.093 180.695 414.093 208.264 430.785 208.264 540.103 165.32 540.103 135.154" fill="#395bac" opacity="0"/>
        <polygon points="222.3 83.721 222.3 69.806 159.157 83.721 222.3 83.721" fill="#395bac" opacity="0"/>
        <polygon points="104.431 57.143 104.431 45.57 0 64.826 0 76.596 101.191 57.143 104.431 57.143" fill="#395bac" opacity="0"/>
        <polygon points="20.643 130.964 20.643 99.083 160.715 69.65 160.715 57.143 0 89.412 0 116.129 12.097 116.129 0 118.795 0 135.747 12.097 132.944 20.643 130.964" fill="#395bac" opacity="0"/>
        <polygon points="0 208.264 153.475 208.264 153.475 180.695 232.935 157.535 232.935 135.154 0 198.93 0 208.264" fill="#395bac" opacity="0"/>
        <polygon points="644.022 208.264 644.022 156.522 523.76 208.264 644.022 208.264" fill="#395bac" opacity="0"/>
        <polygon points="926.578 34.951 845.568 69.806 845.568 83.721 878.634 83.721 926.578 60.922 926.578 34.951" fill="#395bac" opacity="0"/>
        <polygon points="970.109 208.264 970.109 156.522 895.661 208.264 970.109 208.264" fill="#395bac" opacity="0"/>
        <polygon points="1015.823 45.57 883.065 116.129 983.945 116.129 983.945 99.083 1015.823 79.881 1015.823 45.57" fill="#395bac" opacity="0"/>
        <polygon points="787.975 57.143 815.476 57.143 817.355 56.405 817.355 34.951 787.975 45.57 787.975 57.143" fill="#395bac" opacity="0"/>
        <polygon points="739.511 34.951 739.511 25.175 708.131 34.951 739.511 34.951" fill="#395bac" opacity="0"/>
        <polygon points="693.686 171.671 725.544 156.522 737.903 156.522 737.903 116.129 693.686 135.154 693.686 171.671" fill="#395bac" opacity="0"/>
        <polygon points="720.914 69.806 682.413 83.721 720.914 83.721 720.914 69.806" fill="#395bac" opacity="0"/>
        <polygon points="1172.085 16.143 1159.091 25.175 1159.091 34.951 1172.085 34.951 1172.085 16.143" fill="#395bac" opacity="0"/>
        <polygon points="2720.238 57.143 2720.238 83.721 2840.843 83.721 2720.238 57.143" fill="#395bac" opacity="0"/>
        <polygon points="2482.143 83.721 2579.215 83.721 2482.143 57.143 2482.143 83.721" fill="#395bac" opacity="0"/>
        <polygon points="446.203 57.143 458.334 57.143 529.721 38.714 529.721 25.175 446.203 45.57 446.203 57.143" fill="#395bac" opacity="0"/>
        <polygon points="2667.722 45.57 2619.539 34.951 2619.539 47.604 2667.722 58.766 2667.722 45.57" fill="#395bac" opacity="0"/>
        <polygon points="2994.755 34.951 3000 34.951 3000 26.006 2994.755 25.175 2994.755 34.951" fill="#395bac" opacity="0"/>
        <polygon points="3000 17.946 3000 10.415 2982.182 7.775 2982.182 16.144 2988.229 16.144 3000 17.946" fill="#395bac" opacity="0"/>
        <polygon points="3000 43.951 2947.209 34.951 2947.209 44.627 3000 53.951 3000 43.951" fill="#395bac" opacity="0"/>
        <polygon points="2496.835 57.143 2601.19 57.143 2470.28 25.175 2470.28 38.714 2496.835 45.57 2496.835 57.143" fill="#395bac" opacity="0"/>
        <polygon points="517.857 57.143 598.908 57.143 598.908 34.951 517.857 57.143" fill="#395bac" opacity="0"/>
        <polygon points="571.101 116.129 571.101 99.083 636.905 77.062 636.905 57.143 447.581 116.129 571.101 116.129" fill="#395bac" opacity="0"/>
        <polygon points="2325.949 45.57 2325.949 57.143 2363.095 57.143 2325.949 45.57" fill="#395bac" opacity="0"/>
        <polygon points="600.972 7.775 566.704 16.143 600.972 16.143 600.972 7.775" fill="#395bac" opacity="0"/>
        <polygon points="1000.853 208.264 1022.201 208.264 1022.201 180.695 1028.226 175.746 1028.226 116.129 1000.853 135.154 1000.853 208.264" fill="#395bac" opacity="0"/>
        <polygon points="2279.086 69.806 2279.086 83.721 2317.587 83.721 2279.086 69.806" fill="#395bac" opacity="0"/>
        <polygon points="2029.778 69.806 2005.952 57.143 2005.952 83.721 2029.778 83.721 2029.778 69.806" fill="#395bac" opacity="0"/>
        <polygon points="2155.594 57.143 2212.025 57.143 2212.025 45.57 2155.594 25.175 2155.594 57.143" fill="#395bac" opacity="0"/>
        <polygon points="1870.253 83.721 1870.253 45.57 1840.909 25.175 1840.909 68.255 1842.798 69.806 1842.798 83.721 1870.253 83.721" fill="#395bac" opacity="0"/>
        <polygon points="2084.862 140.529 2111.413 156.522 2192.935 156.522 2084.862 99.083 2084.862 140.529" fill="#395bac" opacity="0"/>
        <polygon points="2029.778 34.951 2073.422 34.951 2029.708 16.144 2029.778 34.951" fill="#395bac" opacity="0"/>
        <polygon points="2204.644 24.038 2237.257 34.951 2260.489 34.951 2260.489 25.175 2204.644 7.775 2204.644 24.038" fill="#395bac" opacity="0"/>
        <polygon points="1886.905 83.721 1925.145 83.721 1886.905 57.143 1886.905 83.721" fill="#395bac" opacity="0"/>
        <polygon points="1845.563 208.264 1890.927 208.264 1890.927 180.695 1845.563 135.154 1845.563 208.264" fill="#395bac" opacity="0"/>
        <polygon points="1913.067 34.951 1945.804 34.951 1945.804 25.175 1913.067 7.775 1913.067 34.951" fill="#395bac" opacity="0"/>
        <polygon points="2262.097 150.644 2325.289 180.695 2325.289 208.264 2476.239 208.265 2262.097 116.129 2262.097 150.644" fill="#395bac" opacity="0"/>
        <polygon points="1971.774 175.746 1977.799 180.695 1977.799 208.264 2064.672 208.264 2064.672 180.695 1971.774 116.129 1971.774 175.746" fill="#395bac" opacity="0"/>
        <polygon points="2895.57 57.143 2958.333 57.143 2895.57 45.57 2895.57 57.143" fill="#395bac" opacity="0"/>
        <polygon points="2360.092 126.113 2569.215 208.265 2585.907 208.265 2585.907 180.695 2360.092 99.083 2360.092 126.113" fill="#395bac" opacity="0"/>
        <polygon points="2839.286 69.65 2902.355 82.902 2902.355 69.806 2839.286 57.143 2839.286 69.65" fill="#395bac" opacity="0"/>
        <polygon points="3000 156.522 3000 118.795 2987.903 116.129 2987.903 132.944 2997.44 135.154 2997.44 156.522 3000 156.522" fill="#395bac" opacity="0"/>
        <polygon points="2448.401 105.609 2672.78 180.695 2672.78 208.265 2759.652 208.265 2759.652 180.695 2448.401 83.721 2448.401 105.609" fill="#395bac" opacity="0"/>
        <polygon points="2697.581 137.284 2763.587 156.522 2767.065 156.522 2767.065 135.154 2697.581 116.129 2697.581 137.284" fill="#395bac" opacity="0"/>
        <polygon points="2710.029 116.129 2842.742 116.129 2710.029 83.721 2710.029 116.129" fill="#395bac" opacity="0"/>
        <polygon points="1703.804 208.264 1732.438 208.264 1703.804 156.522 1703.804 208.264" fill="#395bac" opacity="0"/>
        <polygon points="1450 340 1453.512 308.264 1453.512 208.264 1450 240 1450 340" fill="#395bac" opacity="0"/>
        <polygon points="1467.296 156.522 1467.296 83.721 1459.239 156.522 1467.296 156.522" fill="#395bac" opacity="0"/>
        <polygon points="1363.471 57.143 1363.471 34.951 1351.19 57.143 1363.471 57.143" fill="#395bac" opacity="0"/>
        <polygon points="1281.318 7.775 1254.248 34.951 1281.318 34.951 1281.318 7.775" fill="#395bac" opacity="0"/>
        <polygon points="1318.548 208.264 1318.548 116.129 1267.562 208.264 1318.548 208.264" fill="#395bac" opacity="0"/>
        <polygon points="1109.073 208.264 1174.587 208.264 1219.529 150.255 1219.529 69.806 1109.073 180.695 1109.073 208.264" fill="#395bac" opacity="0"/>
        <polygon points="1473.776 34.951 1476.562 34.951 1476.562 0 1473.776 25.175 1473.776 34.951" fill="#395bac" opacity="0"/>
        <polygon points="1532.704 156.522 1540.761 156.522 1532.704 83.721 1532.704 156.522" fill="#395bac" opacity="0"/>
        <polygon points="1523.437 34.951 1527.306 34.951 1523.437 0 1523.437 34.951" fill="#395bac" opacity="0"/>
        <polygon points="1113.095 57.143 1074.855 83.721 1113.095 83.721 1113.095 57.143" fill="#395bac" opacity="0"/>
        <polygon points="1727.018 57.143 1767.857 57.143 1727.018 16.143 1727.018 57.143" fill="#395bac" opacity="0"/>
        <polygon points="1655.817 116.129 1672.018 116.129 1672.018 99.083 1655.817 69.806 1655.817 116.129" fill="#395bac" opacity="0"/>
        <polygon points="1794.331 116.129 1826.613 116.129 1794.331 83.721 1794.331 116.129" fill="#395bac" opacity="0"/>
        <polygon points="1621.49 34.951 1631.119 34.951 1631.119 25.175 1621.49 7.775 1621.49 34.951" fill="#395bac" opacity="0"/>
        <polygon points="1546.488 308.264 1550 340 1550 240 1546.488 208.264 1546.488 308.264" fill="#395bac" opacity="0"/>
      </g>
      <g opacity="0.15">
        <polygon points="2448.401 83.721 2466.066 83.721 2482.143 83.721 2482.143 57.143 2496.835 57.143 2496.835 45.57 2382.911 45.57 2466.066 69.806 2341.413 69.806 2448.401 105.609 2448.401 83.721" fill="#395bac"/>
        <polygon points="2470.28 38.714 2470.28 25.175 2260.489 25.175 2260.489 34.951 2455.704 34.951 2470.28 38.714" fill="#395bac"/>
        <rect x="2212.025" y="45.57" width="113.924" height="11.573" fill="#395bac"/>
        <polygon points="2360.092 126.113 2360.092 99.083 2153.67 99.083 2262.097 150.644 2262.097 116.129 2334.677 116.129 2360.092 126.113" fill="#395bac"/>
        <rect x="2064.672" y="180.695" width="260.618" height="27.569" fill="#395bac"/>
        <polygon points="2029.778 34.951 2029.708 16.144 2181.054 16.144 2204.644 24.038 2204.644 7.775 1961.663 7.775 1998.252 25.175 1945.804 25.175 1945.804 34.951 1998.252 34.951 2029.778 34.951" fill="#395bac"/>
        <rect x="2029.778" y="69.806" width="249.308" height="13.915" fill="#395bac"/>
        <polygon points="1672.018 116.129 1740.826 116.129 1794.331 116.129 1794.331 83.721 1842.798 83.721 1842.798 69.806 1718.144 69.806 1740.826 99.083 1672.018 99.083 1672.018 116.129" fill="#395bac"/>
        <polygon points="1363.471 34.951 1363.471 57.143 1414.557 57.143 1699.367 57.143 1727.018 57.143 1727.018 16.143 1878.363 16.143 1909.587 34.951 1913.067 34.951 1913.067 7.775 1670.086 7.775 1683.566 25.175 1631.119 25.175 1631.119 34.951 1683.566 34.951 1691.141 34.951 1699.367 45.57 1414.557 45.57 1418.083 34.951 1473.776 34.951 1473.776 25.175 1316.434 25.175 1323.431 16.143 1424.327 16.143 1427.106 7.775 1281.318 7.775 1281.318 34.951 1316.434 34.951 1363.471 34.951" fill="#395bac"/>
        <polygon points="1621.49 34.951 1621.49 7.775 1572.894 7.775 1581.917 34.951 1621.49 34.951" fill="#395bac"/>
        <polygon points="2982.182 16.144 2982.182 7.775 2253.24 7.775 2281.951 16.144 2982.182 16.144" fill="#395bac"/>
        <polygon points="2987.903 132.944 2987.903 116.129 3000 116.129 3000 99.083 2841.743 99.083 2987.903 132.944" fill="#395bac"/>
        <polygon points="1788.461 25.175 1840.909 68.255 1840.909 25.175 1788.461 25.175" fill="#395bac"/>
        <rect x="2767.065" y="135.154" width="230.375" height="21.368" fill="#395bac"/>
        <polygon points="2902.355 82.902 2906.25 83.721 3000 83.721 3000 69.806 2902.355 69.806 2902.355 82.902" fill="#395bac"/>
        <rect x="2585.907" y="180.695" width="86.873" height="27.57" fill="#395bac"/>
        <rect x="2759.652" y="180.695" width="240.348" height="27.57" fill="#395bac"/>
        <polygon points="2084.862 140.529 2084.862 99.083 1878.44 99.083 1971.774 175.746 1971.774 116.129 2044.355 116.129 2084.862 140.529" fill="#395bac"/>
        <polygon points="2619.539 47.604 2619.539 34.951 2892.597 34.951 2947.209 44.627 2947.209 34.951 2994.755 34.951 2994.755 25.175 2522.727 25.175 2619.539 47.604" fill="#395bac"/>
        <rect x="1890.927" y="180.695" width="86.873" height="27.569" fill="#395bac"/>
        <polygon points="2697.581 116.129 2704.128 116.129 2710.029 116.129 2710.029 83.721 2715.374 83.721 2720.238 83.721 2720.238 57.143 2779.762 57.143 2839.286 69.65 2839.286 57.143 2895.57 57.143 2895.57 45.57 2667.722 45.57 2667.722 58.766 2715.374 69.806 2590.72 69.806 2704.128 99.083 2566.514 99.083 2697.581 137.284 2697.581 116.129" fill="#395bac"/>
        <polygon points="1870.253 83.721 1886.905 83.721 1886.905 57.143 1946.428 57.143 1990.552 83.721 2005.952 83.721 2005.952 57.143 2155.594 57.143 2155.594 25.175 2103.147 25.175 2155.063 45.57 1870.253 45.57 1870.253 83.721" fill="#395bac"/>
        <polygon points="380.462 57.143 389.241 57.143 446.203 57.143 446.203 45.57 389.241 45.57 424.826 37.326 424.826 25.175 0 25.175 0 34.951 380.462 34.951 380.462 57.143" fill="#395bac"/>
        <polygon points="465.808 27.831 552.376 7.775 0 7.775 0 16.143 465.808 16.143 465.808 27.831" fill="#395bac"/>
        <polygon points="1172.619 57.143 1291.667 57.143 1300.633 45.57 1015.823 45.57 1015.823 79.881 1053.572 57.143 1113.095 57.143 1113.095 83.721 1140.262 83.721 1172.619 57.143" fill="#395bac"/>
        <polygon points="1172.085 34.951 1199.636 34.951 1232.721 7.775 600.972 7.775 600.972 16.143 1172.085 16.143 1172.085 34.951" fill="#395bac"/>
        <polygon points="0 45.57 0 54.052 47.469 45.57 0 45.57" fill="#395bac"/>
        <rect y="240" width="1450" height="100" fill="#395bac"/>
        <polygon points="229.839 116.129 364.679 116.129 364.679 99.083 227.064 99.083 0 154.531 0 175.462 227.064 116.845 229.839 116.129" fill="#395bac"/>
        <polygon points="1703.804 208.264 1703.804 156.522 1785.326 156.522 1825.413 208.264 1845.563 208.264 1845.563 135.154 1615.188 135.154 1630.309 180.695 1369.691 180.695 1396.789 99.083 1259.174 99.083 1271.076 83.721 1467.296 83.721 1467.296 156.522 1532.704 156.522 1532.704 83.721 1598.11 83.721 1608.871 116.129 1655.817 116.129 1655.817 69.806 1219.529 69.806 1219.529 150.255 1245.968 116.129 1259.174 116.129 1318.548 116.129 1318.548 208.264 1369.691 208.264 1453.512 208.264 1453.512 280.695 1546.488 280.695 1546.488 208.264 1630.309 208.264 1703.804 208.264" fill="#395bac"/>
        <rect x="1550" y="240" width="1450" height="100" fill="#395bac"/>
        <rect x="720.914" y="69.806" width="124.654" height="13.915" fill="#395bac"/>
        <polygon points="222.3 69.806 222.3 83.721 420.785 83.721 420.785 102.784 533.934 69.806 222.3 69.806" fill="#395bac"/>
        <polygon points="232.935 135.154 232.935 157.535 236.413 156.522 399.457 156.522 463.311 135.154 232.935 135.154" fill="#395bac"/>
        <polygon points="674.71 208.264 802.686 208.264 848.456 180.695 674.71 180.695 693.686 171.671 693.686 135.154 540.103 135.154 540.103 165.32 562.5 156.522 644.022 156.522 644.022 208.264 674.71 208.264" fill="#395bac"/>
        <rect x="153.475" y="180.695" width="260.618" height="27.569" fill="#395bac"/>
        <polygon points="1000.853 208.264 1000.853 135.154 770.478 135.154 846.33 99.083 571.101 99.083 571.101 116.129 737.903 116.129 737.903 156.522 770.478 156.522 970.109 156.522 970.109 208.264 1000.853 208.264" fill="#395bac"/>
        <polygon points="981.189 34.951 1159.091 34.951 1159.091 25.175 739.511 25.175 739.511 34.951 817.355 34.951 817.355 56.405 871.966 34.951 926.578 34.951 926.578 60.922 981.189 34.951" fill="#395bac"/>
        <rect x="1022.201" y="180.695" width="86.873" height="27.569" fill="#395bac"/>
        <polygon points="598.908 34.951 598.908 57.143 617.089 57.143 636.905 57.143 636.905 77.062 696.429 57.143 787.975 57.143 787.975 45.57 617.089 45.57 687.063 25.175 529.721 25.175 529.721 38.714 544.296 34.951 598.908 34.951" fill="#395bac"/>
        <polygon points="20.643 130.964 158.257 99.083 20.643 99.083 20.643 130.964" fill="#395bac"/>
        <polygon points="983.945 99.083 983.945 116.129 1028.226 116.129 1028.226 175.746 1121.56 99.083 983.945 99.083" fill="#395bac"/>
        <polygon points="275.317 45.57 104.431 45.57 104.431 57.143 160.715 57.143 160.715 69.65 275.317 45.57" fill="#395bac"/>
      </g>
      <g opacity="0.33">
        <polygon points="552.375 7.775 389.24 45.57 446.202 45.57 529.72 25.175 687.062 25.175 617.088 45.57 787.974 45.57 817.354 34.951 708.131 34.951 739.51 25.175 1159.091 25.175 1172.085 16.144 566.704 16.144 600.971 7.775 1232.721 7.775 1199.636 34.951 981.189 34.951 878.633 83.721 682.412 83.721 720.914 69.806 845.567 69.806 926.577 34.951 871.966 34.951 815.476 57.143 696.428 57.143 571.101 99.083 846.33 99.083 770.478 135.154 1000.853 135.154 1028.226 116.129 883.064 116.129 1015.823 45.57 1300.633 45.57 1291.666 57.143 1172.619 57.143 1140.261 83.721 1074.854 83.721 1113.095 57.143 1053.571 57.143 983.945 99.083 1121.559 99.083 1022.2 180.695 1109.073 180.695 1219.529 69.806 1655.817 69.806 1672.018 99.083 1740.825 99.083 1718.144 69.806 1842.798 69.806 1788.461 25.175 1840.909 25.175 1870.253 45.57 2155.063 45.57 2103.147 25.175 2155.594 25.175 2212.025 45.57 2325.949 45.57 2363.095 57.143 2005.952 57.143 2029.778 69.806 2279.086 69.806 2317.587 83.721 1990.552 83.721 1946.428 57.143 1886.905 57.143 1925.145 83.721 1794.331 83.721 1826.613 116.129 1608.871 116.129 1598.11 83.721 1532.703 83.721 1540.761 156.522 1459.239 156.522 1467.296 83.721 1271.075 83.721 1259.174 99.083 1396.789 99.083 1369.691 180.695 1630.309 180.695 1615.187 135.154 1845.563 135.154 1890.927 180.695 1977.799 180.695 1878.44 99.083 2084.862 99.083 2192.935 156.522 2111.413 156.522 2044.355 116.129 1971.774 116.129 2064.672 180.695 2325.289 180.695 2153.67 99.083 2360.092 99.083 2585.907 180.695 2672.78 180.695 2341.413 69.806 2466.066 69.806 2382.911 45.57 2496.835 45.57 2455.704 34.951 2237.257 34.951 2181.054 16.144 2029.708 16.144 2073.422 34.951 1909.587 34.951 1878.363 16.144 1727.018 16.144 1767.857 57.143 1351.19 57.143 1363.471 34.951 1254.247 34.951 1281.317 7.775 1427.105 7.775 1424.327 16.144 1323.43 16.144 1316.433 25.175 1473.776 25.175 1476.562 0 0 0 0 7.775 552.375 7.775" fill="#395bac"/>
        <polygon points="3000 116.129 2987.903 116.129 3000 118.795 3000 116.129" fill="#395bac"/>
        <polygon points="1418.082 34.951 1414.557 45.57 1699.367 45.57 1691.141 34.951 1581.917 34.951 1572.894 7.775 1621.49 7.775 1631.119 25.175 1683.566 25.175 1670.086 7.775 1913.067 7.775 1945.804 25.175 1998.252 25.175 1961.663 7.775 2204.644 7.775 2260.489 25.175 2470.28 25.175 2601.19 57.143 2482.143 57.143 2579.215 83.721 2448.401 83.721 2759.652 180.695 3000 180.695 3000 156.522 2763.587 156.522 2566.514 99.083 2704.128 99.083 2590.72 69.806 2715.374 69.806 2522.727 25.175 2994.755 25.175 3000 26.006 3000 17.946 2988.229 16.144 2281.951 16.144 2253.24 7.775 2982.182 7.775 3000 10.415 3000 0 1523.437 0 1527.306 34.951 1418.082 34.951" fill="#395bac"/>
        <polygon points="3000 43.951 3000 34.951 2947.209 34.951 3000 43.951" fill="#395bac"/>
        <polygon points="2767.065 135.154 2997.44 135.154 2841.743 99.083 3000 99.083 3000 83.721 2906.25 83.721 2779.762 57.143 2720.238 57.143 2840.843 83.721 2710.029 83.721 2842.742 116.129 2697.581 116.129 2767.065 135.154" fill="#395bac"/>
        <polygon points="2619.539 34.951 2667.722 45.57 2895.57 45.57 2958.333 57.143 2839.286 57.143 2902.355 69.806 3000 69.806 3000 53.979 2892.597 34.951 2619.539 34.951" fill="#395bac"/>
        <polygon points="101.19 57.143 0 76.596 0 89.412 160.714 57.143 101.19 57.143" fill="#395bac"/>
        <polygon points="3000 208.265 2569.215 208.265 2334.677 116.129 2262.097 116.129 2476.239 208.265 1825.413 208.265 1785.326 156.522 1703.804 156.522 1732.438 208.265 1546.487 208.265 1550 240 3000 240 3000 208.265" fill="#395bac"/>
        <polygon points="1318.548 116.129 1245.968 116.129 1174.586 208.265 895.661 208.265 970.108 156.522 725.543 156.522 674.71 180.695 848.455 180.695 802.686 208.265 523.76 208.265 644.021 156.522 562.5 156.522 430.785 208.265 0 208.265 0 240 1450 240 1453.512 208.265 1267.562 208.265 1318.548 116.129" fill="#395bac"/>
        <polygon points="0 116.129 0 118.795 12.096 116.129 0 116.129" fill="#395bac"/>
        <polygon points="463.31 135.154 399.456 156.522 236.413 156.522 153.475 180.695 414.092 180.695 540.102 135.154 693.686 135.154 737.903 116.129 447.58 116.129 636.904 57.143 517.857 57.143 598.907 34.951 544.296 34.951 458.333 57.143 279.761 57.143 380.461 34.951 0 34.951 0 45.57 47.468 45.57 0 53.979 0 64.826 104.43 45.57 275.316 45.57 20.642 99.083 158.256 99.083 0 135.747 0 154.531 227.064 99.083 364.678 99.083 420.784 83.721 159.156 83.721 222.299 69.806 533.933 69.806 375 116.129 229.838 116.129 0 175.462 0 198.93 232.935 135.154 463.31 135.154" fill="#395bac"/>
        <polygon points="465.807 16.144 0 16.144 0 25.175 424.825 25.175 465.807 16.144" fill="#395bac"/>
      </g>
      <g opacity="0.04">
        <polygon points="1450 340 1450 240.344 1452.853 214.216 1443.75 215.625 1421.286 213.628 1409.41 218.171 1382.41 221.171 1356.91 219.671 1343.41 226.171 1326.41 232.671 1292.41 228.671 1278.91 235.171 1278.91 240.344 1287.41 253.171 1278.91 269.671 1253.41 286.671 1255.91 299.171 1252.251 315.269 1240.565 340 1450 340" fill="#000933"/>
        <polygon points="1915.813 322.817 1921.043 296.817 1894.603 275.817 1889.603 260.817 1900.334 246.817 1900.334 239.99 1888.603 228.817 1850.65 232.817 1837.813 223.817 1797.603 218.817 1771.603 223.817 1760.603 231.817 1748.603 232.817 1736.603 239.99 1745.203 257.817 1717.958 270.817 1703.603 288.817 1666.278 301.817 1653.441 322.817 1661.3 340 1921.43 340 1915.813 322.817" fill="#000933"/>
        <polygon points="1630.309 180.695 1630.309 208.264 1551.972 208.265 1549.531 205.24 1536.069 192.889 1536.069 189.132 1527.303 180.695 1532.722 173.478 1543.896 168.241 1554.541 168.241 1559.55 160.955 1571.447 158.45 1581.778 159.702 1597.192 154.076 1609.985 158.043 1622.249 156.421 1630.309 180.695" fill="#000933"/>
        <polygon points="1374.746 165.47 1357.331 168 1345.333 173.333 1336.39 172 1328.333 170 1322.333 172 1318.548 173.333 1318.548 208.264 1369.691 208.265 1369.691 180.695 1374.746 165.47" fill="#000933"/>
        <polygon points="1811.512 135.154 1806.5 131.5 1798.077 131.207 1775 123 1770.663 123 1750.5 126.75 1724 129.25 1719.454 135.154 1708.5 140.25 1693.25 148 1687.375 160.875 1689.625 171 1698.803 183.245 1703.804 184.75 1703.804 156.522 1785.326 156.522 1800.683 176.343 1806.234 167.415 1806.234 154.447 1809.511 148.258 1808.331 141.966 1811.512 135.154" fill="#000933"/>
        <path d="M2268.987,175.746l-31.487-4.037-12.5,6.356-8.75-4.565-8.972,2.247h-6.528l-2-4.037-5-1.709-12.25,3.5-18.25,3.5-26.5-1.514L2115.5,177l-16.92-1.514-9.527-11.4-13.406-7.568h-37.884l-1.791,8.944-2.293,10.019-6.88,9.016,3.44,12.155,5.5,11.609h254.924L2289,202.333l-9.914-7.854-7.29-7.293-.171-6.492Z" fill="#000933"/>
        <polygon points="1259.174 99.083 1259.174 116.129 1280.125 116.129 1279.125 112.75 1280.125 108.75 1279.375 101.875 1281.25 99.083 1279.625 95.625 1281.25 93.125 1283.875 90.348 1282.125 87.75 1283.875 85.375 1286.875 83.721 1271.075 83.721 1259.174 99.083" fill="#000933"/>
        <polygon points="2005.952 57.143 2031.494 57.143 2032.662 60.184 2037.336 61.572 2039.016 64 2045.548 66.667 2047.048 68.333 2052.048 69.806 2049.882 72.333 2050.048 75.833 2052.048 78 2052.048 81.167 2053.215 83.721 2005.952 83.721 2005.952 57.143" fill="#000933"/>
        <polygon points="2378.308 164.982 2368.736 156.483 2362.986 146.983 2350.236 139.733 2330.986 137.233 2322.986 131.733 2314.736 123.983 2302.236 122.483 2289.986 123.733 2286 125.266 2288.736 129.983 2288.986 137.233 2287.986 141.656 2290.736 147.733 2292.323 153.733 2290.986 157.983 2291.133 164.449 2300.025 168.678 2325.289 180.695 2325.289 208.264 2366.75 208.265 2368.375 204.375 2368.236 196.247 2367.486 186.733 2368.736 175.233 2374.236 170.376 2374.486 166.047 2378.308 164.982" fill="#000933"/>
        <polygon points="2672.78 180.695 2554.36 141.067 2550.023 141.769 2541.023 142.822 2532.023 141.769 2518.773 141.769 2510.037 142.572 2500.523 144.822 2487.95 145.275 2489.773 150.418 2487.95 157.636 2487.95 168.572 2489.523 174.052 2487.42 176.132 2569.215 208.265 2672.78 208.265 2672.78 180.695" fill="#000933"/>
        <polygon points="2381.336 106.761 2380.649 101.057 2367.078 91.113 2355.9 90.348 2350.073 93.253 2345.792 95.631 2344.522 99.083 2341.413 103.5 2344.522 110.5 2350.5 113.75 2353.75 117.75 2357.25 120.5 2358.504 125.489 2363.095 127.293 2363.095 122.483 2365.385 116.129 2371.25 112.5 2374.75 107.75 2378.308 108.75 2381.336 106.761" fill="#000933"/>
        <polygon points="2119 69.806 2137.5 67.75 2158.25 68.75 2171.5 66.75 2191 67 2208.75 67 2229.75 68.25 2244.75 68.278 2245.75 69.806 2245.75 73.25 2242.25 76.764 2241.5 79.75 2242.25 83.721 2129.5 83.721 2128.25 76.764 2124.25 73.25 2119 72 2119 69.806" fill="#000933"/>
        <polygon points="2697.581 116.129 2758.741 116.013 2761.333 120.333 2772.167 122.167 2781.667 127.667 2793.667 128.333 2799.5 130.5 2810.667 132.944 2813.5 135.154 2811.167 139.167 2812.167 143.667 2811 151.5 2812.5 156.522 2763.587 156.522 2697.581 137.284 2697.581 116.129" fill="#000933"/>
        <polygon points="2499.667 83.721 2492.667 87.333 2489.5 91.427 2491.167 94.167 2493.413 97.745 2489.5 101.833 2489.5 107 2490.333 113 2486.592 118.389 2448.401 105.609 2448.401 83.721 2499.667 83.721" fill="#000933"/>
        <polygon points="2897.631 240 2902.355 245.538 2928.956 249.223 2947.209 265.807 2958.333 280.087 2963.966 284.233 2971.336 295.75 2968.112 311.412 2958.333 322.007 2951.177 329.378 2947.209 335.366 2934.484 340 3000 340 3000 240 3000 222.044 2987.903 226.651 2960.281 232.639 2935.866 232.179 2920.872 234.482 2897.631 240" fill="#000933"/>
        <polygon points="2919.5 83.721 2917 80.5 2915.75 75.5 2917.625 72.75 2919.5 70.023 2914.5 67 2907.5 65.25 2900.75 64 2893.75 64.75 2886.25 62.5 2881.25 63.25 2875.25 62.75 2869.508 63.211 2872.5 66.25 2873.5 69.806 2874.75 72 2874 74.75 2877.75 76.764 2878.587 77.908 2906.25 83.721 2919.5 83.721" fill="#000933"/>
        <polygon points="2715.374 69.806 2715.374 73.111 2707.636 76.764 2700.662 83.721 2691.879 83.721 2687.487 89.147 2681.912 93.347 2590.72 69.806 2715.374 69.806" fill="#000933"/>
        <polygon points="2582 336.75 2566 336.75 2564.25 331.5 2545.5 329 2538.5 323.25 2532.5 316.5 2521.333 317 2515 312 2511.667 300.667 2502 288.333 2499.667 282.667 2496.246 279.32 2495.715 269.709 2490.5 269.5 2463.5 265.5 2432.771 271.01 2417 265.5 2396.5 272.5 2381.336 290 2385.667 313.667 2391.333 321 2381.25 330 2372.75 333.5 2364.25 333.5 2354.125 336.75 2339.75 333.5 2331.25 333.5 2321.875 336.75 2306.667 335.667 2297 332.333 2286.667 328 2271 328.333 2254.442 321.635 2243.418 311.381 2228.612 306.37 2207.278 310.036 2192.935 318.44 2181 331.667 2171.333 340 2520 340 2531.333 340 2584.5 340 2582 336.75" fill="#000933"/>
        <polygon points="949.301 135.154 953.25 132.25 974.75 130.5 982 127.25 986 121.25 990.25 119 990.25 116.129 1028.226 116.129 1028.226 175.746 1022.2 180.695 1022.201 208.264 1000.853 208.264 977.75 208.265 980.5 197.5 980.75 182.393 980 175.746 983.945 168.5 983.945 162.197 980.604 156.522 980.083 150.122 973.5 146.25 966.25 141.5 953 139.035 949.301 135.154" fill="#000933"/>
        <polygon points="720.914 123.438 701.664 120.335 693.686 123.438 682.413 123.438 672.103 128.627 673.639 135.154 677.631 143.9 672.103 149.818 677.938 158.417 685.923 162.197 693.686 168.552 699.436 163.638 703.429 153.674 711.107 151.353 714.178 142.447 718.826 137.414 719.092 129.855 720.914 123.438" fill="#000933"/>
        <polygon points="345.579 156.522 335.363 161.667 338.913 168.333 335.363 175.462 340.471 180.695 343.246 186.667 335.363 194.48 331.342 202 331.342 208.264 205.054 208.264 206.636 203.13 205.054 195.548 206.636 190.404 205.054 180.695 224.436 176.999 235.885 171.709 246.978 170 259.508 164.824 273.783 162.517 287.993 156.522 345.579 156.522" fill="#000933"/>
        <polygon points="353.269 332.333 331.935 336.167 313.269 333 295.269 335 266.602 331.667 253.935 325 243.269 313 236.602 306.333 232.935 305.385 207.667 301 197 309 179 312.333 163.667 305.385 138.333 312.333 107.667 312.333 89.45 299 74.333 296.333 55.667 285.667 47.469 273 23.734 270.333 12.096 258.333 0 255.667 0 340 232.935 340 393.65 340 353.269 332.333" fill="#000933"/>
        <polygon points="1051.901 45.57 1046.83 41.026 1036.035 41.026 1027.202 38.409 1016.897 38.409 1005.284 38.409 997.269 41.989 992.852 48.877 990.235 53.457 989.074 59.786 995.363 60.922 1000.853 64.645 1003.321 68.505 1008.719 70.432 1011.499 77.011 1014.215 80.849 1018.501 78.267 1047.298 60.922 1048.63 57.143 1045.685 52.476 1051.901 48.55 1051.901 45.57" fill="#000933"/>
        <polygon points="1822.96 53.512 1822.167 55.833 1818.5 55.833 1815.667 58.5 1812.167 58.5 1809.667 62.667 1807.833 65.5 1807 67.5 1801.5 69.806 1805.833 71.5 1807.333 75.5 1812.23 79.667 1813 83.721 1842.798 83.721 1842.798 69.806 1822.96 53.512" fill="#000933"/>
        <path d="M844.392,95.518c-.627,0-13.592-1.882-13.592-1.882l-10.874,1.046-15.893-2.3L787.975,93.51,769.35,92.381H759.01l-8.124,2.606-7.57,1.846-1.292,2.249,1.292,1.444,8.309,2.216,7.57,2.4,12.371,1.292,6.831,4.247,6.278.923,4.93,1.479,2.928,3.858v4.3l1.038,2.933,52.76-25.089S845.02,95.518,844.392,95.518Z" fill="#000933"/>
        <polygon points="555.862 123.8 556.223 123.303 548.85 120.335 529.721 122.984 508.495 124.172 500.177 130.685 496.173 140.851 494.423 151.662 499.075 149.981 496.272 159.025 494.342 164.814 496.487 173.176 495.414 179.609 496.643 182.393 540.103 165.32 556.219 158.989 552.376 151.801 558.383 143.9 558.383 139.461 561.794 135.154 561.794 131.156 557.286 128.783 555.862 123.8" fill="#000933"/>
        <polygon points="1194.311 153.488 1196.12 142.376 1193.25 132 1193 120.75 1190.75 113.25 1191.5 104.5 1194.5 99.925 1194.093 95.342 1182.5 97 1176 99.925 1165.588 101.5 1155 107.25 1142 111 1136.25 118.5 1127.25 135 1127.25 143 1123 151.803 1124.25 155.25 1118.5 167.75 1106.801 172 1093.975 175.746 1077.13 175.25 1060.985 172 1051.901 176.999 1051.901 180.695 1057.931 186.867 1065.637 194.48 1065.637 200.049 1074.855 208.264 1174.586 208.265 1195.311 181.514 1196.379 172.612 1196.379 160.983 1194.311 153.488" fill="#000933"/>
        <polygon points="636.905 77.062 636.904 57.143 613.5 57.143 612.375 59.625 613.5 62.375 614.895 64 619.625 66.875 619.625 73 623.25 77.062 621.437 82.238 636.905 77.062" fill="#000933"/>
        <path d="M420.784,83.721H335.369l-6.3,4.433,1.046,2.194-2.8,4.635-2.977,1.4-.145.093L309.25,94.75l-10,2.166-15.466-.471L274,94.75l-15.25,1.695-9.417,2.638L241,93l-15.333-2.652S215.333,94,214.333,94s-13,.667-13,.667l-14.667,5.258L175,108.667l-3.814,4.061,2.481,2.3,1.667,3.771-2,3.539,2.048,7.854,54.457-14.058H375l45.785-13.345Z" fill="#000933"/>
        <polygon points="54.396 91.99 57.241 94.413 57.241 99.083 55.819 103.59 55.819 111.019 57.241 116.129 55.819 122.815 125.423 106.689 122.355 102.784 123.01 99.083 122.136 91.99 116.468 86.295 114.489 80.866 119.23 78.367 54.396 91.99" fill="#000933"/>
        <polygon points="843.055 323.477 832.941 313.714 827.132 308.061 825 289.562 826.848 278.063 832.941 276.063 839.701 261.259 862.85 254.25 873.064 240 868.658 235.231 870.849 231.462 844.546 222.255 825.58 219.185 810.059 220.859 781.604 214.163 737.951 211.652 720.166 214.721 702.818 217.112 690.81 219 677.141 219 658.599 224 648.169 232.5 636.763 237.244 633.129 239.503 630.786 247.5 636.581 255.5 657.76 274.285 670.358 278.312 674.091 292.806 698.333 302.333 714.833 315.977 716.491 328.412 709.848 334.644 708.003 340 754.667 340 758.146 340 863.554 340 861 333.667 843.055 323.477" fill="#000933"/>
      </g>
      <path d="M1329.031,274.063a2,2,0,1,1-2-2A2,2,0,0,1,1329.031,274.063Zm-6.6-178.586a1.5,1.5,0,1,0,1.5,1.5A1.5,1.5,0,0,0,1322.432,95.477Zm23.5,50.5a1,1,0,1,0,1,1A1,1,0,0,0,1345.932,145.977Zm-33-90a1.5,1.5,0,1,0,1.5,1.5A1.5,1.5,0,0,0,1312.932,55.977Zm7,253a1,1,0,1,0,1,1A1,1,0,0,0,1319.932,308.977Zm47,4a1.5,1.5,0,1,0,1.5,1.5A1.5,1.5,0,0,0,1366.932,312.977Zm6-39a1,1,0,1,0,1,1A1,1,0,0,0,1372.932,273.977Zm21.6-154.406a2,2,0,1,0,2,2A2,2,0,0,0,1394.528,119.571Zm4.5,64.406a2,2,0,1,0,2,2A2,2,0,0,0,1399.028,183.977Zm-30.1,49a1.5,1.5,0,1,0,1.5,1.5A1.5,1.5,0,0,0,1368.932,232.977Zm-18.5-78.5a1.5,1.5,0,1,0,1.5,1.5A1.5,1.5,0,0,0,1350.432,154.477Zm-37.5,85.5a1,1,0,1,0,1,1A1,1,0,0,0,1312.932,239.977Zm-44-162.5a1.5,1.5,0,1,0,1.5,1.5A1.5,1.5,0,0,0,1268.932,77.477Zm-60.614,140.7a2,2,0,1,0,2,2A2,2,0,0,0,1208.318,218.178Zm13.614-95.2a1.5,1.5,0,1,0,1.5,1.5A1.5,1.5,0,0,0,1221.932,122.977Zm11.6,183.584a2,2,0,1,0,2,2A2,2,0,0,0,1233.536,306.561Zm-26.6-199.584a1,1,0,1,0,1-1A1,1,0,0,0,1206.932,106.977Zm1.1-18.4a2,2,0,1,0-2-2A2,2,0,0,0,1208.037,88.572Zm84,30.5a2,2,0,1,0,2,2A2,2,0,0,0,1292.033,119.07Zm-10.1,86.267a1,1,0,1,0,1,1A1,1,0,0,0,1281.932,205.338Zm27.6-23.361a2,2,0,1,0,2,2A2,2,0,0,0,1309.532,181.977Zm101.995,38.089a2,2,0,1,0,2,2A2,2,0,0,0,1411.527,220.066Zm-152.595,5.911a1.5,1.5,0,1,0,1.5,1.5A1.5,1.5,0,0,0,1258.932,225.977Zm-22.5-59.5a1.5,1.5,0,1,0,1.5,1.5A1.5,1.5,0,0,0,1236.432,166.477Zm373.085,17.5a2,2,0,1,0,2,2A2,2,0,0,0,1609.517,183.977Zm-12.5,36.089a2,2,0,1,0,2,2A2,2,0,0,0,1597.018,220.066Zm21-100.495a2,2,0,1,0,2,2A2,2,0,0,0,1618.016,119.571Zm-22,67a1,1,0,1,0-1,1A1,1,0,0,0,1596.018,186.571Zm-6,102.991a2,2,0,1,0,2,2A2,2,0,0,0,1590.018,289.562Zm-171.491,0a2,2,0,1,0,2,2A2,2,0,0,0,1418.527,289.562Zm233.905-68.085a1.5,1.5,0,1,0,1.5,1.5A1.5,1.5,0,0,0,1652.432,221.477Zm16.586-84.906a1,1,0,1,0,1,1A1,1,0,0,0,1669.018,136.571Zm-10.625,21.958a1.5,1.5,0,1,0,1.5,1.5A1.5,1.5,0,0,0,1658.393,158.528Zm-16.375,106.042a1,1,0,1,0,1,1A1,1,0,0,0,1642.018,264.571Zm-57-149a1,1,0,1,0,1,1A1,1,0,0,0,1585.018,115.571Zm55.914,188.906a1.5,1.5,0,1,0,1.5,1.5A1.5,1.5,0,0,0,1640.932,304.477Zm-16.5-43a1.5,1.5,0,1,0,1.5,1.5A1.5,1.5,0,0,0,1624.432,261.477Zm-42.414-10.906a1,1,0,1,0,1,1A1,1,0,0,0,1582.018,250.571Zm-149.086,9.406a1,1,0,1,0,1,1A1,1,0,0,0,1432.932,259.977Zm53.591,9a2,2,0,1,0,2,2A2,2,0,0,0,1486.523,268.977Zm-12.941-49.693a1.5,1.5,0,1,0,1.5,1.5A1.5,1.5,0,0,0,1473.582,219.284Zm-53.65-24.307a1,1,0,1,0,1,1A1,1,0,0,0,1419.932,194.977Zm10-70a1,1,0,1,0,1,1A1,1,0,0,0,1429.932,124.977ZM1189.538,237.565a2,2,0,1,0,2,2A2,2,0,0,0,1189.538,237.565Zm343.008-4.588a1.5,1.5,0,1,0,1.5,1.5A1.5,1.5,0,0,0,1532.546,232.977Zm-6.528-104.406a1,1,0,1,0,1,1A1,1,0,0,0,1526.018,128.571Zm-37.086,9.406a1,1,0,1,0,1,1A1,1,0,0,0,1488.932,137.977Zm-347-21a1.5,1.5,0,1,0,1.5,1.5A1.5,1.5,0,0,0,1141.932,116.977Zm-257,118a1,1,0,1,0,1,1A1,1,0,0,0,884.932,234.977Zm-7.878-154.4a2,2,0,1,0,2,2A2,2,0,0,0,877.053,80.573Zm16.5,83.5a2,2,0,1,0,2,2A2,2,0,0,0,893.553,164.068Zm-19.121,31.409a1.5,1.5,0,1,0,1.5,1.5A1.5,1.5,0,0,0,874.432,195.477Zm-17.5,109.5a1,1,0,1,0,1,1A1,1,0,0,0,856.932,304.977Zm8.622-181.907a2,2,0,1,0,2,2A2,2,0,0,0,865.554,123.07Zm37.378,147.907a1.5,1.5,0,1,0,1.5,1.5A1.5,1.5,0,0,0,902.932,270.977Zm64.617-20.913a2,2,0,1,0,2,2A2,2,0,0,0,967.549,250.064Zm-8,54a2,2,0,1,0,2,2A2,2,0,0,0,959.55,304.061Zm-27.5,19a2,2,0,1,0,2,2A2,2,0,0,0,932.05,323.06Zm9.881-222.083a1.5,1.5,0,1,0,1.5,1.5A1.5,1.5,0,0,0,941.932,100.977Zm-20,139a1,1,0,1,0,1,1A1,1,0,0,0,921.932,239.977Zm37.5-56.5a1.5,1.5,0,1,0-1.5,1.5A1.5,1.5,0,0,0,959.432,183.477Zm274.5-42.5a1,1,0,1,0,1-1A1,1,0,0,0,1233.932,140.977Zm-162,72a1,1,0,1,0-1-1A1,1,0,0,0,1071.932,212.977Zm162.5-171.5a1.5,1.5,0,1,0,1.5,1.5A1.5,1.5,0,0,0,1234.432,41.477ZM845.055,227.065a2,2,0,1,0,2,2A2,2,0,0,0,845.055,227.065ZM2203.018,120.571a1,1,0,1,0-1-1A1,1,0,0,0,2203.018,120.571Zm-397-23a1,1,0,1,0,1-1A1,1,0,0,0,1806.018,97.571ZM811.932,129.977a1,1,0,1,0-1-1A1,1,0,0,0,811.932,129.977ZM832.941,168.5a1.5,1.5,0,1,0,1.5,1.5A1.5,1.5,0,0,0,832.941,168.5Zm12.115,107.562a2,2,0,1,0,2,2A2,2,0,0,0,845.055,276.063Zm-32.624,47.414a1.5,1.5,0,1,0,1.5,1.5A1.5,1.5,0,0,0,812.432,323.477Zm6.5-252a1.5,1.5,0,1,0,1.5,1.5A1.5,1.5,0,0,0,818.932,71.477ZM810.763,202a1,1,0,1,0-1-1A1,1,0,0,0,810.763,202Zm284.169,66.973a1,1,0,1,0,1,1A1,1,0,0,0,1094.932,268.977Zm38.5-41.5a1.5,1.5,0,1,0,1.5,1.5A1.5,1.5,0,0,0,1133.432,227.477Zm2.5,14.5a1,1,0,1,0,1,1A1,1,0,0,0,1135.932,241.977Zm-3.5-179.5a1.5,1.5,0,1,0-1.5,1.5A1.5,1.5,0,0,0,1132.432,62.477Zm-23.5,88.5a1.5,1.5,0,1,0,1.5,1.5A1.5,1.5,0,0,0,1108.932,150.977Zm572.582,121.086a2,2,0,1,0,2,2A2,2,0,0,0,1681.513,272.063Zm-564.972,6a2,2,0,1,0,2,2A2,2,0,0,0,1116.542,278.063Zm57.5-111.994a2,2,0,1,0,2,2A2,2,0,0,0,1174.039,166.068Zm-18.107-34.091a1,1,0,1,0,1,1A1,1,0,0,0,1155.932,131.977Zm22,146a1.5,1.5,0,1,0,1.5,1.5A1.5,1.5,0,0,0,1177.932,277.977Zm3-95a1,1,0,1,0,1,1A1,1,0,0,0,1180.932,182.977Zm-7,137a1.5,1.5,0,1,0,1.5,1.5A1.5,1.5,0,0,0,1173.932,319.977Zm-72.5-4.5a1.5,1.5,0,1,0,1.5,1.5A1.5,1.5,0,0,0,1101.432,315.477Zm-70-1.763a1.5,1.5,0,1,0,1.5,1.5A1.5,1.5,0,0,0,1031.432,313.714Zm-1-126.237a1.5,1.5,0,1,0-1.5,1.5A1.5,1.5,0,0,0,1030.432,187.477Zm-3.5,86.5a1.5,1.5,0,1,0,1.5,1.5A1.5,1.5,0,0,0,1026.932,273.977ZM1180.038,95.072a2,2,0,1,0,2,2A2,2,0,0,0,1180.038,95.072ZM999.932,156.977a1,1,0,1,0,1,1A1,1,0,0,0,999.932,156.977Zm-3-70a1,1,0,1,0,1,1A1,1,0,0,0,996.932,86.977Zm19.615,149.588a2,2,0,1,0,2,2A2,2,0,0,0,1016.547,236.565Zm32-115.495a2,2,0,1,0,2,2A2,2,0,0,0,1048.545,121.07Zm42,63.5a2,2,0,1,0,2,2A2,2,0,0,0,1090.543,184.567Zm0-79.5a2,2,0,1,0-2,2A2,2,0,0,0,1090.543,105.071ZM1072.3,289.562a2,2,0,1,0,2,2A2,2,0,0,0,1072.3,289.562Zm-3.369-228.585a1.5,1.5,0,1,0,1.5,1.5A1.5,1.5,0,0,0,1068.932,60.977ZM2007,139.07a2,2,0,1,0,2,2A2,2,0,0,0,2007,139.07Zm-63.979,62.5a1,1,0,1,0,1,1A1,1,0,0,0,1943.018,201.571Zm-6.774,87.991a2,2,0,1,0,2,2A2,2,0,0,0,1936.244,289.562ZM1920,103.071a2,2,0,1,0,2,2A2,2,0,0,0,1920,103.071Zm.017,156.5a1,1,0,1,0,1,1A1,1,0,0,0,1920.018,259.571ZM1960,121.07a2,2,0,1,0,2,2A2,2,0,0,0,1960,121.07Zm-31.568,189.407a1.5,1.5,0,1,0,1.5,1.5A1.5,1.5,0,0,0,1928.432,310.477Zm86.586-162.906a1,1,0,1,0,1,1A1,1,0,0,0,2015.018,147.571Zm-16.086,129.406a1.5,1.5,0,1,0,1.5,1.5A1.5,1.5,0,0,0,1998.932,276.977Zm-6.5-95.5a1.5,1.5,0,1,0-1.5,1.5A1.5,1.5,0,0,0,1992.432,181.477ZM1992,236.565a2,2,0,1,0,2,2A2,2,0,0,0,1992,236.565Zm-157.492-70.5a2,2,0,1,0,2,2A2,2,0,0,0,1834.506,166.068Zm25.513-42.5a1,1,0,1,0-1,1A1,1,0,0,0,1860.018,123.571Zm158-46a1,1,0,1,0,1,1A1,1,0,0,0,2018.018,77.571Zm-184,96a1,1,0,1,0,1,1A1,1,0,0,0,1834.018,173.571Zm-5.512-78.5a2,2,0,1,0,2,2A2,2,0,0,0,1828.506,95.072Zm31.426,233.593a1.5,1.5,0,1,0,1.5,1.5A1.5,1.5,0,0,0,1859.932,328.665Zm19.086-96.094a1,1,0,1,0,1,1A1,1,0,0,0,1879.018,232.571Zm-12.086-6.594a1.5,1.5,0,1,0,1.5,1.5A1.5,1.5,0,0,0,1866.932,225.977Zm53.07-39.41a2,2,0,1,0-2,2A2,2,0,0,0,1920,186.567Zm-41.07-49.59a1.5,1.5,0,1,0-1.5,1.5A1.5,1.5,0,0,0,1878.932,136.977Zm-6-77a1.5,1.5,0,1,0,1.5,1.5A1.5,1.5,0,0,0,1872.932,59.977Zm294.5-4.5a1.5,1.5,0,1,0-1.5,1.5A1.5,1.5,0,0,0,2167.432,55.477Zm-3.943,220.586a2,2,0,1,0,2,2A2,2,0,0,0,2163.489,276.063Zm-344.483-38.5a2,2,0,1,0,2,2A2,2,0,0,0,1819.006,237.565ZM2176.932,91.977a1.5,1.5,0,1,0,1.5,1.5A1.5,1.5,0,0,0,2176.932,91.977Zm27.086,100.594a1,1,0,1,0-1,1A1,1,0,0,0,2204.018,192.571ZM2041,250.064a2,2,0,1,0,2,2A2,2,0,0,0,2041,250.064Zm102-126.994a2,2,0,1,0,2,2A2,2,0,0,0,2142.99,123.07Zm25.441,51.407a1.5,1.5,0,1,0,1.5,1.5A1.5,1.5,0,0,0,2168.432,174.477ZM2058.24,173.47a1.5,1.5,0,1,0,1.5,1.5A1.5,1.5,0,0,0,2058.24,173.47Zm17.191-58.993a1.5,1.5,0,1,0-1.5,1.5A1.5,1.5,0,0,0,2075.432,114.477ZM2134.87,220.5a1,1,0,1,0,1,1A1,1,0,0,0,2134.87,220.5Zm-85.875,83.563a2,2,0,1,0,2,2A2,2,0,0,0,2048.995,304.061Zm27.5,19a2,2,0,1,0,2,2A2,2,0,0,0,2076.493,323.06Zm55-242.488a2,2,0,1,0,2,2A2,2,0,0,0,2131.491,80.573Zm-16.5,83.5a2,2,0,1,0,2,2A2,2,0,0,0,2114.991,164.068Zm-25.557,72.525a1,1,0,1,0,1,1A1,1,0,0,0,2089.435,236.593Zm6.5,47.384a1.5,1.5,0,1,0,1.5,1.5A1.5,1.5,0,0,0,2095.932,283.977ZM1892,278.063a2,2,0,1,0,2,2A2,2,0,0,0,1892,278.063Zm-196.378-92.086a2,2,0,1,0,2,2A2,2,0,0,0,1695.625,185.977Zm109.807,111.5a1.5,1.5,0,1,0,1.5,1.5A1.5,1.5,0,0,0,1805.432,297.477Zm-4.924-212.9a2,2,0,1,0,2,2A2,2,0,0,0,1800.508,84.572Zm-62.076-10.1a1.5,1.5,0,1,0,1.5,1.5A1.5,1.5,0,0,0,1738.432,74.477Zm-29.366,127.089a2,2,0,1,0,2,2A2,2,0,0,0,1709.066,201.566Zm42.866-33.089a1.5,1.5,0,1,0,1.5,1.5A1.5,1.5,0,0,0,1751.932,168.477Zm-49.914,62.094a1,1,0,1,0,1,1A1,1,0,0,0,1702.018,230.571Zm89.962-94.046a1.5,1.5,0,1,0,1.5,1.5A1.5,1.5,0,0,0,1791.98,136.525Zm-46.048,100.952a1.5,1.5,0,1,0,1.5,1.5A1.5,1.5,0,0,0,1745.932,237.477Zm31.207-110.619a1,1,0,1,0,1,1A1,1,0,0,0,1777.138,126.858Zm-44.12,69.713a1,1,0,1,0,1,1A1,1,0,0,0,1733.018,196.571Zm73.989,15.5a2,2,0,1,0,2,2A2,2,0,0,0,1807.007,212.066Zm-110.989,88.5a1,1,0,1,0-1,1A1,1,0,0,0,1696.018,300.571Zm35.493-13.009a2,2,0,1,0,2,2A2,2,0,0,0,1731.511,287.562Zm-35.579,31.415a1.5,1.5,0,1,0,1.5,1.5A1.5,1.5,0,0,0,1695.932,318.977Zm20.58-199.907a2,2,0,1,0,2,2A2,2,0,0,0,1716.511,119.07Zm58.5,187.491a2,2,0,1,0,2,2A2,2,0,0,0,1775.008,306.561ZM881.123,29.573a2,2,0,1,0,2,2A2,2,0,0,0,881.123,29.573Zm113.473,5a1,1,0,1,0,1,1A1,1,0,0,0,994.6,34.575Zm1140.964-5a2,2,0,1,0,2,2A2,2,0,0,0,2135.56,29.573Zm-1184.941,30a2,2,0,1,0,2,2A2,2,0,0,0,950.619,59.571Zm749.063-1.4a1.5,1.5,0,1,0-1.5-1.5A1.5,1.5,0,0,0,1699.682,58.168Zm105-50a1,1,0,1,0-1-1A1,1,0,0,0,1804.682,8.168Zm389,31.5a1.5,1.5,0,1,0,1.5,1.5A1.5,1.5,0,0,0,2193.682,39.668Zm-1182.066,7.4a2,2,0,1,0,2,2A2,2,0,0,0,1011.616,47.072Zm-164.934,10.1a1.5,1.5,0,1,0,1.5,1.5A1.5,1.5,0,0,0,846.682,57.168Zm-11-38a1.5,1.5,0,1,0,1.5,1.5A1.5,1.5,0,0,0,835.682,19.168Zm1046,31a1.5,1.5,0,1,0,1.5,1.5A1.5,1.5,0,0,0,1881.682,50.168Zm-191.5-34.5a1.5,1.5,0,1,0,1.5,1.5A1.5,1.5,0,0,0,1690.182,15.668Zm-414.5,22.5a1.5,1.5,0,1,0-1.5,1.5A1.5,1.5,0,0,0,1275.682,38.168Zm502.5,31.5a1.5,1.5,0,1,0,1.5,1.5A1.5,1.5,0,0,0,1778.182,69.668ZM1924.07,7.074a2,2,0,1,0,2,2A2,2,0,0,0,1924.07,7.074Zm-717.475,9.5a1,1,0,1,0-1,1A1,1,0,0,0,1206.6,16.575Zm5.511,9a2,2,0,1,0,2,2A2,2,0,0,0,1212.106,25.573Zm-28-10.5a2,2,0,1,0,2,2A2,2,0,0,0,1184.107,15.074Zm650.468,2a2,2,0,1,0-2,2A2,2,0,0,0,1834.575,17.074Zm-28,10.5a2,2,0,1,0-2,2A2,2,0,0,0,1806.576,27.573Zm259.487,32a2,2,0,1,0,2,2A2,2,0,0,0,2066.063,59.571Zm-50.381-34.4a1,1,0,1,0,1,1A1,1,0,0,0,2015.682,25.168Zm-8.616,23.9a2,2,0,1,0-2,2A2,2,0,0,0,2007.066,49.072Zm63.616-38.9a1.5,1.5,0,1,0,1.5,1.5A1.5,1.5,0,0,0,2070.682,10.168Zm-325.5,25a1.5,1.5,0,1,0-1.5,1.5A1.5,1.5,0,0,0,1745.182,35.168ZM1094.612,9.074a2,2,0,1,0-2,2A2,2,0,0,0,1094.612,9.074Zm46.57,43.594a1.5,1.5,0,1,0-1.5,1.5A1.5,1.5,0,0,0,1141.182,52.668Zm802.5-2.5a1.5,1.5,0,1,0,1.5,1.5A1.5,1.5,0,0,0,1943.682,50.168Zm-666.663,237.3a2,2,0,1,0,2,2A2,2,0,0,0,1277.019,287.471ZM290.194,96.318a1.5,1.5,0,1,0,1.5,1.5A1.5,1.5,0,0,0,290.194,96.318Zm23.5,50.5a1,1,0,1,0,1,1A1,1,0,0,0,313.694,146.818Zm-33-90a1.5,1.5,0,1,0,1.5,1.5A1.5,1.5,0,0,0,280.694,56.818Zm-92.5,272.347a1,1,0,1,0,1,1A1,1,0,0,0,188.194,329.165Zm-50.393-55.1a2,2,0,1,0,2,2A2,2,0,0,0,137.8,274.063ZM16.429,183.977a2,2,0,1,0,2,2A2,2,0,0,0,16.429,183.977ZM116.468,300.571a1,1,0,1,0,1,1A1,1,0,0,0,116.468,300.571ZM236.694,78.318a1.5,1.5,0,1,0,1.5,1.5A1.5,1.5,0,0,0,236.694,78.318Zm-62,29.5a1,1,0,1,0,1-1A1,1,0,0,0,174.694,107.818Zm1.1-18.4a2,2,0,1,0-2-2A2,2,0,0,0,175.8,89.413Zm84,30.5a2,2,0,1,0,2,2A2,2,0,0,0,259.795,119.911ZM450.42,258.571a1,1,0,1,0,1,1A1,1,0,0,0,450.42,258.571ZM28.928,220.066a2,2,0,1,0,2,2A2,2,0,0,0,28.928,220.066Zm175.266-52.748a1.5,1.5,0,1,0,1.5,1.5A1.5,1.5,0,0,0,204.194,167.318Zm22.725,16.659a2,2,0,1,0,2,2A2,2,0,0,0,226.918,183.977Zm-12.5,36.089a2,2,0,1,0,2,2A2,2,0,0,0,214.419,220.066Zm21-100.495a2,2,0,1,0,2,2A2,2,0,0,0,235.418,119.571Zm-22,67a1,1,0,1,0-1,1A1,1,0,0,0,213.42,186.571ZM108.444,193.48a1,1,0,1,0-1,1A1,1,0,0,0,108.444,193.48Zm98.976,96.082a2,2,0,1,0,2,2A2,2,0,0,0,207.419,289.562Zm-171.491,0a2,2,0,1,0,2,2A2,2,0,0,0,35.928,289.562Zm233.905-68.085a1.5,1.5,0,1,0,1.5,1.5A1.5,1.5,0,0,0,269.833,221.477Zm16.586-84.906a1,1,0,1,0,1,1A1,1,0,0,0,286.42,136.571Zm-10.625,21.958a1.5,1.5,0,1,0,1.5,1.5A1.5,1.5,0,0,0,275.794,158.528ZM259.42,264.571a1,1,0,1,0,1,1A1,1,0,0,0,259.42,264.571Zm-57-149a1,1,0,1,0,1,1A1,1,0,0,0,202.42,115.571Zm55.914,188.906a1.5,1.5,0,1,0,1.5,1.5A1.5,1.5,0,0,0,258.333,304.477Zm-16.5-43a1.5,1.5,0,1,0,1.5,1.5A1.5,1.5,0,0,0,241.833,261.477ZM199.42,250.571a1,1,0,1,0,1,1A1,1,0,0,0,199.42,250.571ZM50.333,259.977a1,1,0,1,0,1,1A1,1,0,0,0,50.333,259.977Zm53.591,9a2,2,0,1,0,2,2A2,2,0,0,0,103.925,268.977ZM90.983,219.284a1.5,1.5,0,1,0,1.5,1.5A1.5,1.5,0,0,0,90.983,219.284Zm-53.65-24.307a1,1,0,1,0,1,1A1,1,0,0,0,37.333,194.977Zm10-70a1,1,0,1,0,1,1A1,1,0,0,0,47.333,124.977Zm116.5,99.5a1.5,1.5,0,1,0,1.5,1.5A1.5,1.5,0,0,0,163.833,224.477ZM143.42,128.571a1,1,0,1,0,1,1A1,1,0,0,0,143.42,128.571Zm-37.086,9.406a1,1,0,1,0,1,1A1,1,0,0,0,106.333,137.977Zm3.36-20.159a1.5,1.5,0,1,0,1.5,1.5A1.5,1.5,0,0,0,109.694,117.818Zm92,24a1,1,0,1,0,1-1A1,1,0,0,0,201.694,141.818Zm.5-99.5a1.5,1.5,0,1,0,1.5,1.5A1.5,1.5,0,0,0,202.194,42.318ZM423.42,97.571a1,1,0,1,0,1-1A1,1,0,0,0,423.42,97.571ZM153.475,292.562a1,1,0,1,0,1,1A1,1,0,0,0,153.475,292.562ZM100.194,63.318a1.5,1.5,0,1,0-1.5,1.5A1.5,1.5,0,0,0,100.194,63.318Zm-23.5,88.5a1.5,1.5,0,1,0,1.5,1.5A1.5,1.5,0,0,0,76.694,151.818ZM298.915,272.063a2,2,0,1,0,2,2A2,2,0,0,0,298.915,272.063ZM141.8,166.909a2,2,0,1,0,2,2A2,2,0,0,0,141.8,166.909Zm24.533,98.662a1,1,0,1,0,1,1A1,1,0,0,0,166.333,265.571ZM147.8,95.912a2,2,0,1,0,2,2A2,2,0,0,0,147.8,95.912Zm-131.494,26a2,2,0,1,0,2,2A2,2,0,0,0,16.306,121.911Zm42-16a2,2,0,1,0-2,2A2,2,0,0,0,58.305,105.912ZM36.694,61.818a1.5,1.5,0,1,0,1.5,1.5A1.5,1.5,0,0,0,36.694,61.818ZM624.4,139.07a2,2,0,1,0,2,2A2,2,0,0,0,624.4,139.07Zm-63.979,62.5a1,1,0,1,0,1,1A1,1,0,0,0,560.42,201.571Zm-6.774,87.991a2,2,0,1,0,2,2A2,2,0,0,0,553.645,289.562ZM537.4,103.071a2,2,0,1,0,2,2A2,2,0,0,0,537.4,103.071Zm.017,156.5a1,1,0,1,0,1,1A1,1,0,0,0,537.42,259.571Zm61.488,37.263a1,1,0,1,0,1,1A1,1,0,0,0,598.908,296.833ZM577.4,121.07a2,2,0,1,0,2,2A2,2,0,0,0,577.4,121.07ZM545.833,310.477a1.5,1.5,0,1,0,1.5,1.5A1.5,1.5,0,0,0,545.833,310.477ZM632.42,147.571a1,1,0,1,0,1,1A1,1,0,0,0,632.42,147.571ZM616.333,276.977a1.5,1.5,0,1,0,1.5,1.5A1.5,1.5,0,0,0,616.333,276.977Zm-6.5-95.5a1.5,1.5,0,1,0-1.5,1.5A1.5,1.5,0,0,0,609.833,181.477Zm-.434,55.088a2,2,0,1,0,2,2A2,2,0,0,0,609.4,236.565ZM453.617,166.6a2,2,0,1,0,2,2A2,2,0,0,0,453.617,166.6Zm23.8-43.032a1,1,0,1,0-1,1A1,1,0,0,0,477.42,123.571Zm158-46a1,1,0,1,0,1,1A1,1,0,0,0,635.42,77.571Zm-184,96a1,1,0,1,0,1,1A1,1,0,0,0,451.42,173.571Zm-5.512-78.5a2,2,0,1,0,2,2A2,2,0,0,0,445.908,95.072Zm31.426,233.593a1.5,1.5,0,1,0,1.5,1.5A1.5,1.5,0,0,0,477.333,328.665Zm19.086-96.094a1,1,0,1,0,1,1A1,1,0,0,0,496.42,232.571Zm-12.086-6.594a1.5,1.5,0,1,0,1.5,1.5A1.5,1.5,0,0,0,484.333,225.977Zm53.07-39.41a2,2,0,1,0-2,2A2,2,0,0,0,537.4,186.567Zm-41.07-49.59a1.5,1.5,0,1,0-1.5,1.5A1.5,1.5,0,0,0,496.333,136.977Zm-6-77a1.5,1.5,0,1,0,1.5,1.5A1.5,1.5,0,0,0,490.333,59.977ZM775.42,295.571a1,1,0,1,0,1,1A1,1,0,0,0,775.42,295.571Zm5.471-66.514a2,2,0,1,0,2,2A2,2,0,0,0,780.89,229.057Zm3.943-173.58a1.5,1.5,0,1,0-1.5,1.5A1.5,1.5,0,0,0,784.833,55.477ZM780.89,276.063a2,2,0,1,0,2,2A2,2,0,0,0,780.89,276.063Zm-.557,39.914a1.5,1.5,0,1,0,1.5,1.5A1.5,1.5,0,0,0,780.333,315.977ZM441.908,234.565a2,2,0,1,0,2,2A2,2,0,0,0,441.908,234.565ZM794.333,91.977a1.5,1.5,0,1,0,1.5,1.5A1.5,1.5,0,0,0,794.333,91.977ZM658.4,250.064a2,2,0,1,0,2,2A2,2,0,0,0,658.4,250.064Zm102-126.994a2,2,0,1,0,2,2A2,2,0,0,0,760.392,123.07Zm25.441,51.407a1.5,1.5,0,1,0,1.5,1.5A1.5,1.5,0,0,0,785.833,174.477ZM675.642,173.47a1.5,1.5,0,1,0,1.5,1.5A1.5,1.5,0,0,0,675.642,173.47Zm17.191-58.993a1.5,1.5,0,1,0-1.5,1.5A1.5,1.5,0,0,0,692.833,114.477ZM752.271,220.5a1,1,0,1,0,1,1A1,1,0,0,0,752.271,220.5ZM666.4,304.061a2,2,0,1,0,2,2A2,2,0,0,0,666.4,304.061Zm27.5,19a2,2,0,1,0,2,2A2,2,0,0,0,693.895,323.06Zm55-242.488a2,2,0,1,0,2,2A2,2,0,0,0,748.892,80.573Zm-16.5,83.5a2,2,0,1,0,2,2A2,2,0,0,0,732.393,164.068Zm-25.557,72.525a1,1,0,1,0,1,1A1,1,0,0,0,706.836,236.593Zm6.5,47.384a1.5,1.5,0,1,0,1.5,1.5A1.5,1.5,0,0,0,713.333,283.977ZM509.4,278.063a2,2,0,1,0,2,2A2,2,0,0,0,509.4,278.063Zm-192.99-96.086a2,2,0,1,0,2,2A2,2,0,0,0,316.414,181.977Zm106.419,115.5a1.5,1.5,0,1,0,1.5,1.5A1.5,1.5,0,0,0,422.833,297.477Zm-4.924-212.9a2,2,0,1,0,2,2A2,2,0,0,0,417.909,84.572Zm-62.076-10.1a1.5,1.5,0,1,0,1.5,1.5A1.5,1.5,0,0,0,355.833,74.477Zm-34.42,125.089a2,2,0,1,0,2,2A2,2,0,0,0,321.413,199.566Zm47.92-31.089a1.5,1.5,0,1,0,1.5,1.5A1.5,1.5,0,0,0,369.333,168.477Zm-254.409,16a1.5,1.5,0,1,0,1.5,1.5A1.5,1.5,0,0,0,114.924,184.477Zm204.5,46.094a1,1,0,1,0,1,1A1,1,0,0,0,319.42,230.571Zm89.962-94.046a1.5,1.5,0,1,0,1.5,1.5A1.5,1.5,0,0,0,409.382,136.525Zm-47.548,98.568a1.5,1.5,0,1,0,1.5,1.5A1.5,1.5,0,0,0,361.833,235.093ZM394.54,126.858a1,1,0,1,0,1,1A1,1,0,0,0,394.54,126.858Zm-44.12,69.713a1,1,0,1,0,1,1A1,1,0,0,0,350.42,196.571Zm73.989,15.5a2,2,0,1,0,2,2A2,2,0,0,0,424.409,212.066Zm-110.989,88.5a1,1,0,1,0-1,1A1,1,0,0,0,313.42,300.571Zm324.485,30.594a1,1,0,1,0-1,1A1,1,0,0,0,637.905,331.165Zm-288.993-43.6a2,2,0,1,0,2,2A2,2,0,0,0,348.912,287.562Zm-35.579,31.415a1.5,1.5,0,1,0,1.5,1.5A1.5,1.5,0,0,0,313.333,318.977Zm20.58-199.907a2,2,0,1,0,2,2A2,2,0,0,0,333.913,119.07Zm58.5,187.491a2,2,0,1,0,2,2A2,2,0,0,0,392.41,306.561ZM752.961,29.573a2,2,0,1,0,2,2A2,2,0,0,0,752.961,29.573Zm-435.878,28.6a1.5,1.5,0,1,0-1.5-1.5A1.5,1.5,0,0,0,317.083,58.168Zm105-50a1,1,0,1,0-1-1A1,1,0,0,0,422.083,8.168Zm389,31.5a1.5,1.5,0,1,0,1.5,1.5A1.5,1.5,0,0,0,811.083,39.668Zm-312,10.5a1.5,1.5,0,1,0,1.5,1.5A1.5,1.5,0,0,0,499.083,50.168Zm-191.5-34.5a1.5,1.5,0,1,0,1.5,1.5A1.5,1.5,0,0,0,307.583,15.668Zm-64.14,23.341a1.5,1.5,0,1,0-1.5,1.5A1.5,1.5,0,0,0,243.444,39.009Zm152.14,30.659a1.5,1.5,0,1,0,1.5,1.5A1.5,1.5,0,0,0,395.583,69.668ZM541.472,7.074a2,2,0,1,0,2,2A2,2,0,0,0,541.472,7.074ZM174.357,17.415a1,1,0,1,0-1,1A1,1,0,0,0,174.357,17.415ZM73.194,310.977a2,2,0,1,0,2,2A2,2,0,0,0,73.194,310.977ZM151.869,15.914a2,2,0,1,0,2,2A2,2,0,0,0,151.869,15.914Zm300.107,1.159a2,2,0,1,0-2,2A2,2,0,0,0,451.976,17.074Zm-28,10.5a2,2,0,1,0-2,2A2,2,0,0,0,423.978,27.573Zm259.487,32a2,2,0,1,0,2,2A2,2,0,0,0,683.465,59.571Zm-50.381-34.4a1,1,0,1,0,1,1A1,1,0,0,0,633.083,25.168Zm-8.616,23.9a2,2,0,1,0-2,2A2,2,0,0,0,624.468,49.072Zm63.616-38.9a1.5,1.5,0,1,0,1.5,1.5A1.5,1.5,0,0,0,688.083,10.168Zm-325.5,25a1.5,1.5,0,1,0-1.5,1.5A1.5,1.5,0,0,0,362.583,35.168ZM62.374,9.914a2,2,0,1,0-2,2A2,2,0,0,0,62.374,9.914Zm46.57,43.594a1.5,1.5,0,1,0-1.5,1.5A1.5,1.5,0,0,0,108.944,53.509Zm452.14-3.341a1.5,1.5,0,1,0,1.5,1.5A1.5,1.5,0,0,0,561.083,50.168Zm1543.172,170.01a2,2,0,1,0,2-2A2,2,0,0,0,2104.255,220.178Zm324.386,15.8a1,1,0,1,0,1-1A1,1,0,0,0,2428.642,235.977Zm6.878-153.4a2,2,0,1,0,2-2A2,2,0,0,0,2435.52,82.573Zm-16.5,83.5a2,2,0,1,0,2-2A2,2,0,0,0,2419.021,166.068Zm19.621,30.909a1.5,1.5,0,1,0,1.5-1.5A1.5,1.5,0,0,0,2438.642,196.977Zm18,109a1,1,0,1,0,1-1A1,1,0,0,0,2456.642,305.977ZM2447.02,125.07a2,2,0,1,0,2-2A2,2,0,0,0,2447.02,125.07Zm-36.878,147.407a1.5,1.5,0,1,0,1.5-1.5A1.5,1.5,0,0,0,2410.142,272.477Zm-65.117-20.413a2,2,0,1,0,2-2A2,2,0,0,0,2345.024,252.064Zm8,54a2,2,0,1,0,2-2A2,2,0,0,0,2353.024,306.061Zm27.5,19a2,2,0,1,0,2-2A2,2,0,0,0,2380.523,325.06Zm-9.381-222.583a1.5,1.5,0,1,0,1.5-1.5A1.5,1.5,0,0,0,2371.142,102.477Zm20.5,138.5a1,1,0,1,0,1-1A1,1,0,0,0,2391.642,240.977Zm-35-56a1.5,1.5,0,1,0-1.5-1.5A1.5,1.5,0,0,0,2356.642,184.977Zm-113,27a1,1,0,1,0-1,1A1,1,0,0,0,2243.642,211.977Zm223.876,17.088a2,2,0,1,0,2-2A2,2,0,0,0,2467.518,229.065Zm36.124-100.088a1,1,0,1,0-1,1A1,1,0,0,0,2503.642,128.977ZM2480.133,170a1.5,1.5,0,1,0,1.5-1.5A1.5,1.5,0,0,0,2480.133,170Zm-12.615,108.062a2,2,0,1,0,2-2A2,2,0,0,0,2467.518,278.063Zm33.124,46.914a1.5,1.5,0,1,0,1.5-1.5A1.5,1.5,0,0,0,2500.642,324.977Zm-6.5-252a1.5,1.5,0,1,0,1.5-1.5A1.5,1.5,0,0,0,2494.142,72.977Zm9.5,129a1,1,0,1,0-1,1A1,1,0,0,0,2503.642,201.977Zm-285,68a1,1,0,1,0,1-1A1,1,0,0,0,2218.642,269.977Zm-39-41a1.5,1.5,0,1,0,1.5-1.5A1.5,1.5,0,0,0,2179.642,228.977Zm-2,14a1,1,0,1,0,1-1A1,1,0,0,0,2177.642,242.977Zm26.5-90.5a1.5,1.5,0,1,0,1.5-1.5A1.5,1.5,0,0,0,2204.142,152.477Zm-8.11,127.586a2,2,0,1,0,2-2A2,2,0,0,0,2196.032,280.063Zm-38.39-147.086a1,1,0,1,0,1-1A1,1,0,0,0,2157.642,132.977Zm-22.5,146.5a1.5,1.5,0,1,0,1.5-1.5A1.5,1.5,0,0,0,2135.142,279.477Zm-2.5-95.5a1,1,0,1,0,1-1A1,1,0,0,0,2132.642,183.977Zm6.5,137.5a1.5,1.5,0,1,0,1.5-1.5A1.5,1.5,0,0,0,2139.142,321.477Zm72.5-4.5a1.5,1.5,0,1,0,1.5-1.5A1.5,1.5,0,0,0,2211.642,316.977Zm70-1.763a1.5,1.5,0,1,0,1.5-1.5A1.5,1.5,0,0,0,2281.642,315.214Zm4-126.237a1.5,1.5,0,1,0-1.5-1.5A1.5,1.5,0,0,0,2285.642,188.977Zm.5,86.5a1.5,1.5,0,1,0,1.5-1.5A1.5,1.5,0,0,0,2286.142,275.477Zm27.5-117.5a1,1,0,1,0,1-1A1,1,0,0,0,2313.642,157.977Zm3-70a1,1,0,1,0,1-1A1,1,0,0,0,2316.642,87.977Zm-20.615,150.588a2,2,0,1,0,2-2A2,2,0,0,0,2296.027,238.565Zm-32-115.495a2,2,0,1,0,2-2A2,2,0,0,0,2264.029,123.07Zm-42,63.5a2,2,0,1,0,2-2A2,2,0,0,0,2222.031,186.567Zm4-79.5a2,2,0,1,0-2-2A2,2,0,0,0,2226.03,107.071Zm14.243,184.49a2,2,0,1,0,2-2A2,2,0,0,0,2240.273,291.562Zm3.869-229.085a1.5,1.5,0,1,0,1.5-1.5A1.5,1.5,0,0,0,2244.142,62.477Zm187.309-30.9a2,2,0,1,0,2-2A2,2,0,0,0,2431.451,31.573Zm-112.473,4.44a1,1,0,1,0,1-1A1,1,0,0,0,2318.978,36.013Zm42.977,25.558a2,2,0,1,0,2-2A2,2,0,0,0,2361.955,61.571Zm-61-12.5a2,2,0,1,0,2-2A2,2,0,0,0,2300.958,49.072Zm165.434,9.6a1.5,1.5,0,1,0,1.5-1.5A1.5,1.5,0,0,0,2466.392,58.668Zm11-38a1.5,1.5,0,1,0,1.5-1.5A1.5,1.5,0,0,0,2477.392,20.668ZM2993.2,159.793a1.5,1.5,0,1,0,1.5-1.5A1.5,1.5,0,0,0,2993.2,159.793Zm-130.044,99.778a1,1,0,1,0,1-1A1,1,0,0,0,2863.154,259.571ZM2848.5,290a1,1,0,1,0,1-1A1,1,0,0,0,2848.5,290Zm41.654-193.429a1,1,0,1,0,1,1A1,1,0,0,0,2890.154,96.571Zm-201.979,44.5a2,2,0,1,0,2-2A2,2,0,0,0,2688.175,141.07Zm64.979,61.5a1,1,0,1,0,1-1A1,1,0,0,0,2753.154,202.571Zm5.774,88.991a2,2,0,1,0,2-2A2,2,0,0,0,2758.928,291.562Zm16.243-186.49a2,2,0,1,0,2-2A2,2,0,0,0,2775.171,105.071Zm.983,155.5a1,1,0,1,0,1-1A1,1,0,0,0,2776.154,260.571Zm-61.488,37.263a1,1,0,1,0,1-1A1,1,0,0,0,2714.665,297.833Zm20.507-174.763a2,2,0,1,0,2-2A2,2,0,0,0,2735.172,123.07Zm32.068,188.907a1.5,1.5,0,1,0,1.5-1.5A1.5,1.5,0,0,0,2767.24,311.977Zm-86.086-163.406a1,1,0,1,0,1-1A1,1,0,0,0,2681.154,148.571Zm15.586,129.906a1.5,1.5,0,1,0,1.5-1.5A1.5,1.5,0,0,0,2696.74,278.477Zm9.5-95.5a1.5,1.5,0,1,0-1.5-1.5A1.5,1.5,0,0,0,2706.24,182.977Zm-3.066,55.588a2,2,0,1,0,2-2A2,2,0,0,0,2703.174,238.565Zm157.492-70.5a2,2,0,1,0,2-2A2,2,0,0,0,2860.666,168.068Zm-22.513-43.5a1,1,0,1,0-1-1A1,1,0,0,0,2838.154,124.571Zm-160-46a1,1,0,1,0,1-1A1,1,0,0,0,2678.154,78.571Zm184,96a1,1,0,1,0,1-1A1,1,0,0,0,2862.154,174.571Zm4.512-77.5a2,2,0,1,0,2-2A2,2,0,0,0,2866.666,97.072ZM2835.74,330.165a1.5,1.5,0,1,0,1.5-1.5A1.5,1.5,0,0,0,2835.74,330.165Zm-18.586-96.594a1,1,0,1,0,1-1A1,1,0,0,0,2817.154,233.571Zm11.586-6.094a1.5,1.5,0,1,0,1.5-1.5A1.5,1.5,0,0,0,2828.74,227.477Zm-49.57-38.91a2,2,0,1,0-2-2A2,2,0,0,0,2779.17,188.567Zm40.57-50.09a1.5,1.5,0,1,0-1.5-1.5A1.5,1.5,0,0,0,2819.74,138.477Zm3-77a1.5,1.5,0,1,0,1.5-1.5A1.5,1.5,0,0,0,2822.74,61.477ZM2538.154,296.571a1,1,0,1,0,1-1A1,1,0,0,0,2538.154,296.571Zm-6.471-65.514a2,2,0,1,0,2-2A2,2,0,0,0,2531.683,231.057Zm-.443-174.08a1.5,1.5,0,1,0-1.5-1.5A1.5,1.5,0,0,0,2531.24,56.977Zm.443,221.086a2,2,0,1,0,2-2A2,2,0,0,0,2531.683,278.063Zm1.057,39.414a1.5,1.5,0,1,0,1.5-1.5A1.5,1.5,0,0,0,2532.74,317.477Zm337.926-80.912a2,2,0,1,0,2-2A2,2,0,0,0,2870.666,236.565ZM2518.74,93.477a1.5,1.5,0,1,0,1.5-1.5A1.5,1.5,0,0,0,2518.74,93.477Zm135.437,158.587a2,2,0,1,0,2-2A2,2,0,0,0,2654.177,252.064Zm-102-126.994a2,2,0,1,0,2-2A2,2,0,0,0,2552.182,125.07Zm-24.941,50.907a1.5,1.5,0,1,0,1.5-1.5A1.5,1.5,0,0,0,2527.24,175.977Zm110.191-1.007a1.5,1.5,0,1,0,1.5-1.5A1.5,1.5,0,0,0,2637.432,174.97Zm-14.213-59.521a1.5,1.5,0,1,0-1.5-1.5A1.5,1.5,0,0,0,2623.218,115.449ZM2561.3,221.5a1,1,0,1,0,1-1A1,1,0,0,0,2561.3,221.5Zm84.875,84.563a2,2,0,1,0,2-2A2,2,0,0,0,2646.177,306.061Zm-27.5,19a2,2,0,1,0,2-2A2,2,0,0,0,2618.679,325.06ZM2559.987,81.678a2,2,0,1,0,2-2A2,2,0,0,0,2559.987,81.678Zm20.194,84.391a2,2,0,1,0,2-2A2,2,0,0,0,2580.181,166.068Zm26.557,71.525a1,1,0,1,0,1-1A1,1,0,0,0,2606.737,237.593Zm-7,47.884a1.5,1.5,0,1,0,1.5-1.5A1.5,1.5,0,0,0,2599.74,285.477Zm203.429-5.414a2,2,0,1,0,2-2A2,2,0,0,0,2803.169,280.063Zm87.071,18.914a1.5,1.5,0,1,0,1.5-1.5A1.5,1.5,0,0,0,2890.24,298.977Zm4.424-212.4a2,2,0,1,0,2-2A2,2,0,0,0,2894.664,86.572Zm62.576-10.6a1.5,1.5,0,1,0,1.5-1.5A1.5,1.5,0,0,0,2957.24,75.977Zm33.92,125.589a2,2,0,1,0,2-2A2,2,0,0,0,2991.16,201.566Zm-47.42-31.589a1.5,1.5,0,1,0,1.5-1.5A1.5,1.5,0,0,0,2943.74,169.977Zm50.414,61.594a1,1,0,1,0,1-1A1,1,0,0,0,2994.154,231.571Zm-90.462-93.546a1.5,1.5,0,1,0,1.5-1.5A1.5,1.5,0,0,0,2903.692,138.025Zm47.548,98.568a1.5,1.5,0,1,0,1.5-1.5A1.5,1.5,0,0,0,2951.24,236.593Zm-32.207-108.735a1,1,0,1,0,1-1A1,1,0,0,0,2919.034,127.858Zm44.12,69.713a1,1,0,1,0,1-1A1,1,0,0,0,2963.154,197.571Zm-74.989,16.5a2,2,0,1,0,2-2A2,2,0,0,0,2888.165,214.066Zm-210.5,118.1a1,1,0,1,0-1-1A1,1,0,0,0,2677.668,332.165Zm285.993-42.6a2,2,0,1,0,2-2A2,2,0,0,0,2963.661,289.562Zm15-168.492a2,2,0,1,0,2-2A2,2,0,0,0,2978.661,121.07Zm-58.5,187.491a2,2,0,1,0,2-2A2,2,0,0,0,2920.164,308.561ZM2559.612,31.573a2,2,0,1,0,2-2A2,2,0,0,0,2559.612,31.573Zm439.378,25.1a1.5,1.5,0,1,0-1.5,1.5A1.5,1.5,0,0,0,2998.99,56.668Zm-105.5-49.5a1,1,0,1,0-1,1A1,1,0,0,0,2893.49,7.168Zm-391.5,34a1.5,1.5,0,1,0,1.5-1.5A1.5,1.5,0,0,0,2501.99,41.168Zm312,10.5a1.5,1.5,0,1,0,1.5-1.5A1.5,1.5,0,0,0,2813.99,51.668Zm103.5,19.5a1.5,1.5,0,1,0,1.5-1.5A1.5,1.5,0,0,0,2917.49,71.168ZM2771.1,9.074a2,2,0,1,0,2-2A2,2,0,0,0,2771.1,9.074Zm93.5,10a2,2,0,1,0-2-2A2,2,0,0,0,2864.6,19.074Zm28,10.5a2,2,0,1,0-2-2A2,2,0,0,0,2892.6,29.573Zm-263.487,32a2,2,0,1,0,2-2A2,2,0,0,0,2629.109,61.571Zm51.381-35.4a1,1,0,1,0,1-1A1,1,0,0,0,2680.49,26.168Zm11.616,24.9a2,2,0,1,0-2-2A2,2,0,0,0,2692.106,51.072Zm-67.116-39.4a1.5,1.5,0,1,0,1.5-1.5A1.5,1.5,0,0,0,2624.99,11.668Zm328.5,25a1.5,1.5,0,1,0-1.5-1.5A1.5,1.5,0,0,0,2953.49,36.668Zm-201.5,15a1.5,1.5,0,1,0,1.5-1.5A1.5,1.5,0,0,0,2751.99,51.668Z" fill="#000933" opacity="0.2"/>
    </g>
  </g>
</svg>
