<svg xmlns="http://www.w3.org/2000/svg" viewBox="0 0 12 48">
  <circle fill="#8F8F94" cx="6" cy="6" r="5.5"/>
  <circle fill="none" stroke="#717177" stroke-miterlimit="10" cx="6" cy="6" r="5.5"/>
  <circle fill="#DEDEDE" cx="6" cy="42" r="5.5"/>
  <circle fill="none" stroke="#CFCFCF" stroke-miterlimit="10" cx="6" cy="42" r="5.5"/>
  <circle fill="#8F8F94" cx="6" cy="18" r="5.5"/>
  <circle fill="none" stroke="#717177" stroke-miterlimit="10" cx="6" cy="18" r="5.5"/>
  <path fill="#28282C" d="M9,19H3c-0.552,0-1-0.448-1-1v0c0-0.552,0.448-1,1-1h6c0.552,0,1,0.448,1,1v0C10,18.552,9.552,19,9,19z"/>
  <circle fill="#6B6B6F" cx="6" cy="30" r="5.5"/>
  <circle fill="none" stroke="#59595E" stroke-miterlimit="10" cx="6" cy="30" r="5.5"/>
  <path fill="#020206" d="M9,31H3c-0.552,0-1-0.448-1-1v0c0-0.552,0.448-1,1-1h6c0.552,0,1,0.448,1,1v0C10,30.552,9.552,31,9,31z"/>
</svg>
