<svg xmlns="http://www.w3.org/2000/svg" width="128" height="128" viewBox="0 0 128 128">
  <path d="M116,0H12A12,12,0,0,0,0,12V116a12,12,0,0,0,12,12H116a12,12,0,0,0,12-12V12A12,12,0,0,0,116,0Zm8,12V36h-2.517A64.026,64.026,0,0,0,110.6,20.227L122.866,7.962A7.907,7.907,0,0,1,124,12Zm0,104a7.907,7.907,0,0,1-1.134,4.038L110.6,107.773A64.026,64.026,0,0,0,121.483,92H124Zm-16.247-11.075L94.828,92h22.2A60.187,60.187,0,0,1,107.753,104.925ZM5.134,120.038A7.907,7.907,0,0,1,4,116V92H6.517A64.026,64.026,0,0,0,17.4,107.773ZM10.975,92h22.2L20.247,104.925A60.187,60.187,0,0,1,10.975,92ZM4,12A7.907,7.907,0,0,1,5.134,7.962L17.4,20.227A64.026,64.026,0,0,0,6.517,36H4ZM20.247,23.075,33.172,36h-22.2A60.226,60.226,0,0,1,20.247,23.075ZM61.172,64,40,85.172V42.828ZM42.828,40H85.172L64,61.172ZM64,66.828,85.172,88H42.828ZM66.828,64,88,42.828V85.172ZM41.422,36a35.86,35.86,0,0,1,45.156,0ZM36,86.577a35.859,35.859,0,0,1,0-45.155ZM86.578,92a35.86,35.86,0,0,1-45.156,0ZM92,41.422a35.859,35.859,0,0,1,0,45.155Zm0-8.25v-22.2a60.226,60.226,0,0,1,12.925,9.273Zm-4-1.118a39.786,39.786,0,0,0-48,0V9.045a59.614,59.614,0,0,1,48,0ZM36,33.172,23.075,20.247A60.187,60.187,0,0,1,36,10.975ZM32.054,40a39.786,39.786,0,0,0,0,48H9.045a59.609,59.609,0,0,1,0-48ZM36,94.828v22.2a60.187,60.187,0,0,1-12.925-9.272Zm4,1.118a39.786,39.786,0,0,0,48,0v23.009a59.609,59.609,0,0,1-48,0Zm52-1.118,12.925,12.925A60.226,60.226,0,0,1,92,117.026ZM95.946,88a39.786,39.786,0,0,0,0-48h23.01a59.614,59.614,0,0,1,0,48ZM94.828,36l12.925-12.925A60.226,60.226,0,0,1,117.026,36ZM116,4a7.907,7.907,0,0,1,4.038,1.134L107.773,17.4A64.026,64.026,0,0,0,92,6.517V4ZM88,4v.7c-.624-.253-1.268-.463-1.9-.7ZM41.9,4c-.633.233-1.277.443-1.9.7V4ZM36,4V6.517A64.026,64.026,0,0,0,20.227,17.4L7.962,5.134A7.907,7.907,0,0,1,12,4ZM4,40h.7c-.253.624-.463,1.268-.7,1.9Zm.7,48H4V86.1C4.233,86.732,4.443,87.376,4.7,88ZM12,124a7.907,7.907,0,0,1-4.038-1.134L20.227,110.6A64.026,64.026,0,0,0,36,121.483V124Zm28,0v-.7c.624.253,1.268.463,1.9.7Zm46.1,0c.633-.233,1.277-.443,1.9-.7v.7Zm5.9,0v-2.517A64.026,64.026,0,0,0,107.773,110.6l12.265,12.265A7.907,7.907,0,0,1,116,124Zm32-36h-.7c.253-.624.463-1.268.7-1.9Zm-.7-48h.7v1.9C123.767,41.268,123.557,40.624,123.3,40Z" fill="#00b2ff" opacity="0.27"/>
</svg>
