<svg xmlns="http://www.w3.org/2000/svg" width="16" height="16" viewBox="0 0 16 16">
  <g>
    <rect width="16" height="16" fill="none"/>
    <path fill="#fff" d="M4,4H5C5.01,4,5.0208,4,5.0312,4a1.04,1.04,0,0,1,.6876.3125L8,6.5938l2.3125-2.2813A1.0083,1.0083,0,0,1,11,4h1V5a.9406.9406,0,0,1-.25.75L9.4688,8.0312l2.25,2.25A1.0151,1.0151,0,0,1,12,11v1H11a1.0151,1.0151,0,0,1-.7188-.2812L8,9.4375,5.7188,11.7188A1.0151,1.0151,0,0,1,5,12H4V11a1.0151,1.0151,0,0,1,.2812-.7188l2.2813-2.25L4.2812,5.75A.9088.9088,0,0,1,4,5Z"/>
  </g>
</svg>
