<svg xmlns="http://www.w3.org/2000/svg" viewBox="0 0 24 144">
  <g>
    <circle fill="#28CB41" cx="12" cy="12" r="11.5"/>
    <circle fill="none" stroke="#1CAB2D" stroke-miterlimit="10" cx="12" cy="12" r="11.5"/>
  </g>
  <g>
    <circle fill="#DEDEDE" cx="12" cy="84" r="11.5"/>
    <circle fill="none" stroke="#CFCFCF" stroke-miterlimit="10" cx="12" cy="84" r="11.5"/>
  </g>
  <g>
    <circle fill="#28CB41" cx="12" cy="36" r="11.5"/>
    <circle fill="none" stroke="#1CAB2D" stroke-miterlimit="10" cx="12" cy="36" r="11.5"/>
    <g>
      <path fill="#016500" d="M18,39l-9-9h6.8c1.2,0,2.2,1,2.2,2.2V39z"/>
      <path fill="#016500" d="M6,33l9,9H8.2C7,42,6,41,6,39.8V33z"/>
    </g>
  </g>
  <g>
    <circle fill="#28CB41" cx="12" cy="108" r="11.5"/>
    <circle fill="none" stroke="#1CAB2D" stroke-miterlimit="10" cx="12" cy="108" r="11.5"/>
    <path fill="#016500" d="M12,117l-9-9h6.8c1.2,0,2.2,1,2.2,2.2V117z"/>
    <path fill="#016500" d="M12,99l9,9h-6.8c-1.2,0-2.2-1-2.2-2.2V99z"/>
  </g>
  <g>
    <circle fill="#1F9C31" cx="12" cy="132" r="11.5"/>
    <circle fill="none" stroke="#168B22" stroke-miterlimit="10" cx="12" cy="132" r="11.5"/>
    <path fill="#016500" d="M12,141l-9-9h6.8c1.2,0,2.2,1,2.2,2.2V141z"/>
    <path fill="#016500" d="M12,123l9,9h-6.8c-1.2,0-2.2-1-2.2-2.2V123z"/>
  </g>
  <g>
    <circle fill="#1F9C31" cx="12" cy="60" r="11.5"/>
    <circle fill="none" stroke="#168B22" stroke-miterlimit="10" cx="12" cy="60" r="11.5"/>
    <g>
      <path fill="#016500" d="M18,63l-9-9h6.8c1.2,0,2.2,1,2.2,2.2V63z"/>
      <path fill="#016500" d="M6,57l9,9H8.2C7,66,6,65,6,63.8V57z"/>
    </g>
  </g>
</svg>
