<svg xmlns="http://www.w3.org/2000/svg" width="32" height="19" viewBox="0 0 32 19">
  <path d="M0,9.5C0,3.4,5.7,0,16,0S32,3.4,32,9.5,26.3,19,16,19,0,15.6,0,9.5Z" fill="#66ce9d"/>
  <path d="M4.972,5.977H6.578l2.661,3.5h.1v-3.5H11.29v7.046H9.7L7.022,9.473h-.1v3.55H4.972Z" fill="#fff"/>
  <path d="M12.661,5.977h4.971V7.618h-2.9V8.76h2.72v1.485h-2.72v1.137h2.9v1.641H12.661Z" fill="#fff"/>
  <path d="M18.5,5.977h2.149l.8,4.346h.1l.991-4.346h1.6l1.04,4.346h.1l.776-4.346h2.129l-1.817,7.046H24.418l-1.04-3.931h-.1l-1.015,3.931H20.312Z" fill="#fff"/>
</svg>
