<svg xmlns="http://www.w3.org/2000/svg" width="32" height="32" viewBox="0 0 16 16">
  <path d="M8.7,0A1.877,1.877,0,0,0,6.821,1.875v.032A1.875,1.875,0,0,0,4.2,3.625V6.486a2.745,2.745,0,0,0-3-.164l-.866.5.5.866,3.045,5.274A5.809,5.809,0,0,0,9.189,16a5.6,5.6,0,0,0,5.636-3.942l.014-.028.031-.161,1.1-6.249A1.876,1.876,0,0,0,13.2,3.664V2.75a1.874,1.874,0,0,0-2.787-1.638A1.878,1.878,0,0,0,8.7,0Z"/>
  <path d="M8.7,1a.875.875,0,0,1,.875.875V7.267a.437.437,0,0,0,.875,0h0V2.75a.875.875,0,0,1,1.75,0v5.6a.249.249,0,0,0,.249.249.241.241,0,0,0,.23-.2l.012.01.575-3.259a.875.875,0,0,1,1.723.3l-1.1,6.251c0,.009-.008.016-.01.026A4.585,4.585,0,0,1,9.189,15,4.823,4.823,0,0,1,4.76,12.5L1.7,7.188a1.749,1.749,0,0,1,2.391.64L5.2,9.75h0V3.625a.875.875,0,1,1,1.75,0V7.6l.006,0a.435.435,0,0,0,.869-.031V1.875A.875.875,0,0,1,8.7,1" fill="#fff"/>
</svg>
