<?xml version="1.0" encoding="utf-8"?>
<!-- Generator: Adobe Illustrator 19.2.1, SVG Export Plug-In . SVG Version: 6.00 Build 0)  -->
<!DOCTYPE svg PUBLIC "-//W3C//DTD SVG 1.1//EN" "http://www.w3.org/Graphics/SVG/1.1/DTD/svg11.dtd">
<svg version="1.1" id="Ebene_1" xmlns="http://www.w3.org/2000/svg" xmlns:xlink="http://www.w3.org/1999/xlink" x="0px" y="0px"
	 viewBox="0 0 24 96" enable-background="new 0 0 24 96" xml:space="preserve">
<g>
	<circle fill="#FFBE2E" cx="12" cy="12" r="11.5"/>
	<circle fill="none" stroke="#E09E1F" stroke-miterlimit="10" cx="12" cy="12" r="11.5"/>
</g>
<g>
	<circle fill="#FFBE2E" cx="12" cy="36" r="11.5"/>
	<circle fill="none" stroke="#E09E1F" stroke-miterlimit="10" cx="12" cy="36" r="11.5"/>
	<path fill="#995700" d="M19,37H5c-0.6,0-1-0.4-1-1l0,0c0-0.6,0.4-1,1-1h14c0.6,0,1,0.4,1,1l0,0C20,36.6,19.6,37,19,37z"/>
</g>
<g>
	<circle fill="#BF8F23" cx="12" cy="60" r="11.5"/>
	<circle fill="none" stroke="#B37E18" stroke-miterlimit="10" cx="12" cy="60" r="11.5"/>
	<path fill="#995700" d="M19,61H5c-0.6,0-1-0.4-1-1l0,0c0-0.6,0.4-1,1-1h14c0.6,0,1,0.4,1,1l0,0C20,60.6,19.6,61,19,61z"/>
</g>
<g>
	<circle fill="#DEDEDE" cx="12" cy="84" r="11.5"/>
	<circle fill="none" stroke="#CFCFCF" stroke-miterlimit="10" cx="12" cy="84" r="11.5"/>
</g>
</svg>
