<svg xmlns="http://www.w3.org/2000/svg" width="16" height="16" viewBox="0 0 16 16">
  <path fill="#777" d="M11.75,8a1.164,1.164,0,0,0,.1.484,1.282,1.282,0,0,0,.664.664,1.2,1.2,0,0,0,.968,0,1.282,1.282,0,0,0,.664-.664,1.2,1.2,0,0,0,0-.968,1.282,1.282,0,0,0-.664-.664,1.2,1.2,0,0,0-.968,0,1.282,1.282,0,0,0-.664.664A1.164,1.164,0,0,0,11.75,8Zm-5,0a1.164,1.164,0,0,0,.1.484,1.282,1.282,0,0,0,.664.664,1.2,1.2,0,0,0,.968,0,1.282,1.282,0,0,0,.664-.664,1.2,1.2,0,0,0,0-.968,1.282,1.282,0,0,0-.664-.664,1.2,1.2,0,0,0-.968,0,1.282,1.282,0,0,0-.664.664A1.164,1.164,0,0,0,6.75,8Zm-5,0a1.164,1.164,0,0,0,.1.484,1.282,1.282,0,0,0,.664.664,1.2,1.2,0,0,0,.968,0,1.282,1.282,0,0,0,.664-.664,1.2,1.2,0,0,0,0-.968,1.282,1.282,0,0,0-.664-.664,1.2,1.2,0,0,0-.968,0,1.282,1.282,0,0,0-.664.664A1.164,1.164,0,0,0,1.75,8Z"/>
</svg>
