<svg xmlns="http://www.w3.org/2000/svg" width="252" height="273" viewBox="0 0 252 273">
  <g>
    <g>
      <rect x="65.201" y="7.112" width="67" height="67.001" transform="translate(43.149 131.745) rotate(-81)" fill="#375293"/>
      <path d="M72.1,4l63.212,10.012L125.3,77.224,62.089,67.212,72.1,4M69.607.568l-.469,2.963L59.126,66.743l-.469,2.963,2.963.469,63.212,10.012,2.963.469.469-2.963,10.012-63.212.469-2.963-2.963-.469L72.57,1.037,69.607.568Z" fill="#536aa2"/>
    </g>
    <g>
      <rect x="115.5" y="26.5" width="67" height="67" fill="#3857a0"/>
      <path d="M181,28V92H117V28h64m3-3H114V95h70V25Z" fill="#546fad"/>
    </g>
    <g>
      <g>
        <rect x="89.888" y="51.9" width="67" height="67" transform="matrix(0.988, -0.156, 0.156, 0.988, -11.84, 20.352)" fill="#395bac"/>
        <path d="M149.988,48.788,160,112,96.788,122.012,86.776,58.8l63.212-10.012m2.494-3.432-2.963.469L86.307,55.837l-2.963.469.469,2.963,10.012,63.212.469,2.963,2.963-.469,63.212-10.012,2.963-.469-.469-2.963L152.951,48.319l-.469-2.963Z" fill="#5572b8"/>
      </g>
      <g>
        <g opacity="0.4">
          <path d="M133.371,67.67h0a4,4,0,0,1,.617,7.951,4.065,4.065,0,0,1-.634.05,4,4,0,0,1-.617-7.951,4.065,4.065,0,0,1,.634-.05m0-2.667a6.667,6.667,0,1,0,6.576,5.625A6.72,6.72,0,0,0,133.371,65Z" fill="#fff"/>
        </g>
        <g opacity="0.4">
          <path d="M115.431,80.619l8.442,10.425,2.187,2.7,2.043-2.812,2.76-3.8,8.906,6.471-7.689,1.218-14.047,2.225-9.485,1.5,6.883-17.931m-.834-5.268L104.4,101.906l14.047-2.225L132.5,97.457l14.047-2.225L130.273,83.409l-4.327,5.956L114.6,75.351Z" fill="#fff"/>
        </g>
      </g>
    </g>
    <path d="M30,140H222a4,4,0,0,1,4,4V252a0,0,0,0,1,0,0H26a0,0,0,0,1,0,0V144A4,4,0,0,1,30,140Z" fill="#383838"/>
    <rect x="34" y="148" width="184" height="96" rx="2" ry="2" fill="#2f2f2f"/>
    <path d="M36,148H71a0,0,0,0,1,0,0v96a0,0,0,0,1,0,0H36a2,2,0,0,1-2-2V150A2,2,0,0,1,36,148Z" fill="#333"/>
    <path d="M168,148h48a2,2,0,0,1,2,2v4a0,0,0,0,1,0,0H168a0,0,0,0,1,0,0v-6A0,0,0,0,1,168,148Z" fill="#333"/>
    <rect x="168" y="156" width="50" height="28" fill="#333"/>
    <rect x="168" y="186" width="50" height="28" fill="#333"/>
    <path d="M168,216h50a0,0,0,0,1,0,0v26a2,2,0,0,1-2,2H168a0,0,0,0,1,0,0V216A0,0,0,0,1,168,216Z" fill="#333"/>
    <g>
      <rect x="34" y="156" width="37" height="4" fill="#404040"/>
      <rect x="36" y="162" width="8" height="2" fill="#404040"/>
      <rect x="36" y="151" width="2" height="2" rx="1" ry="1" fill="#555"/>
      <rect x="39" y="151" width="2" height="2" rx="1" ry="1" fill="#555"/>
      <rect x="42" y="151" width="2" height="2" rx="1" ry="1" fill="#555"/>
      <rect x="36" y="170" width="8" height="2" fill="#404040"/>
      <rect x="36" y="166" width="18" height="2" fill="#404040"/>
    </g>
    <rect x="193" y="156" width="25" height="6" fill="#292929"/>
    <polygon points="26 252 0 267 252 267 226 252 26 252" fill="#404040"/>
    <rect x="175" y="158" width="11" height="2" fill="#404040"/>
    <rect x="170" y="188" width="8" height="2" fill="#404040"/>
    <rect x="170" y="218" width="8" height="2" fill="#404040"/>
    <rect x="202" y="188" width="2" height="2" fill="#404040"/>
    <polygon points="0 267 0 270 6 273 246 273 252 270 252 267 0 267" fill="#383838"/>
    <path d="M110,267h32a0,0,0,0,1,0,0v0a2,2,0,0,1-2,2H112a2,2,0,0,1-2-2v0A0,0,0,0,1,110,267Z" fill="#303030"/>
    <rect x="206" y="188" width="10" height="2" fill="#404040"/>
    <rect x="76" y="158" width="18" height="18" fill="#395bac"/>
    <rect x="98" y="158" width="18" height="18" fill="#395bac" opacity="0.8"/>
    <rect x="120" y="158" width="18" height="18" fill="#395bac" opacity="0.9"/>
  </g>
</svg>
