<svg xmlns="http://www.w3.org/2000/svg" width="200" height="200" viewBox="0 0 200 200">
  <g>
    <g>
      <rect x="10.571" y="10.571" width="107" height="107" transform="matrix(0.156, -0.988, 0.988, 0.156, -9.234, 117.33)" fill="#375293"/>
      <path d="M21.677,5.721,122.421,21.677,106.465,122.421,5.721,106.465,21.677,5.721M17.521,0,0,110.621l110.621,17.521L128.142,17.521,17.521,0Z" fill="#536aa2"/>
    </g>
    <g>
      <rect x="90.5" y="43.5" width="107" height="107" fill="#3857a0"/>
      <path d="M93,46H195V148H93V46m-5-5V153H200V41Z" fill="#546fad"/>
    </g>
    <g>
      <g>
        <rect x="47.385" y="82.429" width="107" height="107" transform="translate(-20.022 17.456) rotate(-9)" fill="#395bac"/>
        <path d="M143.279,77.579l15.956,100.744L58.491,194.28,42.535,93.535,143.279,77.579m4.156-5.721L36.814,89.379,54.335,200,164.956,182.48,147.435,71.859Z" fill="#5572b8"/>
      </g>
      <g>
        <rect x="49.126" y="84.171" width="103.517" height="103.517" transform="translate(-20.022 17.455) rotate(-9)" fill="none"/>
        <g opacity="0.4">
          <path d="M117.033,107.251h0a6.471,6.471,0,0,1,1,12.862,6.576,6.576,0,0,1-1.025.081,6.471,6.471,0,0,1-1-12.862,6.583,6.583,0,0,1,1.026-.081m0-4.313a10.784,10.784,0,1,0,10.637,9.1,10.87,10.87,0,0,0-10.637-9.1Z" fill="#fff"/>
        </g>
        <g opacity="0.4">
          <path d="M88.015,128.2l13.654,16.862,3.537,4.368,3.3-4.548,4.464-6.144L127.38,149.2l-12.436,1.97-22.721,3.6L76.882,157.2l11.133-29m-1.349-8.52L70.178,162.628l22.721-3.6,22.721-3.6,22.721-3.6L112.021,132.71l-7,9.634L86.665,119.676Z" fill="#fff"/>
        </g>
      </g>
    </g>
  </g>
</svg>
