<svg xmlns="http://www.w3.org/2000/svg" width="380" height="400" viewBox="0 0 380 400">
  <g>
    <g opacity="0.33">
      <g>
        <polygon points="118.523 163.936 124.78 203.444 45.765 215.959 48.894 235.712 147.662 220.069 141.405 180.562 200.666 171.175 216.31 269.944 176.802 276.202 179.931 295.955 219.438 289.698 228.825 348.959 149.809 361.474 152.938 381.228 251.707 365.584 217.291 148.293 118.523 163.936" fill="#395bac"/>
        <polygon points="205.942 332.334 202.813 312.58 163.306 318.838 153.92 259.577 193.427 253.319 184.041 194.058 164.288 197.187 170.545 236.694 131.037 242.951 143.552 321.967 84.291 331.353 84.291 331.353 64.537 334.481 67.666 354.235 107.173 347.978 110.302 367.731 51.041 377.118 35.397 278.349 94.659 268.963 100.916 308.47 120.67 305.341 111.284 246.08 32.269 258.595 22.882 199.334 101.898 186.819 98.769 167.065 0 182.709 34.416 400 133.184 384.357 126.927 344.849 205.942 332.334" fill="#395bac"/>
      </g>
    </g>
    <polygon points="80.482 169.962 80.932 172.807 82.137 174.281 82.37 178.82 82.034 184.144 84.557 189.565 84.874 189.515 101.898 186.819 98.769 167.065 80.482 169.962" opacity="0.14"/>
    <path d="M249.423,351.161l-3.844,4.165-6.307-3.259s-4.922,2-5.956,2.476-2.744,2.819-2.744,2.819l-3.389,1.363,1.751,3.051-1.223,3.285,2.369,3.949,21.627-3.425Z" opacity="0.14"/>
    <polygon points="8.575 236.85 14.603 239.794 19.186 242.78 21.318 247.083 22.351 253.602 23.527 261.026 24.789 268.993 28.98 274.083 27.854 282.243 22.869 290.458 16.778 288.638 8.575 236.85" opacity="0.14"/>
    <polygon points="168.878 226.171 174.857 222.579 178.076 226.498 177.531 234.778 182.967 240.97 178.099 247.31 169.341 248.697 163.163 244.849 158.1 238.665 170.545 236.694 168.878 226.171" opacity="0.14"/>
    <polygon points="97.296 349.542 93.536 344.974 98.816 339.961 106.57 338.733 113.267 342.343 119.454 344.489 117.487 351.204 111.281 354.414 107.807 353.016 107.173 347.978 97.296 349.542" opacity="0.14"/>
    <polygon points="93.087 248.962 102.581 257.097 107.887 271.461 106.708 283.149 114.19 287.395 117.738 286.833 111.284 246.08 93.087 248.962" opacity="0.14"/>
    <polygon points="43.063 326.745 37.618 328.62 36.316 338.166 32.587 342.655 35.334 347.788 39.528 345.454 41.212 351.312 46.469 348.252 43.063 326.745" opacity="0.14"/>
    <polygon points="161.93 359.554 162.343 362.161 160.422 364.555 163.096 366.913 170.528 367.359 178.819 364.783 186.603 360.408 188.261 356.793 185.649 355.798 161.93 359.554" opacity="0.14"/>
    <polygon points="228.66 259.187 220.267 259.193 214.184 256.524 216.31 269.944 203.593 271.958 209.306 275.314 214.016 280.878 212.284 287.008 213.973 290.564 219.438 289.698 220.846 298.587 231.519 300.202 233.989 291.189 232.085 290.918 229.435 290.595 228.109 286.907 229.432 283.542 233.749 282.673 236.367 286.874 238.776 283.939 236.077 266.898 228.66 259.187" opacity="0.14"/>
    <polygon points="175.149 154.968 174.439 157.681 175.599 161.406 179.016 162.33 185.111 162.342 187.516 163.134 191.666 159.513 197.937 159.008 203.772 156.781 205.016 150.237 175.149 154.968" opacity="0.14"/>
  </g>
  <path d="M322.809,92.139l.036.006c1.819-4.647,3.926-7.478,5.742-7.19s2.945,3.631,3.239,8.613l.037.006a48,48,0,0,0-39.9-54.918C313.146,42.011,326.956,65.956,322.809,92.139Z" fill="#395bac"/>
  <path d="M299.1,88.384h.008c3.55-4.373,8.305-6.784,13.1-6.026s8.568,4.522,10.592,9.777h.008c4.147-26.183-9.663-50.128-30.845-53.484C300.054,39.938,303.251,62.2,299.1,88.384Z" fill="#395bac" opacity="0.33"/>
  <path d="M285.705,78.163a18.3,18.3,0,0,1,13.4,10.221c4.147-26.183.949-48.447-7.142-49.728S273.951,57.56,269.8,83.743A18.3,18.3,0,0,1,285.705,78.163Z" fill="#395bac"/>
  <path d="M259.2,73.966c4.79.759,8.568,4.522,10.592,9.777h.008c4.147-26.182,14.068-46.368,22.158-45.088C270.78,35.3,250.246,53.807,246.1,79.99h.008C249.657,75.618,254.413,73.207,259.2,73.966Z" fill="#395bac" opacity="0.33"/>
  <path d="M299.1,88.384h.008c3.55-4.373,8.305-6.784,13.1-6.026s8.568,4.522,10.592,9.777h.008c4.147-26.183-9.663-50.128-30.845-53.484C300.054,39.938,303.251,62.2,299.1,88.384Z" opacity="0.14"/>
  <path d="M259.2,73.966c4.79.759,8.568,4.522,10.592,9.777h.008c4.147-26.182,14.068-46.368,22.158-45.088C270.78,35.3,250.246,53.807,246.1,79.99h.008C249.657,75.618,254.413,73.207,259.2,73.966Z" opacity="0.14"/>
  <path d="M242.824,71.371c1.816.288,2.945,3.631,3.239,8.613l.036.006c4.147-26.183,24.681-44.689,45.863-41.334a48,48,0,0,0-54.918,39.9l.036.006C238.9,73.915,241.008,71.084,242.824,71.371Z" fill="#395bac"/>
  <polygon points="154.054 42.347 156.854 47.947 162.454 45.147 166.654 46.547 162.454 35.347 158.254 39.547 154.054 42.347" fill="#395bac" opacity="0.33"/>
  <polygon points="370.654 4.2 372.054 8.4 377.654 7 379.054 0 370.654 4.2" fill="#395bac" opacity="0.33"/>
  <polygon points="190.054 100.347 190.054 105.947 195.654 93.347 190.054 100.347" fill="#395bac" opacity="0.33"/>
  <polygon points="287.854 233.547 290.654 239.147 294.854 236.347 294.854 233.547 292.054 232.147 287.854 233.547" fill="#395bac" opacity="0.33"/>
  <polygon points="26.854 153.547 33.854 147.947 28.254 143.747 25.854 151.147 26.854 153.547" fill="#395bac" opacity="0.33"/>
  <line x1="288.792" y1="130.219" x2="331.827" y2="93.568" fill="none" stroke="#395bac" stroke-linecap="round" stroke-miterlimit="10" opacity="0.33"/>
  <line x1="322.809" y1="92.139" x2="286.784" y2="129.785" fill="none" stroke="#395bac" stroke-linecap="round" stroke-miterlimit="10" opacity="0.33"/>
  <line x1="299.104" y1="88.384" x2="282.493" y2="125.985" fill="none" stroke="#395bac" stroke-linecap="round" stroke-miterlimit="10" opacity="0.33"/>
  <line x1="269.804" y1="83.743" x2="274.017" y2="124.964" fill="none" stroke="#395bac" stroke-linecap="round" stroke-miterlimit="10" opacity="0.33"/>
  <line x1="246.063" y1="79.984" x2="267.93" y2="125.286" fill="none" stroke="#395bac" stroke-linecap="round" stroke-miterlimit="10" opacity="0.33"/>
  <line x1="237.045" y1="78.556" x2="266.227" y2="125.985" fill="none" stroke="#395bac" stroke-linecap="round" stroke-miterlimit="10" opacity="0.33"/>
  <rect x="251.695" y="117.373" width="48" height="48" transform="translate(25.51 -41.388) rotate(9)" fill="none"/>
  <path d="M279.448,117.67a24,24,0,0,0-27.458,19.949l-3.754,23.7,6.865-4.987,4.987,6.865,6.865-4.987,4.987,6.865,6.865-4.987,4.987,6.865,6.865-4.987,4.987,6.865,3.754-23.7A24,24,0,0,0,279.448,117.67ZM272.172,139.3c-2.607,3.219-6.807,4.138-9.383,2.053s-2.55-6.385.057-9.6,6.807-4.138,9.383-2.053S274.779,136.078,272.172,139.3Zm15.8,6.042c-3.093,1.188-6.8-.985-8.289-4.852s-.18-7.964,2.914-9.152,6.8.985,8.289,4.852S291.068,144.151,287.975,145.339Z" fill="#395bac"/>
</svg>
