<svg xmlns="http://www.w3.org/2000/svg" viewBox="0 0 3000 340" width="3000" height="340">
<g>
	<g>
		<polygon fill="#E5E6EB" points="380.462,34.951 279.762,57.143 380.462,57.143 		"/>
		<polygon fill="#E5E6EB" points="465.808,16.143 424.826,25.175 424.826,37.326 465.808,27.831 		"/>
		<polygon fill="#E5E6EB" points="420.785,83.721 364.679,99.083 364.679,116.129 375,116.129 420.785,102.784 		"/>
		<polygon fill="#E5E6EB" points="540.103,135.154 414.093,180.695 414.093,208.264 430.785,208.264 540.103,165.32 		"/>
		<polygon fill="#E5E6EB" points="222.3,83.721 222.3,69.806 159.157,83.721 		"/>
		<polygon fill="#E5E6EB" points="104.431,57.143 104.431,45.57 0,64.826 0,76.596 101.191,57.143 		"/>
		<polygon fill="#E5E6EB" points="20.643,130.964 20.643,99.083 160.715,69.65 160.715,57.143 0,89.412 0,116.129 12.097,116.129
			0,118.795 0,135.747 12.097,132.944 		"/>
		<polygon fill="#E5E6EB" points="0,208.264 153.475,208.264 153.475,180.695 232.935,157.535 232.935,135.154 0,198.93 		"/>
		<polygon fill="#E5E6EB" points="644.022,208.264 644.022,156.522 523.76,208.264 		"/>
		<polygon fill="#E5E6EB" points="926.578,34.951 845.568,69.806 845.568,83.721 878.634,83.721 926.578,60.922 		"/>
		<polygon fill="#E5E6EB" points="970.109,208.264 970.109,156.522 895.661,208.264 		"/>
		<polygon fill="#E5E6EB" points="1015.823,45.57 883.065,116.129 983.945,116.129 983.945,99.083 1015.823,79.881 		"/>
		<polygon fill="#E5E6EB" points="787.975,57.143 815.476,57.143 817.355,56.405 817.355,34.951 787.975,45.57 		"/>
		<polygon fill="#E5E6EB" points="739.511,34.951 739.511,25.175 708.131,34.951 		"/>
		<polygon fill="#E5E6EB" points="693.686,171.671 725.544,156.522 737.903,156.522 737.903,116.129 693.686,135.154 		"/>
		<polygon fill="#E5E6EB" points="720.914,69.806 682.413,83.721 720.914,83.721 		"/>
		<polygon fill="#E5E6EB" points="1172.085,16.143 1159.091,25.175 1159.091,34.951 1172.085,34.951 		"/>
		<polygon fill="#E5E6EB" points="2720.238,57.143 2720.238,83.721 2840.843,83.721 		"/>
		<polygon fill="#E5E6EB" points="2482.143,83.721 2579.215,83.721 2482.143,57.143 		"/>
		<polygon fill="#E5E6EB" points="446.203,57.143 458.334,57.143 529.721,38.714 529.721,25.175 446.203,45.57 		"/>
		<polygon fill="#E5E6EB" points="2667.722,45.57 2619.539,34.951 2619.539,47.604 2667.722,58.766 		"/>
		<polygon fill="#E5E6EB" points="2994.755,34.951 3000,34.951 3000,26.006 2994.755,25.175 		"/>
		<polygon fill="#E5E6EB" points="3000,17.946 3000,10.415 2982.182,7.775 2982.182,16.144 2988.229,16.144 		"/>
		<polygon fill="#E5E6EB" points="3000,43.951 2947.209,34.951 2947.209,44.627 3000,53.951 		"/>
		<polygon fill="#E5E6EB" points="2496.835,57.143 2601.19,57.143 2470.28,25.175 2470.28,38.714 2496.835,45.57 		"/>
		<polygon fill="#E5E6EB" points="517.857,57.143 598.908,57.143 598.908,34.951 		"/>
		<polygon fill="#E5E6EB" points="571.101,116.129 571.101,99.083 636.905,77.062 636.905,57.143 447.581,116.129 		"/>
		<polygon fill="#E5E6EB" points="2325.949,45.57 2325.949,57.143 2363.095,57.143 		"/>
		<polygon fill="#E5E6EB" points="600.972,7.775 566.704,16.143 600.972,16.143 		"/>
		<polygon fill="#E5E6EB" points="1000.853,208.264 1022.201,208.264 1022.201,180.695 1028.226,175.746 1028.226,116.129
			1000.853,135.154 		"/>
		<polygon fill="#E5E6EB" points="2279.086,69.806 2279.086,83.721 2317.587,83.721 		"/>
		<polygon fill="#E5E6EB" points="2029.778,69.806 2005.952,57.143 2005.952,83.721 2029.778,83.721 		"/>
		<polygon fill="#E5E6EB" points="2155.594,57.143 2212.025,57.143 2212.025,45.57 2155.594,25.175 		"/>
		<polygon fill="#E5E6EB" points="1870.253,83.721 1870.253,45.57 1840.909,25.175 1840.909,68.255 1842.798,69.806
			1842.798,83.721 		"/>
		<polygon fill="#E5E6EB" points="2084.862,140.529 2111.413,156.522 2192.935,156.522 2084.862,99.083 		"/>
		<polygon fill="#E5E6EB" points="2029.778,34.951 2073.422,34.951 2029.708,16.144 		"/>
		<polygon fill="#E5E6EB" points="2204.644,24.038 2237.257,34.951 2260.49,34.951 2260.49,25.175 2204.644,7.775 		"/>
		<polygon fill="#E5E6EB" points="1886.905,83.721 1925.145,83.721 1886.905,57.143 		"/>
		<polygon fill="#E5E6EB" points="1845.563,208.264 1890.927,208.264 1890.927,180.695 1845.563,135.154 		"/>
		<polygon fill="#E5E6EB" points="1913.067,34.951 1945.804,34.951 1945.804,25.175 1913.067,7.775 		"/>
		<polygon fill="#E5E6EB" points="2262.097,150.644 2325.289,180.695 2325.289,208.264 2476.24,208.265 2262.097,116.129 		"/>
		<polygon fill="#E5E6EB" points="1971.774,175.746 1977.799,180.695 1977.799,208.264 2064.672,208.264 2064.672,180.695
			1971.774,116.129 		"/>
		<polygon fill="#E5E6EB" points="2895.57,57.143 2958.333,57.143 2895.57,45.57 		"/>
		<polygon fill="#E5E6EB" points="2360.092,126.113 2569.215,208.265 2585.907,208.265 2585.907,180.695 2360.092,99.083 		"/>
		<polygon fill="#E5E6EB" points="2839.286,69.65 2902.355,82.902 2902.355,69.806 2839.286,57.143 		"/>
		<polygon fill="#E5E6EB" points="3000,156.522 3000,118.795 2987.903,116.129 2987.903,132.944 2997.44,135.154 2997.44,156.522
			"/>
		<polygon fill="#E5E6EB" points="2448.401,105.609 2672.78,180.695 2672.78,208.265 2759.652,208.265 2759.652,180.695
			2448.401,83.721 		"/>
		<polygon fill="#E5E6EB" points="2697.581,137.284 2763.587,156.522 2767.065,156.522 2767.065,135.154 2697.581,116.129 		"/>
		<polygon fill="#E5E6EB" points="2710.029,116.129 2842.742,116.129 2710.029,83.721 		"/>
		<polygon fill="#E5E6EB" points="1703.804,208.264 1732.438,208.264 1703.804,156.522 		"/>
		<polygon fill="#E5E6EB" points="1450,340 1453.512,308.264 1453.512,208.264 1450,240 		"/>
		<polygon fill="#E5E6EB" points="1467.296,156.522 1467.296,83.721 1459.239,156.522 		"/>
		<polygon fill="#E5E6EB" points="1363.471,57.143 1363.471,34.951 1351.19,57.143 		"/>
		<polygon fill="#E5E6EB" points="1281.318,7.775 1254.248,34.951 1281.318,34.951 		"/>
		<polygon fill="#E5E6EB" points="1318.548,208.264 1318.548,116.129 1267.562,208.264 		"/>
		<polygon fill="#E5E6EB" points="1109.073,208.264 1174.587,208.264 1219.529,150.255 1219.529,69.806 1109.073,180.695 		"/>
		<polygon fill="#E5E6EB" points="1473.776,34.951 1476.562,34.951 1476.562,0 1473.776,25.175 		"/>
		<polygon fill="#E5E6EB" points="1532.704,156.522 1540.761,156.522 1532.704,83.721 		"/>
		<polygon fill="#E5E6EB" points="1523.438,34.951 1527.306,34.951 1523.438,0 		"/>
		<polygon fill="#E5E6EB" points="1113.095,57.143 1074.855,83.721 1113.095,83.721 		"/>
		<polygon fill="#E5E6EB" points="1727.018,57.143 1767.857,57.143 1727.018,16.143 		"/>
		<polygon fill="#E5E6EB" points="1655.817,116.129 1672.018,116.129 1672.018,99.083 1655.817,69.806 		"/>
		<polygon fill="#E5E6EB" points="1794.331,116.129 1826.613,116.129 1794.331,83.721 		"/>
		<polygon fill="#E5E6EB" points="1621.49,34.951 1631.119,34.951 1631.119,25.175 1621.49,7.775 		"/>
		<polygon fill="#E5E6EB" points="1546.488,308.264 1550,340 1550,240 1546.488,208.264 		"/>
	</g>
	<g>
		<polygon fill="#F5F5F7" points="2448.401,83.721 2466.066,83.721 2482.143,83.721 2482.143,57.143 2496.835,57.143
			2496.835,45.57 2382.911,45.57 2466.066,69.806 2341.413,69.806 2448.401,105.609 		"/>
		<polygon fill="#F5F5F7" points="2470.28,38.714 2470.28,25.175 2260.49,25.175 2260.49,34.951 2455.704,34.951 		"/>
		<rect x="2212.025" y="45.57" fill="#F5F5F7" width="113.924" height="11.573"/>
		<polygon fill="#F5F5F7" points="2360.092,126.113 2360.092,99.083 2153.67,99.083 2262.097,150.644 2262.097,116.129
			2334.677,116.129 		"/>
		<rect x="2064.672" y="180.695" fill="#F5F5F7" width="260.618" height="27.569"/>
		<polygon fill="#F5F5F7" points="2029.778,34.951 2029.708,16.144 2181.054,16.144 2204.644,24.038 2204.644,7.775 1961.663,7.775
			1998.252,25.175 1945.804,25.175 1945.804,34.951 1998.252,34.951 		"/>
		<rect x="2029.778" y="69.806" fill="#F5F5F7" width="249.308" height="13.915"/>
		<polygon fill="#F5F5F7" points="1672.018,116.129 1740.826,116.129 1794.331,116.129 1794.331,83.721 1842.798,83.721
			1842.798,69.806 1718.144,69.806 1740.826,99.083 1672.018,99.083 		"/>
		<polygon fill="#F5F5F7" points="1363.471,34.951 1363.471,57.143 1414.557,57.143 1699.367,57.143 1727.018,57.143
			1727.018,16.143 1878.363,16.143 1909.587,34.951 1913.067,34.951 1913.067,7.775 1670.086,7.775 1683.566,25.175
			1631.119,25.175 1631.119,34.951 1683.566,34.951 1691.141,34.951 1699.367,45.57 1414.557,45.57 1418.083,34.951
			1473.776,34.951 1473.776,25.175 1316.434,25.175 1323.431,16.143 1424.327,16.143 1427.106,7.775 1281.318,7.775
			1281.318,34.951 1316.434,34.951 		"/>
		<polygon fill="#F5F5F7" points="1621.49,34.951 1621.49,7.775 1572.894,7.775 1581.917,34.951 		"/>
		<polygon fill="#F5F5F7" points="2982.182,16.144 2982.182,7.775 2253.24,7.775 2281.951,16.144 		"/>
		<polygon fill="#F5F5F7" points="2987.903,132.944 2987.903,116.129 3000,116.129 3000,99.083 2841.743,99.083 		"/>
		<polygon fill="#F5F5F7" points="1788.461,25.175 1840.909,68.255 1840.909,25.175 		"/>
		<rect x="2767.065" y="135.154" fill="#F5F5F7" width="230.375" height="21.368"/>
		<polygon fill="#F5F5F7" points="2902.355,82.902 2906.25,83.721 3000,83.721 3000,69.806 2902.355,69.806 		"/>
		<rect x="2585.907" y="180.695" fill="#F5F5F7" width="86.873" height="27.57"/>
		<rect x="2759.652" y="180.695" fill="#F5F5F7" width="240.348" height="27.57"/>
		<polygon fill="#F5F5F7" points="2084.862,140.529 2084.862,99.083 1878.44,99.083 1971.774,175.746 1971.774,116.129
			2044.355,116.129 		"/>
		<polygon fill="#F5F5F7" points="2619.539,47.604 2619.539,34.951 2892.597,34.951 2947.209,44.627 2947.209,34.951
			2994.755,34.951 2994.755,25.175 2522.727,25.175 		"/>
		<rect x="1890.927" y="180.695" fill="#F5F5F7" width="86.873" height="27.569"/>
		<polygon fill="#F5F5F7" points="2697.581,116.129 2704.128,116.129 2710.029,116.129 2710.029,83.721 2715.374,83.721
			2720.238,83.721 2720.238,57.143 2779.762,57.143 2839.286,69.65 2839.286,57.143 2895.57,57.143 2895.57,45.57 2667.722,45.57
			2667.722,58.766 2715.374,69.806 2590.72,69.806 2704.128,99.083 2566.514,99.083 2697.581,137.284 		"/>
		<polygon fill="#F5F5F7" points="1870.253,83.721 1886.905,83.721 1886.905,57.143 1946.428,57.143 1990.552,83.721
			2005.952,83.721 2005.952,57.143 2155.594,57.143 2155.594,25.175 2103.147,25.175 2155.063,45.57 1870.253,45.57 		"/>
		<polygon fill="#F5F5F7" points="380.462,57.143 389.241,57.143 446.203,57.143 446.203,45.57 389.241,45.57 424.826,37.326
			424.826,25.175 0,25.175 0,34.951 380.462,34.951 		"/>
		<polygon fill="#F5F5F7" points="465.808,27.831 552.376,7.775 0,7.775 0,16.143 465.808,16.143 		"/>
		<polygon fill="#F5F5F7" points="1172.619,57.143 1291.667,57.143 1300.633,45.57 1015.823,45.57 1015.823,79.881 1053.572,57.143
			1113.095,57.143 1113.095,83.721 1140.262,83.721 		"/>
		<polygon fill="#F5F5F7" points="1172.085,34.951 1199.636,34.951 1232.721,7.775 600.972,7.775 600.972,16.143 1172.085,16.143
			"/>
		<polygon fill="#F5F5F7" points="0,45.57 0,54.052 47.469,45.57 		"/>
		<rect x="0" y="240" fill="#F5F5F7" width="1450" height="100"/>
		<polygon fill="#F5F5F7" points="229.839,116.129 364.679,116.129 364.679,99.083 227.064,99.083 0,154.531 0,175.462
			227.064,116.845 		"/>
		<polygon fill="#F5F5F7" points="1703.804,208.264 1703.804,156.522 1785.326,156.522 1825.413,208.264 1845.563,208.264
			1845.563,135.154 1615.188,135.154 1630.309,180.695 1369.691,180.695 1396.789,99.083 1259.174,99.083 1271.076,83.721
			1467.296,83.721 1467.296,156.522 1532.704,156.522 1532.704,83.721 1598.11,83.721 1608.871,116.129 1655.817,116.129
			1655.817,69.806 1219.529,69.806 1219.529,150.255 1245.968,116.129 1259.174,116.129 1318.548,116.129 1318.548,208.264
			1369.691,208.264 1453.512,208.264 1453.512,280.695 1546.488,280.695 1546.488,208.264 1630.309,208.264 		"/>
		<rect x="1550" y="240" fill="#F5F5F7" width="1450" height="100"/>
		<rect x="720.914" y="69.806" fill="#F5F5F7" width="124.654" height="13.915"/>
		<polygon fill="#F5F5F7" points="222.3,69.806 222.3,83.721 420.785,83.721 420.785,102.784 533.934,69.806 		"/>
		<polygon fill="#F5F5F7" points="232.935,135.154 232.935,157.535 236.413,156.522 399.457,156.522 463.311,135.154 		"/>
		<polygon fill="#F5F5F7" points="674.71,208.264 802.686,208.264 848.456,180.695 674.71,180.695 693.686,171.671 693.686,135.154
			540.103,135.154 540.103,165.32 562.5,156.522 644.022,156.522 644.022,208.264 		"/>
		<rect x="153.475" y="180.695" fill="#F5F5F7" width="260.618" height="27.569"/>
		<polygon fill="#F5F5F7" points="1000.853,208.264 1000.853,135.154 770.478,135.154 846.33,99.083 571.101,99.083
			571.101,116.129 737.903,116.129 737.903,156.522 770.478,156.522 970.109,156.522 970.109,208.264 		"/>
		<polygon fill="#F5F5F7" points="981.189,34.951 1159.091,34.951 1159.091,25.175 739.511,25.175 739.511,34.951 817.355,34.951
			817.355,56.405 871.966,34.951 926.578,34.951 926.578,60.922 		"/>
		<rect x="1022.201" y="180.695" fill="#F5F5F7" width="86.873" height="27.569"/>
		<polygon fill="#F5F5F7" points="598.908,34.951 598.908,57.143 617.089,57.143 636.905,57.143 636.905,77.062 696.429,57.143
			787.975,57.143 787.975,45.57 617.089,45.57 687.063,25.175 529.721,25.175 529.721,38.714 544.296,34.951 		"/>
		<polygon fill="#F5F5F7" points="20.643,130.964 158.257,99.083 20.643,99.083 		"/>
		<polygon fill="#F5F5F7" points="983.945,99.083 983.945,116.129 1028.226,116.129 1028.226,175.746 1121.56,99.083 		"/>
		<polygon fill="#F5F5F7" points="275.317,45.57 104.431,45.57 104.431,57.143 160.715,57.143 160.715,69.65 		"/>
	</g>
	<g>
		<polygon fill="#FFFFFF" points="552.375,7.775 389.24,45.57 446.202,45.57 529.72,25.175 687.062,25.175 617.088,45.57
			787.974,45.57 817.354,34.951 708.131,34.951 739.51,25.175 1159.091,25.175 1172.085,16.144 566.704,16.144 600.971,7.775
			1232.721,7.775 1199.636,34.951 981.189,34.951 878.633,83.721 682.412,83.721 720.914,69.806 845.568,69.806 926.577,34.951
			871.966,34.951 815.476,57.143 696.428,57.143 571.101,99.083 846.33,99.083 770.478,135.154 1000.853,135.154 1028.226,116.129
			883.064,116.129 1015.823,45.57 1300.633,45.57 1291.667,57.143 1172.619,57.143 1140.261,83.721 1074.854,83.721
			1113.095,57.143 1053.571,57.143 983.945,99.083 1121.559,99.083 1022.2,180.695 1109.073,180.695 1219.529,69.806
			1655.817,69.806 1672.018,99.083 1740.825,99.083 1718.144,69.806 1842.798,69.806 1788.461,25.175 1840.909,25.175
			1870.253,45.57 2155.063,45.57 2103.147,25.175 2155.594,25.175 2212.025,45.57 2325.949,45.57 2363.095,57.143 2005.952,57.143
			2029.778,69.806 2279.086,69.806 2317.587,83.721 1990.552,83.721 1946.428,57.143 1886.905,57.143 1925.145,83.721
			1794.331,83.721 1826.613,116.129 1608.871,116.129 1598.11,83.721 1532.703,83.721 1540.761,156.522 1459.239,156.522
			1467.296,83.721 1271.075,83.721 1259.174,99.083 1396.789,99.083 1369.691,180.695 1630.309,180.695 1615.188,135.154
			1845.563,135.154 1890.927,180.695 1977.799,180.695 1878.44,99.083 2084.862,99.083 2192.935,156.522 2111.413,156.522
			2044.355,116.129 1971.774,116.129 2064.672,180.695 2325.289,180.695 2153.67,99.083 2360.092,99.083 2585.907,180.695
			2672.78,180.695 2341.413,69.806 2466.066,69.806 2382.911,45.57 2496.835,45.57 2455.704,34.951 2237.257,34.951
			2181.054,16.144 2029.708,16.144 2073.422,34.951 1909.587,34.951 1878.363,16.144 1727.018,16.144 1767.857,57.143
			1351.19,57.143 1363.471,34.951 1254.247,34.951 1281.317,7.775 1427.105,7.775 1424.327,16.144 1323.43,16.144 1316.433,25.175
			1473.776,25.175 1476.562,0 0,0 0,7.775 		"/>
		<polygon fill="#FFFFFF" points="3000,116.129 2987.903,116.129 3000,118.795 		"/>
		<polygon fill="#FFFFFF" points="1418.082,34.951 1414.557,45.57 1699.367,45.57 1691.141,34.951 1581.917,34.951 1572.894,7.775
			1621.49,7.775 1631.119,25.175 1683.566,25.175 1670.086,7.775 1913.067,7.775 1945.804,25.175 1998.252,25.175 1961.663,7.775
			2204.644,7.775 2260.49,25.175 2470.28,25.175 2601.19,57.143 2482.143,57.143 2579.215,83.721 2448.401,83.721 2759.652,180.695
			3000,180.695 3000,156.522 2763.587,156.522 2566.514,99.083 2704.128,99.083 2590.72,69.806 2715.374,69.806 2522.727,25.175
			2994.755,25.175 3000,26.006 3000,17.946 2988.229,16.144 2281.951,16.144 2253.24,7.775 2982.182,7.775 3000,10.415 3000,0
			1523.437,0 1527.306,34.951 		"/>
		<polygon fill="#FFFFFF" points="3000,43.951 3000,34.951 2947.209,34.951 		"/>
		<polygon fill="#FFFFFF" points="2767.065,135.154 2997.44,135.154 2841.743,99.083 3000,99.083 3000,83.721 2906.25,83.721
			2779.762,57.143 2720.238,57.143 2840.843,83.721 2710.029,83.721 2842.742,116.129 2697.581,116.129 		"/>
		<polygon fill="#FFFFFF" points="2619.539,34.951 2667.722,45.57 2895.57,45.57 2958.333,57.143 2839.286,57.143 2902.355,69.806
			3000,69.806 3000,53.979 2892.597,34.951 		"/>
		<polygon fill="#FFFFFF" points="101.19,57.143 0,76.596 0,89.412 160.714,57.143 		"/>
		<polygon fill="#FFFFFF" points="3000,208.265 2569.215,208.265 2334.677,116.129 2262.097,116.129 2476.24,208.265
			1825.413,208.265 1785.326,156.522 1703.804,156.522 1732.438,208.265 1546.487,208.265 1550,240 3000,240 		"/>
		<polygon fill="#FFFFFF" points="1318.548,116.129 1245.968,116.129 1174.586,208.265 895.661,208.265 970.108,156.522
			725.543,156.522 674.71,180.695 848.455,180.695 802.686,208.265 523.76,208.265 644.021,156.522 562.5,156.522 430.785,208.265
			0,208.265 0,240 1450,240 1453.512,208.265 1267.562,208.265 		"/>
		<polygon fill="#FFFFFF" points="0,116.129 0,118.795 12.096,116.129 		"/>
		<polygon fill="#FFFFFF" points="463.31,135.154 399.456,156.522 236.413,156.522 153.475,180.695 414.092,180.695
			540.102,135.154 693.686,135.154 737.903,116.129 447.58,116.129 636.904,57.143 517.857,57.143 598.907,34.951 544.296,34.951
			458.333,57.143 279.761,57.143 380.461,34.951 0,34.951 0,45.57 47.468,45.57 0,53.979 0,64.826 104.43,45.57 275.316,45.57
			20.642,99.083 158.256,99.083 0,135.747 0,154.531 227.064,99.083 364.678,99.083 420.784,83.721 159.156,83.721 222.299,69.806
			533.933,69.806 375,116.129 229.838,116.129 0,175.462 0,198.93 232.935,135.154 		"/>
		<polygon fill="#FFFFFF" points="465.807,16.144 0,16.144 0,25.175 424.825,25.175 		"/>
	</g>
	<g>
		<polygon opacity="0.04" fill="#000933" points="1450,340 1450,240.344 1452.854,214.216 1443.75,215.625 1421.286,213.628
			1409.41,218.171 1382.41,221.171 1356.91,219.671 1343.41,226.171 1326.41,232.671 1292.41,228.671 1278.91,235.171
			1278.91,240.344 1287.41,253.171 1278.91,269.671 1253.41,286.671 1255.91,299.171 1252.251,315.269 1240.565,340 		"/>
		<polygon opacity="0.04" fill="#000933" points="1915.813,322.817 1921.043,296.817 1894.603,275.817 1889.603,260.817
			1900.334,246.817 1900.334,239.99 1888.603,228.817 1850.65,232.817 1837.813,223.817 1797.603,218.817 1771.603,223.817
			1760.603,231.817 1748.603,232.817 1736.603,239.99 1745.203,257.817 1717.958,270.817 1703.603,288.817 1666.278,301.817
			1653.441,322.817 1661.3,340 1921.43,340 		"/>
		<polygon opacity="0.04" fill="#000933" points="1630.309,180.695 1630.309,208.264 1551.972,208.265 1549.531,205.24
			1536.069,192.889 1536.069,189.132 1527.303,180.695 1532.722,173.478 1543.896,168.241 1554.541,168.241 1559.55,160.955
			1571.447,158.45 1581.778,159.702 1597.192,154.076 1609.985,158.043 1622.249,156.421 		"/>
		<polygon opacity="0.04" fill="#000933" points="1374.746,165.47 1357.331,168 1345.333,173.333 1336.39,172 1328.333,170
			1322.333,172 1318.548,173.333 1318.548,208.264 1369.691,208.265 1369.691,180.695 		"/>
		<polygon opacity="0.04" fill="#000933" points="1811.512,135.154 1806.5,131.5 1798.077,131.207 1775,123 1770.663,123
			1750.5,126.75 1724,129.25 1719.454,135.154 1708.5,140.25 1693.25,148 1687.375,160.875 1689.625,171 1698.803,183.245
			1703.804,184.75 1703.804,156.522 1785.326,156.522 1800.683,176.343 1806.234,167.415 1806.234,154.447 1809.511,148.258
			1808.331,141.966 		"/>
		<path opacity="0.04" fill="#000933" d="M2268.987,175.746l-31.487-4.037l-12.5,6.356l-8.75-4.565l-8.972,2.247h-6.528l-2-4.037
			l-5-1.709l-12.25,3.5l-18.25,3.499l-26.5-1.514l-21.25,1.514l-16.92-1.514l-9.527-11.395l-13.406-7.568h-14.448h-10.32h-13.116
			l-1.791,8.944l-2.293,10.019l-6.88,9.016l3.44,12.155l5.504,11.609l56.187,0H2237.5h6h47.167l-1.667-5.931l-9.914-7.854
			l-7.29-7.293l-0.171-6.492L2268.987,175.746z"/>
		<polygon opacity="0.04" fill="#000933" points="1259.174,99.083 1259.174,116.129 1280.125,116.129 1279.125,112.75
			1280.125,108.75 1279.375,101.875 1281.25,99.083 1279.625,95.625 1281.25,93.125 1283.875,90.348 1282.125,87.75
			1283.875,85.375 1286.875,83.721 1271.075,83.721 		"/>
		<polygon opacity="0.04" fill="#000933" points="2005.952,57.143 2031.494,57.143 2032.662,60.184 2037.336,61.572 2039.016,64
			2045.548,66.667 2047.048,68.333 2052.048,69.806 2049.882,72.333 2050.048,75.833 2052.048,78 2052.048,81.167 2053.215,83.721
			2005.952,83.721 		"/>
		<polygon opacity="0.04" fill="#000933" points="2378.308,164.982 2368.736,156.483 2362.986,146.983 2350.236,139.733
			2330.986,137.233 2322.986,131.733 2314.736,123.983 2302.236,122.483 2289.986,123.733 2286,125.266 2288.736,129.983
			2288.986,137.233 2287.986,141.656 2290.736,147.733 2292.323,153.733 2290.986,157.983 2291.133,164.449 2300.025,168.678
			2325.289,180.695 2325.289,208.264 2366.75,208.265 2368.375,204.375 2368.236,196.247 2367.486,186.733 2368.736,175.233
			2374.236,170.376 2374.486,166.047 		"/>
		<polygon opacity="0.04" fill="#000933" points="2672.78,180.695 2554.36,141.067 2550.023,141.769 2541.023,142.822
			2532.023,141.769 2518.773,141.769 2510.037,142.572 2500.523,144.822 2487.949,145.275 2489.773,150.418 2487.949,157.636
			2487.949,168.572 2489.523,174.052 2487.42,176.132 2569.215,208.265 2672.78,208.265 		"/>
		<polygon opacity="0.04" fill="#000933" points="2381.336,106.761 2380.649,101.057 2367.078,91.113 2355.9,90.348
			2350.073,93.253 2345.792,95.631 2344.522,99.083 2341.413,103.5 2344.522,110.5 2350.5,113.75 2353.75,117.75 2357.25,120.5
			2358.504,125.489 2363.095,127.293 2363.095,122.483 2365.385,116.129 2371.25,112.5 2374.75,107.75 2378.308,108.75 		"/>
		<polygon opacity="0.04" fill="#000933" points="2119,69.806 2137.5,67.75 2158.25,68.75 2171.5,66.75 2191,67 2208.75,67
			2229.75,68.25 2244.75,68.278 2245.75,69.806 2245.75,73.25 2242.25,76.764 2241.5,79.75 2242.25,83.721 2129.5,83.721
			2128.25,76.764 2124.25,73.25 2119,72 		"/>
		<polygon opacity="0.04" fill="#000933" points="2697.581,116.129 2758.741,116.013 2761.333,120.333 2772.167,122.167
			2781.667,127.667 2793.667,128.333 2799.5,130.5 2810.667,132.944 2813.5,135.154 2811.167,139.167 2812.167,143.667 2811,151.5
			2812.5,156.522 2763.587,156.522 2697.581,137.284 		"/>
		<polygon opacity="0.04" fill="#000933" points="2499.667,83.721 2492.667,87.333 2489.5,91.427 2491.167,94.167 2493.413,97.745
			2489.5,101.833 2489.5,107 2490.333,113 2486.592,118.389 2448.401,105.609 2448.401,83.721 		"/>
		<polygon opacity="0.04" fill="#000933" points="2897.631,240 2902.355,245.538 2928.956,249.223 2947.209,265.807
			2958.333,280.087 2963.966,284.233 2971.336,295.75 2968.112,311.412 2958.333,322.007 2951.177,329.378 2947.209,335.366
			2934.484,340 3000,340 3000,240 3000,222.044 2987.903,226.651 2960.281,232.639 2935.866,232.179 2920.872,234.482 		"/>
		<polygon opacity="0.04" fill="#000933" points="2919.5,83.721 2917,80.5 2915.75,75.5 2917.625,72.75 2919.5,70.023 2914.5,67
			2907.5,65.25 2900.75,64 2893.75,64.75 2886.25,62.5 2881.25,63.25 2875.25,62.75 2869.508,63.211 2872.5,66.25 2873.5,69.806
			2874.75,72 2874,74.75 2877.75,76.764 2878.587,77.908 2906.25,83.721 		"/>
		<polygon opacity="0.04" fill="#000933" points="2715.374,69.806 2715.374,73.111 2707.636,76.764 2700.662,83.721
			2691.879,83.721 2687.487,89.147 2681.912,93.347 2590.72,69.806 		"/>
		<polygon opacity="0.04" fill="#000933" points="2582,336.75 2566,336.75 2564.25,331.5 2545.5,329 2538.5,323.25 2532.5,316.5
			2521.333,317 2515,312 2511.667,300.667 2502,288.333 2499.667,282.667 2496.246,279.32 2495.715,269.709 2490.5,269.5
			2463.5,265.5 2432.771,271.01 2417,265.5 2396.5,272.5 2381.336,290 2385.667,313.667 2391.333,321 2381.25,330 2372.75,333.5
			2364.25,333.5 2354.125,336.75 2339.75,333.5 2331.25,333.5 2321.875,336.75 2306.667,335.667 2297,332.333 2286.667,328
			2271,328.333 2254.442,321.635 2243.418,311.381 2228.612,306.37 2207.278,310.036 2192.935,318.44 2181,331.667 2171.333,340
			2520,340 2531.333,340 2584.5,340 		"/>
		<polygon opacity="0.04" fill="#000933" points="949.301,135.154 953.25,132.25 974.75,130.5 982,127.25 986,121.25 990.25,119
			990.25,116.129 1028.226,116.129 1028.226,175.746 1022.2,180.695 1022.201,208.264 1000.853,208.264 977.75,208.265 980.5,197.5
			980.75,182.393 980,175.746 983.945,168.5 983.945,162.197 980.604,156.522 980.083,150.122 973.5,146.25 966.25,141.5
			953,139.035 		"/>
		<polygon opacity="0.04" fill="#000933" points="720.914,123.438 701.664,120.335 693.686,123.438 682.413,123.438
			672.103,128.627 673.639,135.154 677.631,143.9 672.103,149.818 677.938,158.417 685.923,162.197 693.686,168.552
			699.436,163.638 703.429,153.674 711.107,151.353 714.178,142.447 718.826,137.414 719.092,129.855 		"/>
		<polygon opacity="0.04" fill="#000933" points="345.579,156.522 335.363,161.667 338.913,168.333 335.363,175.462
			340.471,180.695 343.246,186.667 335.363,194.48 331.342,202 331.342,208.264 205.054,208.264 206.636,203.13 205.054,195.548
			206.636,190.404 205.054,180.695 224.436,176.999 235.885,171.709 246.978,170 259.508,164.824 273.783,162.517 287.993,156.522
					"/>
		<polygon opacity="0.04" fill="#000933" points="353.269,332.333 331.935,336.167 313.269,333 295.269,335 266.602,331.667
			253.935,325 243.269,313 236.602,306.333 232.935,305.385 207.667,301 197,309 179,312.333 163.667,305.385 138.333,312.333
			107.667,312.333 89.45,299 74.333,296.333 55.667,285.667 47.469,273 23.734,270.333 12.096,258.333 0,255.667 0,340 232.935,340
			393.65,340 		"/>
		<polygon opacity="0.04" fill="#000933" points="1051.901,45.57 1046.83,41.026 1036.035,41.026 1027.202,38.409 1016.897,38.409
			1005.284,38.409 997.269,41.989 992.852,48.877 990.235,53.457 989.074,59.786 995.363,60.922 1000.853,64.645 1003.321,68.505
			1008.719,70.432 1011.499,77.011 1014.215,80.849 1018.501,78.267 1047.298,60.922 1048.63,57.143 1045.685,52.476
			1051.901,48.55 		"/>
		<polygon opacity="0.04" fill="#000933" points="1822.96,53.512 1822.167,55.833 1818.5,55.833 1815.667,58.5 1812.167,58.5
			1809.667,62.667 1807.833,65.5 1807,67.5 1801.5,69.806 1805.833,71.5 1807.333,75.5 1812.23,79.667 1813,83.721 1842.798,83.721
			1842.798,69.806 		"/>
		<path opacity="0.04" fill="#000933" d="M844.392,95.518c-0.627,0-13.592-1.882-13.592-1.882l-10.874,1.046l-15.893-2.3
			l-16.059,1.129l-18.625-1.129h-10.34l-8.124,2.606l-7.57,1.846l-1.292,2.249l1.292,1.444l8.309,2.216l7.57,2.4l12.371,1.292
			l6.831,4.247l6.278,0.923l4.93,1.479l2.928,3.858v4.298l1.038,2.933l52.76-25.089C846.33,99.083,845.02,95.518,844.392,95.518z"/>
		<polygon opacity="0.04" fill="#000933" points="555.862,123.8 556.223,123.303 548.85,120.335 529.721,122.984 508.495,124.172
			500.177,130.685 496.173,140.851 494.423,151.662 499.075,149.981 496.272,159.025 494.342,164.814 496.487,173.176
			495.414,179.609 496.643,182.393 540.103,165.32 556.219,158.989 552.376,151.801 558.383,143.9 558.383,139.461 561.794,135.154
			561.794,131.156 557.286,128.783 		"/>
		<polygon opacity="0.04" fill="#000933" points="1194.311,153.488 1196.12,142.376 1193.25,132 1193,120.75 1190.75,113.25
			1191.5,104.5 1194.5,99.925 1194.093,95.342 1182.5,97 1176,99.925 1165.588,101.5 1155,107.25 1142,111 1136.25,118.5
			1127.25,135 1127.25,143 1123,151.803 1124.25,155.25 1118.5,167.75 1106.801,172 1093.975,175.746 1077.13,175.25 1060.985,172
			1051.901,176.999 1051.901,180.695 1057.931,186.867 1065.637,194.48 1065.637,200.049 1074.855,208.264 1174.586,208.265
			1195.311,181.514 1196.379,172.612 1196.379,160.983 		"/>
		<polygon opacity="0.04" fill="#000933" points="636.905,77.062 636.904,57.143 613.5,57.143 612.375,59.625 613.5,62.375
			614.895,64 619.625,66.875 619.625,73 623.25,77.062 621.438,82.238 		"/>
		<path opacity="0.04" fill="#000933" d="M420.784,83.721h-85.415l-6.303,4.433l1.046,2.194l-2.797,4.635l-2.977,1.401l-0.145,0.093
			L309.25,94.75l-10,2.166l-15.466-0.471L274,94.75l-15.25,1.695l-9.417,2.638L241,93l-15.333-2.652c0,0-10.333,3.652-11.333,3.652
			s-13,0.667-13,0.667l-14.667,5.258L175,108.667l-3.814,4.061l2.481,2.295l1.667,3.771l-2,3.539l2.048,7.854l54.457-14.058h19.495
			l74.655,0H375l45.785-13.345L420.784,83.721z"/>
		<polygon opacity="0.04" fill="#000933" points="54.396,91.99 57.241,94.413 57.241,99.083 55.819,103.59 55.819,111.019
			57.241,116.129 55.819,122.815 125.423,106.689 122.355,102.784 123.01,99.083 122.136,91.99 116.468,86.295 114.489,80.866
			119.23,78.367 		"/>
		<polygon opacity="0.04" fill="#000933" points="843.055,323.477 832.941,313.714 827.132,308.061 825,289.562 826.848,278.063
			832.941,276.063 839.701,261.259 862.85,254.25 873.064,240 868.658,235.231 870.849,231.462 844.546,222.255 825.58,219.185
			810.059,220.859 781.604,214.163 737.951,211.652 720.166,214.721 702.818,217.112 690.81,219 677.141,219 658.599,224
			648.169,232.5 636.763,237.244 633.129,239.503 630.786,247.5 636.581,255.5 657.76,274.285 670.358,278.312 674.091,292.806
			698.333,302.333 714.833,315.977 716.491,328.412 709.848,334.644 708.003,340 754.667,340 758.146,340 863.554,340 861,333.667
					"/>
	</g>
	<path opacity="0.13" fill="#000933" d="M1329.031,274.063c0,1.105-0.896,2-2,2s-2-0.895-2-2s0.896-2,2-2
		S1329.031,272.958,1329.031,274.063z M1322.432,95.477c-0.829,0-1.5,0.672-1.5,1.5s0.671,1.5,1.5,1.5c0.828,0,1.5-0.672,1.5-1.5
		S1323.26,95.477,1322.432,95.477z M1345.932,145.977c-0.552,0-1,0.448-1,1s0.448,1,1,1s1-0.448,1-1
		S1346.484,145.977,1345.932,145.977z M1312.932,55.977c-0.829,0-1.5,0.672-1.5,1.5s0.671,1.5,1.5,1.5c0.828,0,1.5-0.672,1.5-1.5
		S1313.76,55.977,1312.932,55.977z M1319.932,308.977c-0.552,0-1,0.448-1,1s0.448,1,1,1s1-0.448,1-1
		S1320.484,308.977,1319.932,308.977z M1366.932,312.977c-0.829,0-1.5,0.672-1.5,1.5s0.671,1.5,1.5,1.5c0.828,0,1.5-0.672,1.5-1.5
		S1367.76,312.977,1366.932,312.977z M1372.932,273.977c-0.552,0-1,0.448-1,1s0.448,1,1,1s1-0.448,1-1
		S1373.484,273.977,1372.932,273.977z M1394.528,119.571c-1.104,0-2,0.895-2,2c0,1.105,0.896,2,2,2c1.105,0,2-0.895,2-2
		C1396.528,120.466,1395.633,119.571,1394.528,119.571z M1399.028,183.977c-1.104,0-2,0.895-2,2s0.896,2,2,2s2-0.895,2-2
		S1400.132,183.977,1399.028,183.977z M1368.932,232.977c-0.829,0-1.5,0.672-1.5,1.5s0.671,1.5,1.5,1.5c0.828,0,1.5-0.672,1.5-1.5
		S1369.76,232.977,1368.932,232.977z M1350.432,154.477c-0.829,0-1.5,0.672-1.5,1.5s0.671,1.5,1.5,1.5c0.828,0,1.5-0.672,1.5-1.5
		S1351.26,154.477,1350.432,154.477z M1312.932,239.977c-0.552,0-1,0.448-1,1s0.448,1,1,1s1-0.448,1-1
		S1313.484,239.977,1312.932,239.977z M1268.932,77.477c-0.829,0-1.5,0.672-1.5,1.5s0.671,1.5,1.5,1.5c0.828,0,1.5-0.672,1.5-1.5
		S1269.76,77.477,1268.932,77.477z M1208.318,218.178c-1.104,0-2,0.895-2,2s0.896,2,2,2s2-0.895,2-2
		S1209.423,218.178,1208.318,218.178z M1221.932,122.977c-0.829,0-1.5,0.672-1.5,1.5s0.671,1.5,1.5,1.5c0.828,0,1.5-0.672,1.5-1.5
		S1222.76,122.977,1221.932,122.977z M1233.536,306.561c-1.104,0-2,0.895-2,2s0.896,2,2,2s2-0.895,2-2
		S1234.64,306.561,1233.536,306.561z M1206.932,106.977c0,0.552,0.448,1,1,1s1-0.448,1-1s-0.448-1-1-1
		S1206.932,106.425,1206.932,106.977z M1208.037,88.572c1.104,0,2-0.895,2-2c0-1.105-0.896-2-2-2s-2,0.895-2,2
		C1206.037,87.677,1206.932,88.572,1208.037,88.572z M1292.033,119.07c-1.104,0-2,0.895-2,2c0,1.105,0.896,2,2,2s2-0.895,2-2
		C1294.033,119.966,1293.137,119.07,1292.033,119.07z M1281.932,205.338c-0.552,0-1,0.448-1,1s0.448,1,1,1s1-0.448,1-1
		S1282.484,205.338,1281.932,205.338z M1309.532,181.977c-1.104,0-2,0.895-2,2s0.896,2,2,2s2-0.895,2-2
		S1310.636,181.977,1309.532,181.977z M1411.527,220.066c-1.104,0-2,0.895-2,2c0,1.105,0.896,2,2,2s2-0.895,2-2
		C1413.527,220.961,1412.631,220.066,1411.527,220.066z M1258.932,225.977c-0.829,0-1.5,0.672-1.5,1.5s0.671,1.5,1.5,1.5
		c0.828,0,1.5-0.672,1.5-1.5S1259.76,225.977,1258.932,225.977z M1236.432,166.477c-0.829,0-1.5,0.672-1.5,1.5s0.671,1.5,1.5,1.5
		c0.828,0,1.5-0.672,1.5-1.5S1237.26,166.477,1236.432,166.477z M1609.517,183.977c-1.104,0-2,0.895-2,2s0.896,2,2,2s2-0.895,2-2
		S1610.621,183.977,1609.517,183.977z M1597.018,220.066c-1.105,0-2,0.895-2,2c0,1.105,0.895,2,2,2c1.104,0,2-0.895,2-2
		C1599.018,220.961,1598.122,220.066,1597.018,220.066z M1618.016,119.571c-1.104,0-2,0.895-2,2c0,1.105,0.896,2,2,2
		c1.105,0,2-0.895,2-2C1620.016,120.466,1619.121,119.571,1618.016,119.571z M1596.018,186.571c0-0.552-0.448-1-1-1
		c-0.553,0-1,0.448-1,1s0.447,1,1,1C1595.571,187.571,1596.018,187.123,1596.018,186.571z M1590.018,289.562c-1.104,0-2,0.895-2,2
		s0.896,2,2,2s2-0.895,2-2S1591.122,289.562,1590.018,289.562z M1418.527,289.562c-1.104,0-2,0.895-2,2s0.896,2,2,2s2-0.895,2-2
		S1419.631,289.562,1418.527,289.562z M1652.432,221.477c-0.829,0-1.5,0.672-1.5,1.5s0.671,1.5,1.5,1.5c0.828,0,1.5-0.672,1.5-1.5
		S1653.26,221.477,1652.432,221.477z M1669.018,136.571c-0.553,0-1,0.448-1,1s0.447,1,1,1c0.552,0,1-0.448,1-1
		S1669.571,136.571,1669.018,136.571z M1658.393,158.528c-0.829,0-1.5,0.672-1.5,1.5s0.671,1.5,1.5,1.5s1.5-0.672,1.5-1.5
		S1659.221,158.528,1658.393,158.528z M1642.018,264.571c-0.553,0-1,0.448-1,1s0.447,1,1,1c0.552,0,1-0.448,1-1
		S1642.571,264.571,1642.018,264.571z M1585.018,115.571c-0.553,0-1,0.448-1,1s0.447,1,1,1c0.552,0,1-0.448,1-1
		S1585.571,115.571,1585.018,115.571z M1640.932,304.477c-0.829,0-1.5,0.672-1.5,1.5s0.671,1.5,1.5,1.5c0.828,0,1.5-0.672,1.5-1.5
		S1641.76,304.477,1640.932,304.477z M1624.432,261.477c-0.829,0-1.5,0.672-1.5,1.5s0.671,1.5,1.5,1.5c0.828,0,1.5-0.672,1.5-1.5
		S1625.26,261.477,1624.432,261.477z M1582.018,250.571c-0.553,0-1,0.448-1,1s0.447,1,1,1c0.552,0,1-0.448,1-1
		S1582.571,250.571,1582.018,250.571z M1432.932,259.977c-0.552,0-1,0.448-1,1s0.448,1,1,1s1-0.448,1-1
		S1433.484,259.977,1432.932,259.977z M1486.523,268.977c-1.105,0-2,0.895-2,2s0.895,2,2,2c1.104,0,2-0.895,2-2
		S1487.628,268.977,1486.523,268.977z M1473.582,219.284c-0.829,0-1.5,0.672-1.5,1.5s0.671,1.5,1.5,1.5s1.5-0.672,1.5-1.5
		S1474.41,219.284,1473.582,219.284z M1419.932,194.977c-0.552,0-1,0.448-1,1s0.448,1,1,1s1-0.448,1-1
		S1420.484,194.977,1419.932,194.977z M1429.932,124.977c-0.552,0-1,0.448-1,1s0.448,1,1,1s1-0.448,1-1
		S1430.484,124.977,1429.932,124.977z M1189.538,237.565c-1.105,0-2,0.895-2,2c0,1.105,0.895,2,2,2c1.104,0,2-0.895,2-2
		C1191.538,238.46,1190.643,237.565,1189.538,237.565z M1532.546,232.977c-0.829,0-1.5,0.672-1.5,1.5s0.671,1.5,1.5,1.5
		c0.828,0,1.5-0.672,1.5-1.5S1533.374,232.977,1532.546,232.977z M1526.018,128.571c-0.553,0-1,0.448-1,1s0.447,1,1,1
		c0.552,0,1-0.448,1-1S1526.571,128.571,1526.018,128.571z M1488.932,137.977c-0.552,0-1,0.448-1,1s0.448,1,1,1s1-0.448,1-1
		S1489.484,137.977,1488.932,137.977z M1141.932,116.977c-0.829,0-1.5,0.672-1.5,1.5s0.671,1.5,1.5,1.5c0.828,0,1.5-0.672,1.5-1.5
		S1142.76,116.977,1141.932,116.977z M884.932,234.977c-0.552,0-1,0.448-1,1s0.448,1,1,1s1-0.448,1-1
		S885.484,234.977,884.932,234.977z M877.053,80.573c-1.104,0-2,0.895-2,2c0,1.105,0.896,2,2,2s2-0.895,2-2
		C879.053,81.468,878.158,80.573,877.053,80.573z M893.553,164.068c-1.105,0-2,0.895-2,2c0,1.105,0.895,2,2,2c1.104,0,2-0.895,2-2
		C895.553,164.964,894.657,164.068,893.553,164.068z M874.432,195.477c-0.829,0-1.5,0.672-1.5,1.5s0.671,1.5,1.5,1.5
		c0.828,0,1.5-0.672,1.5-1.5S875.26,195.477,874.432,195.477z M856.932,304.977c-0.552,0-1,0.448-1,1s0.448,1,1,1s1-0.448,1-1
		S857.484,304.977,856.932,304.977z M865.554,123.07c-1.104,0-2,0.895-2,2c0,1.105,0.896,2,2,2s2-0.895,2-2
		C867.554,123.966,866.658,123.07,865.554,123.07z M902.932,270.977c-0.829,0-1.5,0.672-1.5,1.5s0.671,1.5,1.5,1.5
		c0.828,0,1.5-0.672,1.5-1.5S903.76,270.977,902.932,270.977z M967.549,250.064c-1.104,0-2,0.895-2,2c0,1.105,0.896,2,2,2
		s2-0.895,2-2C969.549,250.96,968.654,250.064,967.549,250.064z M959.549,304.061c-1.104,0-2,0.895-2,2c0,1.105,0.896,2,2,2
		s2-0.895,2-2C961.549,304.957,960.654,304.061,959.549,304.061z M932.05,323.06c-1.104,0-2,0.895-2,2c0,1.105,0.896,2,2,2
		c1.105,0,2-0.895,2-2C934.05,323.956,933.155,323.06,932.05,323.06z M941.932,100.977c-0.829,0-1.5,0.672-1.5,1.5
		s0.671,1.5,1.5,1.5c0.828,0,1.5-0.672,1.5-1.5S942.76,100.977,941.932,100.977z M921.932,239.977c-0.552,0-1,0.448-1,1s0.448,1,1,1
		s1-0.448,1-1S922.484,239.977,921.932,239.977z M959.432,183.477c0-0.828-0.672-1.5-1.5-1.5c-0.829,0-1.5,0.672-1.5,1.5
		s0.671,1.5,1.5,1.5C958.76,184.977,959.432,184.305,959.432,183.477z M1233.932,140.977c0,0.552,0.448,1,1,1s1-0.448,1-1
		s-0.448-1-1-1S1233.932,140.425,1233.932,140.977z M1071.932,212.977c0.552,0,1-0.448,1-1s-0.448-1-1-1s-1,0.448-1,1
		S1071.38,212.977,1071.932,212.977z M1234.432,41.477c-0.829,0-1.5,0.672-1.5,1.5s0.671,1.5,1.5,1.5c0.828,0,1.5-0.672,1.5-1.5
		S1235.26,41.477,1234.432,41.477z M845.055,227.065c-1.105,0-2,0.895-2,2s0.895,2,2,2c1.104,0,2-0.895,2-2
		S846.16,227.065,845.055,227.065z M2203.018,120.571c0.552,0,1-0.448,1-1s-0.448-1-1-1c-0.553,0-1,0.448-1,1
		S2202.466,120.571,2203.018,120.571z M1806.018,97.571c0,0.552,0.447,1,1,1c0.552,0,1-0.448,1-1s-0.448-1-1-1
		C1806.466,96.571,1806.018,97.018,1806.018,97.571z M811.932,129.977c0.552,0,1-0.448,1-1s-0.448-1-1-1s-1,0.448-1,1
		S811.38,129.977,811.932,129.977z M832.941,168.5c-0.829,0-1.5,0.672-1.5,1.5s0.671,1.5,1.5,1.5c0.828,0,1.5-0.672,1.5-1.5
		S833.769,168.5,832.941,168.5z M845.055,276.063c-1.105,0-2,0.895-2,2s0.895,2,2,2c1.104,0,2-0.895,2-2
		S846.16,276.063,845.055,276.063z M812.432,323.477c-0.829,0-1.5,0.672-1.5,1.5s0.671,1.5,1.5,1.5c0.828,0,1.5-0.672,1.5-1.5
		S813.26,323.477,812.432,323.477z M818.932,71.477c-0.829,0-1.5,0.672-1.5,1.5s0.671,1.5,1.5,1.5c0.828,0,1.5-0.672,1.5-1.5
		S819.76,71.477,818.932,71.477z M810.763,202.004c0.552,0,1-0.448,1-1s-0.448-1-1-1s-1,0.448-1,1S810.211,202.004,810.763,202.004z
		 M1094.932,268.977c-0.552,0-1,0.448-1,1s0.448,1,1,1s1-0.448,1-1S1095.484,268.977,1094.932,268.977z M1133.432,227.477
		c-0.829,0-1.5,0.672-1.5,1.5s0.671,1.5,1.5,1.5c0.828,0,1.5-0.672,1.5-1.5S1134.26,227.477,1133.432,227.477z M1135.932,241.977
		c-0.552,0-1,0.448-1,1s0.448,1,1,1s1-0.448,1-1S1136.484,241.977,1135.932,241.977z M1132.432,62.477c0-0.828-0.672-1.5-1.5-1.5
		c-0.829,0-1.5,0.672-1.5,1.5s0.671,1.5,1.5,1.5C1131.76,63.977,1132.432,63.305,1132.432,62.477z M1108.932,150.977
		c-0.829,0-1.5,0.672-1.5,1.5s0.671,1.5,1.5,1.5c0.828,0,1.5-0.672,1.5-1.5S1109.76,150.977,1108.932,150.977z M1681.513,272.063
		c-1.104,0-2,0.895-2,2s0.896,2,2,2s2-0.895,2-2S1682.618,272.063,1681.513,272.063z M1116.542,278.063c-1.104,0-2,0.895-2,2
		s0.896,2,2,2s2-0.895,2-2S1117.646,278.063,1116.542,278.063z M1174.039,166.068c-1.104,0-2,0.895-2,2c0,1.105,0.896,2,2,2
		s2-0.895,2-2C1176.039,166.964,1175.143,166.068,1174.039,166.068z M1155.932,131.977c-0.552,0-1,0.448-1,1s0.448,1,1,1
		s1-0.448,1-1S1156.484,131.977,1155.932,131.977z M1177.932,277.977c-0.829,0-1.5,0.672-1.5,1.5s0.671,1.5,1.5,1.5
		c0.828,0,1.5-0.672,1.5-1.5S1178.76,277.977,1177.932,277.977z M1180.932,182.977c-0.552,0-1,0.448-1,1s0.448,1,1,1s1-0.448,1-1
		S1181.484,182.977,1180.932,182.977z M1173.932,319.977c-0.829,0-1.5,0.672-1.5,1.5s0.671,1.5,1.5,1.5c0.828,0,1.5-0.672,1.5-1.5
		S1174.76,319.977,1173.932,319.977z M1101.432,315.477c-0.829,0-1.5,0.672-1.5,1.5s0.671,1.5,1.5,1.5c0.828,0,1.5-0.672,1.5-1.5
		S1102.26,315.477,1101.432,315.477z M1031.432,313.714c-0.829,0-1.5,0.672-1.5,1.5s0.671,1.5,1.5,1.5c0.828,0,1.5-0.672,1.5-1.5
		S1032.26,313.714,1031.432,313.714z M1030.432,187.477c0-0.828-0.672-1.5-1.5-1.5c-0.829,0-1.5,0.672-1.5,1.5s0.671,1.5,1.5,1.5
		C1029.76,188.977,1030.432,188.305,1030.432,187.477z M1026.932,273.977c-0.829,0-1.5,0.672-1.5,1.5s0.671,1.5,1.5,1.5
		c0.828,0,1.5-0.672,1.5-1.5S1027.76,273.977,1026.932,273.977z M1180.038,95.072c-1.104,0-2,0.895-2,2s0.896,2,2,2s2-0.895,2-2
		S1181.143,95.072,1180.038,95.072z M999.932,156.977c-0.552,0-1,0.448-1,1s0.448,1,1,1s1-0.448,1-1
		S1000.484,156.977,999.932,156.977z M996.932,86.977c-0.552,0-1,0.448-1,1s0.448,1,1,1s1-0.448,1-1S997.484,86.977,996.932,86.977z
		 M1016.547,236.565c-1.104,0-2,0.895-2,2c0,1.105,0.896,2,2,2s2-0.895,2-2C1018.547,237.46,1017.651,236.565,1016.547,236.565z
		 M1048.545,121.07c-1.104,0-2,0.895-2,2c0,1.105,0.896,2,2,2c1.105,0,2-0.895,2-2C1050.545,121.966,1049.65,121.07,1048.545,121.07
		z M1090.543,184.567c-1.104,0-2,0.895-2,2s0.896,2,2,2s2-0.895,2-2S1091.647,184.567,1090.543,184.567z M1090.543,105.071
		c0-1.105-0.896-2-2-2s-2,0.895-2,2s0.896,2,2,2S1090.543,106.176,1090.543,105.071z M1072.301,289.562c-1.104,0-2,0.895-2,2
		s0.896,2,2,2s2-0.895,2-2S1073.405,289.562,1072.301,289.562z M1068.932,60.977c-0.829,0-1.5,0.672-1.5,1.5s0.671,1.5,1.5,1.5
		c0.828,0,1.5-0.672,1.5-1.5S1069.76,60.977,1068.932,60.977z M2006.997,139.07c-1.104,0-2,0.895-2,2c0,1.105,0.896,2,2,2
		s2-0.895,2-2C2008.997,139.965,2008.101,139.07,2006.997,139.07z M1943.018,201.571c-0.553,0-1,0.448-1,1s0.447,1,1,1
		c0.552,0,1-0.448,1-1S1943.571,201.571,1943.018,201.571z M1936.244,289.562c-1.105,0-2,0.895-2,2s0.895,2,2,2c1.104,0,2-0.895,2-2
		S1937.348,289.562,1936.244,289.562z M1920.001,103.071c-1.104,0-2,0.895-2,2s0.896,2,2,2s2-0.895,2-2
		S1921.106,103.071,1920.001,103.071z M1920.018,259.571c-0.553,0-1,0.448-1,1s0.447,1,1,1c0.552,0,1-0.448,1-1
		S1920.571,259.571,1920.018,259.571z M1960,121.07c-1.105,0-2,0.895-2,2c0,1.105,0.895,2,2,2c1.104,0,2-0.895,2-2
		C1962,121.966,1961.104,121.07,1960,121.07z M1928.432,310.477c-0.829,0-1.5,0.672-1.5,1.5s0.671,1.5,1.5,1.5
		c0.828,0,1.5-0.672,1.5-1.5S1929.26,310.477,1928.432,310.477z M2015.018,147.571c-0.553,0-1,0.448-1,1s0.447,1,1,1
		c0.552,0,1-0.448,1-1S2015.571,147.571,2015.018,147.571z M1998.932,276.977c-0.829,0-1.5,0.672-1.5,1.5s0.671,1.5,1.5,1.5
		c0.828,0,1.5-0.672,1.5-1.5S1999.76,276.977,1998.932,276.977z M1992.432,181.477c0-0.828-0.672-1.5-1.5-1.5
		c-0.829,0-1.5,0.672-1.5,1.5s0.671,1.5,1.5,1.5C1991.76,182.977,1992.432,182.305,1992.432,181.477z M1991.998,236.565
		c-1.104,0-2,0.895-2,2c0,1.105,0.896,2,2,2s2-0.895,2-2C1993.998,237.46,1993.102,236.565,1991.998,236.565z M1834.506,166.068
		c-1.104,0-2,0.895-2,2c0,1.105,0.896,2,2,2s2-0.895,2-2C1836.506,166.964,1835.61,166.068,1834.506,166.068z M1860.018,123.571
		c0-0.552-0.448-1-1-1c-0.553,0-1,0.448-1,1s0.447,1,1,1C1859.571,124.571,1860.018,124.123,1860.018,123.571z M2018.018,77.571
		c-0.553,0-1,0.448-1,1s0.447,1,1,1c0.552,0,1-0.448,1-1S2018.571,77.571,2018.018,77.571z M1834.018,173.571c-0.553,0-1,0.448-1,1
		s0.447,1,1,1c0.552,0,1-0.448,1-1S1834.571,173.571,1834.018,173.571z M1828.506,95.072c-1.104,0-2,0.895-2,2s0.896,2,2,2
		s2-0.895,2-2S1829.611,95.072,1828.506,95.072z M1859.932,328.665c-0.829,0-1.5,0.672-1.5,1.5s0.671,1.5,1.5,1.5
		c0.828,0,1.5-0.672,1.5-1.5S1860.76,328.665,1859.932,328.665z M1879.018,232.571c-0.553,0-1,0.448-1,1s0.447,1,1,1
		c0.552,0,1-0.448,1-1S1879.571,232.571,1879.018,232.571z M1866.932,225.977c-0.829,0-1.5,0.672-1.5,1.5s0.671,1.5,1.5,1.5
		c0.828,0,1.5-0.672,1.5-1.5S1867.76,225.977,1866.932,225.977z M1920.002,186.567c0-1.105-0.896-2-2-2s-2,0.895-2,2s0.896,2,2,2
		S1920.002,187.672,1920.002,186.567z M1878.932,136.977c0-0.828-0.672-1.5-1.5-1.5c-0.829,0-1.5,0.672-1.5,1.5s0.671,1.5,1.5,1.5
		C1878.26,138.477,1878.932,137.805,1878.932,136.977z M1872.932,59.977c-0.829,0-1.5,0.672-1.5,1.5s0.671,1.5,1.5,1.5
		c0.828,0,1.5-0.672,1.5-1.5S1873.76,59.977,1872.932,59.977z M2167.432,55.477c0-0.828-0.672-1.5-1.5-1.5
		c-0.829,0-1.5,0.672-1.5,1.5s0.671,1.5,1.5,1.5C2166.76,56.977,2167.432,56.305,2167.432,55.477z M2163.489,276.063
		c-1.104,0-2,0.895-2,2s0.896,2,2,2c1.105,0,2-0.895,2-2S2164.594,276.063,2163.489,276.063z M1819.006,237.565
		c-1.104,0-2,0.895-2,2c0,1.105,0.896,2,2,2c1.105,0,2-0.895,2-2C1821.006,238.46,1820.111,237.565,1819.006,237.565z
		 M2176.932,91.977c-0.829,0-1.5,0.672-1.5,1.5s0.671,1.5,1.5,1.5c0.828,0,1.5-0.672,1.5-1.5S2177.76,91.977,2176.932,91.977z
		 M2204.018,192.571c0-0.552-0.448-1-1-1c-0.553,0-1,0.448-1,1s0.447,1,1,1C2203.571,193.571,2204.018,193.123,2204.018,192.571z
		 M2040.995,250.064c-1.104,0-2,0.895-2,2c0,1.105,0.896,2,2,2s2-0.895,2-2C2042.995,250.96,2042.1,250.064,2040.995,250.064z
		 M2142.99,123.07c-1.104,0-2,0.895-2,2c0,1.105,0.896,2,2,2s2-0.895,2-2C2144.99,123.966,2144.095,123.07,2142.99,123.07z
		 M2168.432,174.477c-0.829,0-1.5,0.672-1.5,1.5s0.671,1.5,1.5,1.5c0.828,0,1.5-0.672,1.5-1.5S2169.26,174.477,2168.432,174.477z
		 M2058.24,173.47c-0.829,0-1.5,0.672-1.5,1.5s0.671,1.5,1.5,1.5c0.828,0,1.5-0.672,1.5-1.5S2059.069,173.47,2058.24,173.47z
		 M2075.432,114.477c0-0.828-0.672-1.5-1.5-1.5c-0.829,0-1.5,0.672-1.5,1.5s0.671,1.5,1.5,1.5
		C2074.76,115.977,2075.432,115.305,2075.432,114.477z M2134.87,220.499c-0.552,0-1,0.448-1,1s0.448,1,1,1s1-0.448,1-1
		S2135.422,220.499,2134.87,220.499z M2048.995,304.061c-1.104,0-2,0.895-2,2c0,1.105,0.896,2,2,2s2-0.895,2-2
		C2050.995,304.957,2050.099,304.061,2048.995,304.061z M2076.493,323.06c-1.104,0-2,0.895-2,2c0,1.105,0.896,2,2,2
		c1.105,0,2-0.895,2-2C2078.493,323.956,2077.598,323.06,2076.493,323.06z M2131.491,80.573c-1.105,0-2,0.895-2,2
		c0,1.105,0.895,2,2,2c1.104,0,2-0.895,2-2C2133.491,81.468,2132.595,80.573,2131.491,80.573z M2114.991,164.068
		c-1.104,0-2,0.895-2,2c0,1.105,0.896,2,2,2s2-0.895,2-2C2116.991,164.964,2116.096,164.068,2114.991,164.068z M2089.435,236.593
		c-0.552,0-1,0.448-1,1s0.448,1,1,1s1-0.448,1-1S2089.987,236.593,2089.435,236.593z M2095.932,283.977c-0.829,0-1.5,0.672-1.5,1.5
		s0.671,1.5,1.5,1.5c0.828,0,1.5-0.672,1.5-1.5S2096.76,283.977,2095.932,283.977z M1892.003,278.063c-1.104,0-2,0.895-2,2
		s0.896,2,2,2s2-0.895,2-2S1893.107,278.063,1892.003,278.063z M1695.625,185.977c-1.104,0-2,0.895-2,2s0.896,2,2,2s2-0.895,2-2
		S1696.729,185.977,1695.625,185.977z M1805.432,297.477c-0.829,0-1.5,0.672-1.5,1.5s0.671,1.5,1.5,1.5c0.828,0,1.5-0.672,1.5-1.5
		S1806.26,297.477,1805.432,297.477z M1800.508,84.572c-1.104,0-2,0.895-2,2c0,1.105,0.896,2,2,2s2-0.895,2-2
		C1802.508,85.468,1801.612,84.572,1800.508,84.572z M1738.432,74.477c-0.829,0-1.5,0.672-1.5,1.5s0.671,1.5,1.5,1.5
		c0.828,0,1.5-0.672,1.5-1.5S1739.26,74.477,1738.432,74.477z M1709.066,201.566c-1.104,0-2,0.895-2,2s0.896,2,2,2s2-0.895,2-2
		S1710.17,201.566,1709.066,201.566z M1751.932,168.477c-0.829,0-1.5,0.672-1.5,1.5s0.671,1.5,1.5,1.5c0.828,0,1.5-0.672,1.5-1.5
		S1752.76,168.477,1751.932,168.477z M1702.018,230.571c-0.553,0-1,0.448-1,1s0.447,1,1,1c0.552,0,1-0.448,1-1
		S1702.571,230.571,1702.018,230.571z M1791.98,136.525c-0.828,0-1.5,0.672-1.5,1.5s0.672,1.5,1.5,1.5c0.829,0,1.5-0.672,1.5-1.5
		S1792.809,136.525,1791.98,136.525z M1745.932,237.477c-0.829,0-1.5,0.672-1.5,1.5s0.671,1.5,1.5,1.5c0.828,0,1.5-0.672,1.5-1.5
		S1746.76,237.477,1745.932,237.477z M1777.138,126.858c-0.552,0-1,0.448-1,1s0.448,1,1,1s1-0.448,1-1
		S1777.691,126.858,1777.138,126.858z M1733.018,196.571c-0.553,0-1,0.448-1,1s0.447,1,1,1c0.552,0,1-0.448,1-1
		S1733.571,196.571,1733.018,196.571z M1807.007,212.066c-1.104,0-2,0.895-2,2s0.896,2,2,2s2-0.895,2-2
		S1808.112,212.066,1807.007,212.066z M1696.018,300.571c0-0.552-0.448-1-1-1c-0.553,0-1,0.448-1,1s0.447,1,1,1
		C1695.571,301.571,1696.018,301.123,1696.018,300.571z M1731.511,287.562c-1.105,0-2,0.895-2,2s0.895,2,2,2c1.104,0,2-0.895,2-2
		S1732.615,287.562,1731.511,287.562z M1695.932,318.977c-0.829,0-1.5,0.672-1.5,1.5s0.671,1.5,1.5,1.5c0.828,0,1.5-0.672,1.5-1.5
		S1696.76,318.977,1695.932,318.977z M1716.511,119.07c-1.104,0-2,0.895-2,2c0,1.105,0.896,2,2,2s2-0.895,2-2
		C1718.511,119.966,1717.616,119.07,1716.511,119.07z M1775.009,306.561c-1.104,0-2,0.895-2,2s0.896,2,2,2s2-0.895,2-2
		S1776.113,306.561,1775.009,306.561z M881.123,29.573c-1.104,0-2,0.895-2,2c0,1.105,0.896,2,2,2s2-0.895,2-2
		C883.123,30.468,882.227,29.573,881.123,29.573z M994.595,34.575c-0.552,0-1,0.448-1,1s0.448,1,1,1s1-0.448,1-1
		S995.148,34.575,994.595,34.575z M2135.56,29.573c-1.104,0-2,0.895-2,2c0,1.105,0.896,2,2,2s2-0.895,2-2
		C2137.56,30.468,2136.664,29.573,2135.56,29.573z M950.619,59.571c-1.104,0-2,0.895-2,2s0.896,2,2,2s2-0.895,2-2
		S951.723,59.571,950.619,59.571z M1699.682,58.168c0.828,0,1.5-0.672,1.5-1.5s-0.672-1.5-1.5-1.5c-0.829,0-1.5,0.672-1.5,1.5
		S1698.853,58.168,1699.682,58.168z M1804.682,8.168c0.552,0,1-0.448,1-1s-0.448-1-1-1s-1,0.448-1,1S1804.13,8.168,1804.682,8.168z
		 M2193.682,39.668c-0.829,0-1.5,0.672-1.5,1.5s0.671,1.5,1.5,1.5c0.828,0,1.5-0.672,1.5-1.5S2194.51,39.668,2193.682,39.668z
		 M1011.616,47.072c-1.104,0-2,0.895-2,2c0,1.105,0.896,2,2,2s2-0.895,2-2C1013.616,47.967,1012.72,47.072,1011.616,47.072z
		 M846.682,57.168c-0.829,0-1.5,0.672-1.5,1.5s0.671,1.5,1.5,1.5c0.828,0,1.5-0.672,1.5-1.5S847.51,57.168,846.682,57.168z
		 M835.682,19.168c-0.829,0-1.5,0.672-1.5,1.5s0.671,1.5,1.5,1.5c0.828,0,1.5-0.672,1.5-1.5S836.51,19.168,835.682,19.168z
		 M1881.682,50.168c-0.829,0-1.5,0.672-1.5,1.5s0.671,1.5,1.5,1.5c0.828,0,1.5-0.672,1.5-1.5S1882.51,50.168,1881.682,50.168z
		 M1690.182,15.668c-0.829,0-1.5,0.672-1.5,1.5s0.671,1.5,1.5,1.5c0.828,0,1.5-0.672,1.5-1.5S1691.01,15.668,1690.182,15.668z
		 M1275.682,38.168c0-0.828-0.672-1.5-1.5-1.5c-0.829,0-1.5,0.672-1.5,1.5s0.671,1.5,1.5,1.5
		C1275.01,39.668,1275.682,38.997,1275.682,38.168z M1778.182,69.668c-0.829,0-1.5,0.672-1.5,1.5s0.671,1.5,1.5,1.5
		c0.828,0,1.5-0.672,1.5-1.5S1779.01,69.668,1778.182,69.668z M1924.07,7.074c-1.104,0-2,0.895-2,2s0.896,2,2,2c1.105,0,2-0.895,2-2
		S1925.175,7.074,1924.07,7.074z M1206.595,16.575c0-0.552-0.448-1-1-1s-1,0.448-1,1s0.448,1,1,1S1206.595,17.127,1206.595,16.575z
		 M1212.106,25.573c-1.104,0-2,0.895-2,2c0,1.105,0.896,2,2,2s2-0.895,2-2C1214.106,26.468,1213.211,25.573,1212.106,25.573z
		 M1184.107,15.074c-1.104,0-2,0.895-2,2s0.896,2,2,2s2-0.895,2-2S1185.212,15.074,1184.107,15.074z M1834.575,17.074
		c0-1.105-0.895-2-2-2c-1.104,0-2,0.895-2,2s0.896,2,2,2C1833.68,19.074,1834.575,18.178,1834.575,17.074z M1806.576,27.573
		c0-1.105-0.896-2-2-2s-2,0.895-2,2c0,1.105,0.896,2,2,2S1806.576,28.678,1806.576,27.573z M2066.063,59.571c-1.104,0-2,0.895-2,2
		s0.896,2,2,2s2-0.895,2-2S2067.168,59.571,2066.063,59.571z M2015.682,25.168c-0.552,0-1,0.448-1,1s0.448,1,1,1s1-0.448,1-1
		S2016.234,25.168,2015.682,25.168z M2007.066,49.072c0-1.105-0.896-2-2-2s-2,0.895-2,2c0,1.105,0.896,2,2,2
		S2007.066,50.177,2007.066,49.072z M2070.682,10.168c-0.829,0-1.5,0.672-1.5,1.5s0.671,1.5,1.5,1.5c0.828,0,1.5-0.672,1.5-1.5
		S2071.51,10.168,2070.682,10.168z M1745.182,35.168c0-0.828-0.672-1.5-1.5-1.5c-0.829,0-1.5,0.672-1.5,1.5s0.671,1.5,1.5,1.5
		C1744.51,36.668,1745.182,35.997,1745.182,35.168z M1094.612,9.074c0-1.105-0.896-2-2-2s-2,0.895-2,2s0.896,2,2,2
		S1094.612,10.178,1094.612,9.074z M1141.182,52.668c0-0.828-0.672-1.5-1.5-1.5c-0.829,0-1.5,0.672-1.5,1.5s0.671,1.5,1.5,1.5
		C1140.51,54.168,1141.182,53.497,1141.182,52.668z M1943.682,50.168c-0.829,0-1.5,0.672-1.5,1.5s0.671,1.5,1.5,1.5
		c0.828,0,1.5-0.672,1.5-1.5S1944.51,50.168,1943.682,50.168z M1277.019,287.471c-1.105,0-2,0.895-2,2s0.895,2,2,2
		c1.104,0,2-0.895,2-2S1278.124,287.471,1277.019,287.471z M290.194,96.318c-0.829,0-1.5,0.672-1.5,1.5s0.671,1.5,1.5,1.5
		c0.828,0,1.5-0.672,1.5-1.5S291.022,96.318,290.194,96.318z M313.694,146.818c-0.552,0-1,0.448-1,1s0.448,1,1,1s1-0.448,1-1
		S314.246,146.818,313.694,146.818z M280.694,56.818c-0.829,0-1.5,0.672-1.5,1.5s0.671,1.5,1.5,1.5c0.828,0,1.5-0.672,1.5-1.5
		S281.522,56.818,280.694,56.818z M188.194,329.165c-0.552,0-1,0.448-1,1s0.448,1,1,1s1-0.448,1-1S188.746,329.165,188.194,329.165z
		 M137.801,274.063c-1.104,0-2,0.895-2,2c0,1.105,0.896,2,2,2c1.105,0,2-0.895,2-2C139.801,274.958,138.906,274.063,137.801,274.063
		z M16.429,183.977c-1.104,0-2,0.895-2,2s0.896,2,2,2s2-0.895,2-2S17.534,183.977,16.429,183.977z M116.468,300.571
		c-0.552,0-1,0.448-1,1s0.448,1,1,1s1-0.448,1-1S117.02,300.571,116.468,300.571z M236.694,78.318c-0.829,0-1.5,0.672-1.5,1.5
		s0.671,1.5,1.5,1.5c0.828,0,1.5-0.672,1.5-1.5S237.522,78.318,236.694,78.318z M174.694,107.818c0,0.552,0.448,1,1,1s1-0.448,1-1
		s-0.448-1-1-1S174.694,107.265,174.694,107.818z M175.799,89.413c1.104,0,2-0.895,2-2c0-1.105-0.896-2-2-2s-2,0.895-2,2
		C173.799,88.517,174.694,89.413,175.799,89.413z M259.795,119.911c-1.104,0-2,0.895-2,2c0,1.105,0.896,2,2,2s2-0.895,2-2
		C261.795,120.806,260.899,119.911,259.795,119.911z M450.42,258.571c-0.552,0-1,0.448-1,1s0.448,1,1,1s1-0.448,1-1
		S450.972,258.571,450.42,258.571z M28.928,220.066c-1.104,0-2,0.895-2,2c0,1.105,0.896,2,2,2s2-0.895,2-2
		C30.928,220.961,30.033,220.066,28.928,220.066z M204.194,167.318c-0.829,0-1.5,0.672-1.5,1.5s0.671,1.5,1.5,1.5
		c0.828,0,1.5-0.672,1.5-1.5S205.022,167.318,204.194,167.318z M226.918,183.977c-1.104,0-2,0.895-2,2s0.896,2,2,2s2-0.895,2-2
		S228.023,183.977,226.918,183.977z M214.419,220.066c-1.105,0-2,0.895-2,2c0,1.105,0.895,2,2,2c1.104,0,2-0.895,2-2
		C216.419,220.961,215.524,220.066,214.419,220.066z M235.418,119.571c-1.104,0-2,0.895-2,2c0,1.105,0.896,2,2,2
		c1.105,0,2-0.895,2-2C237.418,120.466,236.523,119.571,235.418,119.571z M213.42,186.571c0-0.552-0.448-1-1-1c-0.553,0-1,0.448-1,1
		s0.447,1,1,1C212.972,187.571,213.42,187.123,213.42,186.571z M108.444,193.48c0-0.552-0.448-1-1-1c-0.553,0-1,0.448-1,1
		s0.447,1,1,1C107.996,194.48,108.444,194.032,108.444,193.48z M207.419,289.562c-1.104,0-2,0.895-2,2s0.896,2,2,2s2-0.895,2-2
		S208.524,289.562,207.419,289.562z M35.928,289.562c-1.104,0-2,0.895-2,2s0.896,2,2,2s2-0.895,2-2S37.033,289.562,35.928,289.562z
		 M269.833,221.477c-0.829,0-1.5,0.672-1.5,1.5s0.671,1.5,1.5,1.5c0.828,0,1.5-0.672,1.5-1.5S270.661,221.477,269.833,221.477z
		 M286.42,136.571c-0.553,0-1,0.448-1,1s0.447,1,1,1c0.552,0,1-0.448,1-1S286.972,136.571,286.42,136.571z M275.794,158.528
		c-0.829,0-1.5,0.672-1.5,1.5s0.671,1.5,1.5,1.5s1.5-0.672,1.5-1.5S276.623,158.528,275.794,158.528z M259.42,264.571
		c-0.553,0-1,0.448-1,1s0.447,1,1,1c0.552,0,1-0.448,1-1S259.972,264.571,259.42,264.571z M202.42,115.571c-0.553,0-1,0.448-1,1
		s0.447,1,1,1c0.552,0,1-0.448,1-1S202.972,115.571,202.42,115.571z M258.333,304.477c-0.829,0-1.5,0.672-1.5,1.5s0.671,1.5,1.5,1.5
		c0.828,0,1.5-0.672,1.5-1.5S259.161,304.477,258.333,304.477z M241.833,261.477c-0.829,0-1.5,0.672-1.5,1.5s0.671,1.5,1.5,1.5
		c0.828,0,1.5-0.672,1.5-1.5S242.661,261.477,241.833,261.477z M199.42,250.571c-0.553,0-1,0.448-1,1s0.447,1,1,1
		c0.552,0,1-0.448,1-1S199.972,250.571,199.42,250.571z M50.333,259.977c-0.552,0-1,0.448-1,1s0.448,1,1,1s1-0.448,1-1
		S50.886,259.977,50.333,259.977z M103.925,268.977c-1.105,0-2,0.895-2,2s0.895,2,2,2c1.104,0,2-0.895,2-2
		S105.029,268.977,103.925,268.977z M90.983,219.284c-0.829,0-1.5,0.672-1.5,1.5s0.671,1.5,1.5,1.5s1.5-0.672,1.5-1.5
		S91.812,219.284,90.983,219.284z M37.333,194.977c-0.552,0-1,0.448-1,1s0.448,1,1,1s1-0.448,1-1S37.886,194.977,37.333,194.977z
		 M47.333,124.977c-0.552,0-1,0.448-1,1s0.448,1,1,1s1-0.448,1-1S47.886,124.977,47.333,124.977z M163.833,224.477
		c-0.829,0-1.5,0.672-1.5,1.5s0.671,1.5,1.5,1.5c0.828,0,1.5-0.672,1.5-1.5S164.661,224.477,163.833,224.477z M143.42,128.571
		c-0.553,0-1,0.448-1,1s0.447,1,1,1c0.552,0,1-0.448,1-1S143.972,128.571,143.42,128.571z M106.333,137.977c-0.552,0-1,0.448-1,1
		s0.448,1,1,1s1-0.448,1-1S106.886,137.977,106.333,137.977z M109.694,117.818c-0.829,0-1.5,0.672-1.5,1.5s0.671,1.5,1.5,1.5
		c0.828,0,1.5-0.672,1.5-1.5S110.522,117.818,109.694,117.818z M201.694,141.818c0,0.552,0.448,1,1,1s1-0.448,1-1s-0.448-1-1-1
		S201.694,141.265,201.694,141.818z M202.194,42.318c-0.829,0-1.5,0.672-1.5,1.5s0.671,1.5,1.5,1.5c0.828,0,1.5-0.672,1.5-1.5
		S203.022,42.318,202.194,42.318z M423.42,97.571c0,0.552,0.447,1,1,1c0.552,0,1-0.448,1-1s-0.448-1-1-1
		C423.867,96.571,423.42,97.018,423.42,97.571z M153.475,292.562c-0.552,0-1,0.448-1,1s0.448,1,1,1s1-0.448,1-1
		S154.027,292.562,153.475,292.562z M100.194,63.318c0-0.828-0.672-1.5-1.5-1.5c-0.829,0-1.5,0.672-1.5,1.5s0.671,1.5,1.5,1.5
		C99.522,64.818,100.194,64.146,100.194,63.318z M76.694,151.818c-0.829,0-1.5,0.672-1.5,1.5s0.671,1.5,1.5,1.5
		c0.828,0,1.5-0.672,1.5-1.5S77.522,151.818,76.694,151.818z M298.915,272.063c-1.104,0-2,0.895-2,2s0.896,2,2,2s2-0.895,2-2
		S300.019,272.063,298.915,272.063z M141.801,166.909c-1.104,0-2,0.895-2,2c0,1.105,0.896,2,2,2s2-0.895,2-2
		C143.801,167.804,142.905,166.909,141.801,166.909z M166.333,265.571c-0.552,0-1,0.448-1,1s0.448,1,1,1s1-0.448,1-1
		S166.886,265.571,166.333,265.571z M147.8,95.912c-1.104,0-2,0.895-2,2s0.896,2,2,2s2-0.895,2-2S148.905,95.912,147.8,95.912z
		 M16.306,121.911c-1.104,0-2,0.895-2,2c0,1.105,0.896,2,2,2c1.105,0,2-0.895,2-2C18.306,122.806,17.411,121.911,16.306,121.911z
		 M58.305,105.912c0-1.105-0.896-2-2-2s-2,0.895-2,2s0.896,2,2,2S58.305,107.017,58.305,105.912z M36.694,61.818
		c-0.829,0-1.5,0.672-1.5,1.5s0.671,1.5,1.5,1.5c0.828,0,1.5-0.672,1.5-1.5S37.522,61.818,36.694,61.818z M624.398,139.07
		c-1.104,0-2,0.895-2,2c0,1.105,0.896,2,2,2s2-0.895,2-2C626.398,139.965,625.503,139.07,624.398,139.07z M560.42,201.571
		c-0.553,0-1,0.448-1,1s0.447,1,1,1c0.552,0,1-0.448,1-1S560.972,201.571,560.42,201.571z M553.645,289.562c-1.105,0-2,0.895-2,2
		s0.895,2,2,2c1.104,0,2-0.895,2-2S554.75,289.562,553.645,289.562z M537.403,103.071c-1.104,0-2,0.895-2,2s0.896,2,2,2s2-0.895,2-2
		S538.507,103.071,537.403,103.071z M537.42,259.571c-0.553,0-1,0.448-1,1s0.447,1,1,1c0.552,0,1-0.448,1-1
		S537.972,259.571,537.42,259.571z M598.908,296.833c-0.553,0-1,0.448-1,1s0.447,1,1,1c0.552,0,1-0.448,1-1
		S599.46,296.833,598.908,296.833z M577.401,121.07c-1.105,0-2,0.895-2,2c0,1.105,0.895,2,2,2c1.104,0,2-0.895,2-2
		C579.401,121.966,578.506,121.07,577.401,121.07z M545.833,310.477c-0.829,0-1.5,0.672-1.5,1.5s0.671,1.5,1.5,1.5
		c0.828,0,1.5-0.672,1.5-1.5S546.661,310.477,545.833,310.477z M632.42,147.571c-0.553,0-1,0.448-1,1s0.447,1,1,1
		c0.552,0,1-0.448,1-1S632.972,147.571,632.42,147.571z M616.333,276.977c-0.829,0-1.5,0.672-1.5,1.5s0.671,1.5,1.5,1.5
		c0.828,0,1.5-0.672,1.5-1.5S617.161,276.977,616.333,276.977z M609.833,181.477c0-0.828-0.672-1.5-1.5-1.5
		c-0.829,0-1.5,0.672-1.5,1.5s0.671,1.5,1.5,1.5C609.161,182.977,609.833,182.305,609.833,181.477z M609.399,236.565
		c-1.104,0-2,0.895-2,2c0,1.105,0.896,2,2,2s2-0.895,2-2C611.399,237.46,610.504,236.565,609.399,236.565z M453.617,166.603
		c-1.104,0-2,0.895-2,2c0,1.105,0.896,2,2,2s2-0.895,2-2C455.617,167.499,454.722,166.603,453.617,166.603z M477.42,123.571
		c0-0.552-0.448-1-1-1c-0.553,0-1,0.448-1,1s0.447,1,1,1C476.972,124.571,477.42,124.123,477.42,123.571z M635.42,77.571
		c-0.553,0-1,0.448-1,1s0.447,1,1,1c0.552,0,1-0.448,1-1S635.972,77.571,635.42,77.571z M451.42,173.571c-0.553,0-1,0.448-1,1
		s0.447,1,1,1c0.552,0,1-0.448,1-1S451.972,173.571,451.42,173.571z M445.908,95.072c-1.104,0-2,0.895-2,2s0.896,2,2,2s2-0.895,2-2
		S447.012,95.072,445.908,95.072z M477.333,328.665c-0.829,0-1.5,0.672-1.5,1.5s0.671,1.5,1.5,1.5c0.828,0,1.5-0.672,1.5-1.5
		S478.161,328.665,477.333,328.665z M496.42,232.571c-0.553,0-1,0.448-1,1s0.447,1,1,1c0.552,0,1-0.448,1-1
		S496.972,232.571,496.42,232.571z M484.333,225.977c-0.829,0-1.5,0.672-1.5,1.5s0.671,1.5,1.5,1.5c0.828,0,1.5-0.672,1.5-1.5
		S485.161,225.977,484.333,225.977z M537.403,186.567c0-1.105-0.896-2-2-2s-2,0.895-2,2s0.896,2,2,2
		S537.403,187.672,537.403,186.567z M496.333,136.977c0-0.828-0.672-1.5-1.5-1.5c-0.829,0-1.5,0.672-1.5,1.5s0.671,1.5,1.5,1.5
		C495.661,138.477,496.333,137.805,496.333,136.977z M490.333,59.977c-0.829,0-1.5,0.672-1.5,1.5s0.671,1.5,1.5,1.5
		c0.828,0,1.5-0.672,1.5-1.5S491.161,59.977,490.333,59.977z M775.42,295.571c-0.553,0-1,0.448-1,1s0.447,1,1,1c0.552,0,1-0.448,1-1
		S775.972,295.571,775.42,295.571z M780.89,229.057c-1.104,0-2,0.895-2,2s0.896,2,2,2c1.105,0,2-0.895,2-2
		S781.995,229.057,780.89,229.057z M784.833,55.477c0-0.828-0.672-1.5-1.5-1.5c-0.829,0-1.5,0.672-1.5,1.5s0.671,1.5,1.5,1.5
		C784.161,56.977,784.833,56.305,784.833,55.477z M780.89,276.063c-1.104,0-2,0.895-2,2s0.896,2,2,2c1.105,0,2-0.895,2-2
		S781.995,276.063,780.89,276.063z M780.333,315.977c-0.829,0-1.5,0.672-1.5,1.5s0.671,1.5,1.5,1.5c0.828,0,1.5-0.672,1.5-1.5
		S781.161,315.977,780.333,315.977z M441.908,234.565c-1.104,0-2,0.895-2,2c0,1.105,0.896,2,2,2c1.105,0,2-0.895,2-2
		C443.908,235.46,443.013,234.565,441.908,234.565z M794.333,91.977c-0.829,0-1.5,0.672-1.5,1.5s0.671,1.5,1.5,1.5
		c0.828,0,1.5-0.672,1.5-1.5S795.161,91.977,794.333,91.977z M658.397,250.064c-1.104,0-2,0.895-2,2c0,1.105,0.896,2,2,2
		s2-0.895,2-2C660.397,250.96,659.501,250.064,658.397,250.064z M760.392,123.07c-1.104,0-2,0.895-2,2c0,1.105,0.896,2,2,2
		s2-0.895,2-2C762.392,123.966,761.496,123.07,760.392,123.07z M785.833,174.477c-0.829,0-1.5,0.672-1.5,1.5s0.671,1.5,1.5,1.5
		c0.828,0,1.5-0.672,1.5-1.5S786.661,174.477,785.833,174.477z M675.642,173.47c-0.829,0-1.5,0.672-1.5,1.5s0.671,1.5,1.5,1.5
		c0.828,0,1.5-0.672,1.5-1.5S676.47,173.47,675.642,173.47z M692.833,114.477c0-0.828-0.672-1.5-1.5-1.5c-0.829,0-1.5,0.672-1.5,1.5
		s0.671,1.5,1.5,1.5C692.161,115.977,692.833,115.305,692.833,114.477z M752.271,220.499c-0.552,0-1,0.448-1,1s0.448,1,1,1
		s1-0.448,1-1S752.824,220.499,752.271,220.499z M666.396,304.061c-1.104,0-2,0.895-2,2c0,1.105,0.896,2,2,2s2-0.895,2-2
		C668.396,304.957,667.501,304.061,666.396,304.061z M693.895,323.06c-1.104,0-2,0.895-2,2c0,1.105,0.896,2,2,2c1.105,0,2-0.895,2-2
		C695.895,323.956,695,323.06,693.895,323.06z M748.892,80.573c-1.105,0-2,0.895-2,2c0,1.105,0.895,2,2,2c1.104,0,2-0.895,2-2
		C750.892,81.468,749.997,80.573,748.892,80.573z M732.393,164.068c-1.104,0-2,0.895-2,2c0,1.105,0.896,2,2,2s2-0.895,2-2
		C734.393,164.964,733.497,164.068,732.393,164.068z M706.836,236.593c-0.552,0-1,0.448-1,1s0.448,1,1,1s1-0.448,1-1
		S707.388,236.593,706.836,236.593z M713.333,283.977c-0.829,0-1.5,0.672-1.5,1.5s0.671,1.5,1.5,1.5c0.828,0,1.5-0.672,1.5-1.5
		S714.161,283.977,713.333,283.977z M509.404,278.063c-1.104,0-2,0.895-2,2s0.896,2,2,2s2-0.895,2-2
		S510.509,278.063,509.404,278.063z M316.414,181.977c-1.104,0-2,0.895-2,2s0.896,2,2,2s2-0.895,2-2
		S317.518,181.977,316.414,181.977z M422.833,297.477c-0.829,0-1.5,0.672-1.5,1.5s0.671,1.5,1.5,1.5c0.828,0,1.5-0.672,1.5-1.5
		S423.661,297.477,422.833,297.477z M417.909,84.572c-1.104,0-2,0.895-2,2c0,1.105,0.896,2,2,2s2-0.895,2-2
		C419.909,85.468,419.014,84.572,417.909,84.572z M355.833,74.477c-0.829,0-1.5,0.672-1.5,1.5s0.671,1.5,1.5,1.5
		c0.828,0,1.5-0.672,1.5-1.5S356.661,74.477,355.833,74.477z M321.413,199.566c-1.104,0-2,0.895-2,2s0.896,2,2,2s2-0.895,2-2
		S322.518,199.566,321.413,199.566z M369.333,168.477c-0.829,0-1.5,0.672-1.5,1.5s0.671,1.5,1.5,1.5c0.828,0,1.5-0.672,1.5-1.5
		S370.161,168.477,369.333,168.477z M114.924,184.477c-0.829,0-1.5,0.672-1.5,1.5s0.671,1.5,1.5,1.5c0.828,0,1.5-0.672,1.5-1.5
		S115.753,184.477,114.924,184.477z M319.42,230.571c-0.553,0-1,0.448-1,1s0.447,1,1,1c0.552,0,1-0.448,1-1
		S319.972,230.571,319.42,230.571z M409.382,136.525c-0.828,0-1.5,0.672-1.5,1.5s0.672,1.5,1.5,1.5c0.829,0,1.5-0.672,1.5-1.5
		S410.21,136.525,409.382,136.525z M361.833,235.093c-0.829,0-1.5,0.672-1.5,1.5s0.671,1.5,1.5,1.5c0.828,0,1.5-0.672,1.5-1.5
		S362.661,235.093,361.833,235.093z M394.54,126.858c-0.552,0-1,0.448-1,1s0.448,1,1,1s1-0.448,1-1S395.092,126.858,394.54,126.858z
		 M350.42,196.571c-0.553,0-1,0.448-1,1s0.447,1,1,1c0.552,0,1-0.448,1-1S350.972,196.571,350.42,196.571z M424.409,212.066
		c-1.104,0-2,0.895-2,2s0.896,2,2,2s2-0.895,2-2S425.513,212.066,424.409,212.066z M313.42,300.571c0-0.552-0.448-1-1-1
		c-0.553,0-1,0.448-1,1s0.447,1,1,1C312.972,301.571,313.42,301.123,313.42,300.571z M637.905,331.165c0-0.552-0.448-1-1-1
		c-0.553,0-1,0.448-1,1s0.447,1,1,1C637.457,332.165,637.905,331.717,637.905,331.165z M348.912,287.562c-1.105,0-2,0.895-2,2
		s0.895,2,2,2c1.104,0,2-0.895,2-2S350.017,287.562,348.912,287.562z M313.333,318.977c-0.829,0-1.5,0.672-1.5,1.5
		s0.671,1.5,1.5,1.5c0.828,0,1.5-0.672,1.5-1.5S314.161,318.977,313.333,318.977z M333.913,119.07c-1.104,0-2,0.895-2,2
		c0,1.105,0.896,2,2,2s2-0.895,2-2C335.913,119.966,335.017,119.07,333.913,119.07z M392.41,306.561c-1.104,0-2,0.895-2,2
		s0.896,2,2,2s2-0.895,2-2S393.514,306.561,392.41,306.561z M752.961,29.573c-1.104,0-2,0.895-2,2c0,1.105,0.896,2,2,2s2-0.895,2-2
		C754.961,30.468,754.066,29.573,752.961,29.573z M317.083,58.168c0.828,0,1.5-0.672,1.5-1.5s-0.672-1.5-1.5-1.5
		c-0.829,0-1.5,0.672-1.5,1.5S316.255,58.168,317.083,58.168z M422.083,8.168c0.552,0,1-0.448,1-1s-0.448-1-1-1s-1,0.448-1,1
		S421.531,8.168,422.083,8.168z M811.083,39.668c-0.829,0-1.5,0.672-1.5,1.5s0.671,1.5,1.5,1.5c0.828,0,1.5-0.672,1.5-1.5
		S811.911,39.668,811.083,39.668z M499.083,50.168c-0.829,0-1.5,0.672-1.5,1.5s0.671,1.5,1.5,1.5c0.828,0,1.5-0.672,1.5-1.5
		S499.911,50.168,499.083,50.168z M307.583,15.668c-0.829,0-1.5,0.672-1.5,1.5s0.671,1.5,1.5,1.5c0.828,0,1.5-0.672,1.5-1.5
		S308.411,15.668,307.583,15.668z M243.444,39.009c0-0.828-0.672-1.5-1.5-1.5c-0.829,0-1.5,0.672-1.5,1.5s0.671,1.5,1.5,1.5
		C242.772,40.509,243.444,39.837,243.444,39.009z M395.583,69.668c-0.829,0-1.5,0.672-1.5,1.5s0.671,1.5,1.5,1.5
		c0.828,0,1.5-0.672,1.5-1.5S396.411,69.668,395.583,69.668z M541.471,7.074c-1.104,0-2,0.895-2,2s0.896,2,2,2c1.105,0,2-0.895,2-2
		S542.576,7.074,541.471,7.074z M174.357,17.415c0-0.552-0.448-1-1-1s-1,0.448-1,1s0.448,1,1,1S174.357,17.967,174.357,17.415z
		 M73.194,310.977c-1.104,0-2,0.895-2,2c0,1.105,0.896,2,2,2s2-0.895,2-2C75.194,311.872,74.298,310.977,73.194,310.977z
		 M151.869,15.914c-1.104,0-2,0.895-2,2s0.896,2,2,2s2-0.895,2-2S152.973,15.914,151.869,15.914z M451.976,17.074
		c0-1.105-0.895-2-2-2c-1.104,0-2,0.895-2,2s0.896,2,2,2C451.081,19.074,451.976,18.178,451.976,17.074z M423.978,27.573
		c0-1.105-0.896-2-2-2s-2,0.895-2,2c0,1.105,0.896,2,2,2S423.978,28.678,423.978,27.573z M683.465,59.571c-1.104,0-2,0.895-2,2
		s0.896,2,2,2s2-0.895,2-2S684.569,59.571,683.465,59.571z M633.083,25.168c-0.552,0-1,0.448-1,1s0.448,1,1,1s1-0.448,1-1
		S633.636,25.168,633.083,25.168z M624.468,49.072c0-1.105-0.896-2-2-2s-2,0.895-2,2c0,1.105,0.896,2,2,2
		S624.468,50.177,624.468,49.072z M688.083,10.168c-0.829,0-1.5,0.672-1.5,1.5s0.671,1.5,1.5,1.5c0.828,0,1.5-0.672,1.5-1.5
		S688.911,10.168,688.083,10.168z M362.583,35.168c0-0.828-0.672-1.5-1.5-1.5c-0.829,0-1.5,0.672-1.5,1.5s0.671,1.5,1.5,1.5
		C361.911,36.668,362.583,35.997,362.583,35.168z M62.374,9.914c0-1.105-0.896-2-2-2s-2,0.895-2,2s0.896,2,2,2
		S62.374,11.019,62.374,9.914z M108.944,53.509c0-0.828-0.672-1.5-1.5-1.5c-0.829,0-1.5,0.672-1.5,1.5s0.671,1.5,1.5,1.5
		C108.272,55.009,108.944,54.337,108.944,53.509z M561.083,50.168c-0.829,0-1.5,0.672-1.5,1.5s0.671,1.5,1.5,1.5
		c0.828,0,1.5-0.672,1.5-1.5S561.911,50.168,561.083,50.168z M2104.255,220.178c0,1.105,0.896,2,2,2s2-0.895,2-2s-0.896-2-2-2
		S2104.255,219.073,2104.255,220.178z M2428.642,235.977c0,0.552,0.448,1,1,1s1-0.448,1-1s-0.448-1-1-1
		S2428.642,235.425,2428.642,235.977z M2435.52,82.573c0,1.105,0.896,2,2,2s2-0.895,2-2c0-1.105-0.896-2-2-2
		S2435.52,81.468,2435.52,82.573z M2419.021,166.068c0,1.105,0.896,2,2,2c1.105,0,2-0.895,2-2c0-1.105-0.895-2-2-2
		C2419.916,164.068,2419.021,164.964,2419.021,166.068z M2438.642,196.977c0,0.828,0.672,1.5,1.5,1.5c0.829,0,1.5-0.672,1.5-1.5
		s-0.671-1.5-1.5-1.5C2439.313,195.477,2438.642,196.149,2438.642,196.977z M2456.642,305.977c0,0.552,0.448,1,1,1s1-0.448,1-1
		s-0.448-1-1-1S2456.642,305.425,2456.642,305.977z M2447.02,125.07c0,1.105,0.896,2,2,2s2-0.895,2-2c0-1.105-0.896-2-2-2
		S2447.02,123.966,2447.02,125.07z M2410.142,272.477c0,0.828,0.672,1.5,1.5,1.5c0.829,0,1.5-0.672,1.5-1.5s-0.671-1.5-1.5-1.5
		C2410.813,270.977,2410.142,271.649,2410.142,272.477z M2345.024,252.064c0,1.105,0.896,2,2,2s2-0.895,2-2c0-1.105-0.896-2-2-2
		S2345.024,250.96,2345.024,252.064z M2353.024,306.061c0,1.105,0.896,2,2,2s2-0.895,2-2c0-1.105-0.896-2-2-2
		S2353.024,304.957,2353.024,306.061z M2380.523,325.06c0,1.105,0.895,2,2,2c1.104,0,2-0.895,2-2c0-1.105-0.896-2-2-2
		C2381.418,323.06,2380.523,323.956,2380.523,325.06z M2371.142,102.477c0,0.828,0.672,1.5,1.5,1.5c0.829,0,1.5-0.672,1.5-1.5
		s-0.671-1.5-1.5-1.5C2371.813,100.977,2371.142,101.649,2371.142,102.477z M2391.642,240.977c0,0.552,0.448,1,1,1s1-0.448,1-1
		s-0.448-1-1-1S2391.642,240.425,2391.642,240.977z M2356.642,184.977c0.829,0,1.5-0.672,1.5-1.5s-0.671-1.5-1.5-1.5
		c-0.828,0-1.5,0.672-1.5,1.5S2355.813,184.977,2356.642,184.977z M2243.642,211.977c0-0.552-0.448-1-1-1s-1,0.448-1,1s0.448,1,1,1
		S2243.642,212.529,2243.642,211.977z M2467.518,229.065c0,1.105,0.896,2,2,2c1.105,0,2-0.895,2-2s-0.895-2-2-2
		C2468.414,227.065,2467.518,227.961,2467.518,229.065z M2503.642,128.977c0-0.552-0.448-1-1-1s-1,0.448-1,1s0.448,1,1,1
		S2503.642,129.529,2503.642,128.977z M2480.133,170c0,0.828,0.672,1.5,1.5,1.5c0.829,0,1.5-0.672,1.5-1.5s-0.671-1.5-1.5-1.5
		C2480.805,168.5,2480.133,169.172,2480.133,170z M2467.518,278.063c0,1.105,0.896,2,2,2c1.105,0,2-0.895,2-2s-0.895-2-2-2
		C2468.414,276.063,2467.518,276.958,2467.518,278.063z M2500.642,324.977c0,0.828,0.672,1.5,1.5,1.5c0.829,0,1.5-0.672,1.5-1.5
		s-0.671-1.5-1.5-1.5C2501.313,323.477,2500.642,324.149,2500.642,324.977z M2494.142,72.977c0,0.828,0.672,1.5,1.5,1.5
		c0.829,0,1.5-0.672,1.5-1.5s-0.671-1.5-1.5-1.5C2494.813,71.477,2494.142,72.149,2494.142,72.977z M2503.642,201.977
		c0-0.552-0.448-1-1-1s-1,0.448-1,1s0.448,1,1,1S2503.642,202.529,2503.642,201.977z M2218.642,269.977c0,0.552,0.448,1,1,1
		s1-0.448,1-1s-0.448-1-1-1S2218.642,269.425,2218.642,269.977z M2179.642,228.977c0,0.828,0.672,1.5,1.5,1.5
		c0.829,0,1.5-0.672,1.5-1.5s-0.671-1.5-1.5-1.5C2180.313,227.477,2179.642,228.149,2179.642,228.977z M2177.642,242.977
		c0,0.552,0.448,1,1,1s1-0.448,1-1s-0.448-1-1-1S2177.642,242.425,2177.642,242.977z M2204.142,152.477c0,0.828,0.672,1.5,1.5,1.5
		c0.829,0,1.5-0.672,1.5-1.5s-0.671-1.5-1.5-1.5C2204.813,150.977,2204.142,151.649,2204.142,152.477z M2196.032,280.063
		c0,1.105,0.896,2,2,2s2-0.895,2-2s-0.896-2-2-2S2196.032,278.958,2196.032,280.063z M2157.642,132.977c0,0.552,0.448,1,1,1
		s1-0.448,1-1s-0.448-1-1-1S2157.642,132.425,2157.642,132.977z M2135.142,279.477c0,0.828,0.672,1.5,1.5,1.5
		c0.829,0,1.5-0.672,1.5-1.5s-0.671-1.5-1.5-1.5C2135.813,277.977,2135.142,278.649,2135.142,279.477z M2132.642,183.977
		c0,0.552,0.448,1,1,1s1-0.448,1-1s-0.448-1-1-1S2132.642,183.425,2132.642,183.977z M2139.142,321.477c0,0.828,0.672,1.5,1.5,1.5
		c0.829,0,1.5-0.672,1.5-1.5s-0.671-1.5-1.5-1.5C2139.813,319.977,2139.142,320.649,2139.142,321.477z M2211.642,316.977
		c0,0.828,0.672,1.5,1.5,1.5c0.829,0,1.5-0.672,1.5-1.5s-0.671-1.5-1.5-1.5C2212.313,315.477,2211.642,316.149,2211.642,316.977z
		 M2281.642,315.214c0,0.828,0.672,1.5,1.5,1.5c0.829,0,1.5-0.672,1.5-1.5s-0.671-1.5-1.5-1.5
		C2282.313,313.714,2281.642,314.385,2281.642,315.214z M2285.642,188.977c0.829,0,1.5-0.672,1.5-1.5s-0.671-1.5-1.5-1.5
		c-0.828,0-1.5,0.672-1.5,1.5S2284.813,188.977,2285.642,188.977z M2286.142,275.477c0,0.828,0.672,1.5,1.5,1.5
		c0.829,0,1.5-0.672,1.5-1.5s-0.671-1.5-1.5-1.5C2286.813,273.977,2286.142,274.649,2286.142,275.477z M2313.642,157.977
		c0,0.552,0.448,1,1,1s1-0.448,1-1s-0.448-1-1-1S2313.642,157.425,2313.642,157.977z M2316.642,87.977c0,0.552,0.448,1,1,1
		s1-0.448,1-1s-0.448-1-1-1S2316.642,87.425,2316.642,87.977z M2296.027,238.565c0,1.105,0.896,2,2,2s2-0.895,2-2
		c0-1.105-0.896-2-2-2S2296.027,237.46,2296.027,238.565z M2264.029,123.07c0,1.105,0.895,2,2,2c1.104,0,2-0.895,2-2
		c0-1.105-0.896-2-2-2C2264.924,121.07,2264.029,121.966,2264.029,123.07z M2222.031,186.567c0,1.105,0.896,2,2,2s2-0.895,2-2
		s-0.896-2-2-2S2222.031,185.463,2222.031,186.567z M2226.03,107.071c1.104,0,2-0.895,2-2s-0.896-2-2-2s-2,0.895-2,2
		S2224.926,107.071,2226.03,107.071z M2240.273,291.562c0,1.105,0.896,2,2,2s2-0.895,2-2s-0.896-2-2-2
		S2240.273,290.457,2240.273,291.562z M2244.142,62.477c0,0.828,0.672,1.5,1.5,1.5c0.829,0,1.5-0.672,1.5-1.5s-0.671-1.5-1.5-1.5
		C2244.813,60.977,2244.142,61.649,2244.142,62.477z M2431.451,31.573c0,1.105,0.896,2,2,2s2-0.895,2-2c0-1.105-0.896-2-2-2
		S2431.451,30.468,2431.451,31.573z M2318.978,36.013c0,0.552,0.448,1,1,1s1-0.448,1-1s-0.448-1-1-1
		S2318.978,35.461,2318.978,36.013z M2361.955,61.571c0,1.105,0.896,2,2,2s2-0.895,2-2s-0.896-2-2-2
		S2361.955,60.467,2361.955,61.571z M2300.958,49.072c0,1.105,0.896,2,2,2s2-0.895,2-2c0-1.105-0.896-2-2-2
		S2300.958,47.967,2300.958,49.072z M2466.392,58.668c0,0.828,0.672,1.5,1.5,1.5c0.829,0,1.5-0.672,1.5-1.5s-0.671-1.5-1.5-1.5
		C2467.063,57.168,2466.392,57.84,2466.392,58.668z M2477.392,20.668c0,0.828,0.672,1.5,1.5,1.5c0.829,0,1.5-0.672,1.5-1.5
		s-0.671-1.5-1.5-1.5C2478.063,19.168,2477.392,19.84,2477.392,20.668z M2993.198,159.793c0,0.828,0.672,1.5,1.5,1.5
		c0.829,0,1.5-0.672,1.5-1.5s-0.671-1.5-1.5-1.5C2993.87,158.293,2993.198,158.965,2993.198,159.793z M2863.154,259.571
		c0,0.552,0.448,1,1,1s1-0.448,1-1s-0.448-1-1-1S2863.154,259.018,2863.154,259.571z M2848.5,290c0,0.552,0.448,1,1,1s1-0.448,1-1
		s-0.448-1-1-1S2848.5,289.448,2848.5,290z M2890.154,96.571c-0.552,0-1,0.448-1,1s0.448,1,1,1c0.553,0,1-0.448,1-1
		S2890.707,96.571,2890.154,96.571z M2688.175,141.07c0,1.105,0.896,2,2,2s2-0.895,2-2c0-1.105-0.896-2-2-2
		S2688.175,139.965,2688.175,141.07z M2753.154,202.571c0,0.552,0.448,1,1,1c0.553,0,1-0.448,1-1s-0.447-1-1-1
		C2753.602,201.571,2753.154,202.018,2753.154,202.571z M2758.928,291.562c0,1.105,0.896,2,2,2c1.105,0,2-0.895,2-2s-0.895-2-2-2
		C2759.824,289.562,2758.928,290.457,2758.928,291.562z M2775.171,105.071c0,1.105,0.896,2,2,2s2-0.895,2-2s-0.896-2-2-2
		S2775.171,103.967,2775.171,105.071z M2776.154,260.571c0,0.552,0.448,1,1,1c0.553,0,1-0.448,1-1s-0.447-1-1-1
		C2776.602,259.571,2776.154,260.018,2776.154,260.571z M2714.666,297.833c0,0.552,0.448,1,1,1c0.553,0,1-0.448,1-1s-0.447-1-1-1
		C2715.113,296.833,2714.666,297.281,2714.666,297.833z M2735.172,123.07c0,1.105,0.896,2,2,2c1.105,0,2-0.895,2-2
		c0-1.105-0.895-2-2-2C2736.068,121.07,2735.172,121.966,2735.172,123.07z M2767.24,311.977c0,0.828,0.672,1.5,1.5,1.5
		c0.829,0,1.5-0.672,1.5-1.5s-0.671-1.5-1.5-1.5C2767.912,310.477,2767.24,311.149,2767.24,311.977z M2681.154,148.571
		c0,0.552,0.448,1,1,1c0.553,0,1-0.448,1-1s-0.447-1-1-1C2681.602,147.571,2681.154,148.018,2681.154,148.571z M2696.74,278.477
		c0,0.828,0.672,1.5,1.5,1.5c0.829,0,1.5-0.672,1.5-1.5s-0.671-1.5-1.5-1.5C2697.412,276.977,2696.74,277.649,2696.74,278.477z
		 M2706.24,182.977c0.829,0,1.5-0.672,1.5-1.5s-0.671-1.5-1.5-1.5c-0.828,0-1.5,0.672-1.5,1.5S2705.412,182.977,2706.24,182.977z
		 M2703.174,238.565c0,1.105,0.896,2,2,2s2-0.895,2-2c0-1.105-0.896-2-2-2S2703.174,237.46,2703.174,238.565z M2860.667,168.068
		c0,1.105,0.896,2,2,2s2-0.895,2-2c0-1.105-0.896-2-2-2S2860.667,166.964,2860.667,168.068z M2838.154,124.571c0.553,0,1-0.448,1-1
		s-0.447-1-1-1c-0.552,0-1,0.448-1,1S2837.602,124.571,2838.154,124.571z M2678.154,78.571c0,0.552,0.448,1,1,1c0.553,0,1-0.448,1-1
		s-0.447-1-1-1C2678.602,77.571,2678.154,78.018,2678.154,78.571z M2862.154,174.571c0,0.552,0.448,1,1,1c0.553,0,1-0.448,1-1
		s-0.447-1-1-1C2862.602,173.571,2862.154,174.018,2862.154,174.571z M2866.666,97.072c0,1.105,0.896,2,2,2s2-0.895,2-2
		s-0.896-2-2-2S2866.666,95.967,2866.666,97.072z M2835.74,330.165c0,0.828,0.672,1.5,1.5,1.5c0.829,0,1.5-0.672,1.5-1.5
		s-0.671-1.5-1.5-1.5C2836.412,328.665,2835.74,329.336,2835.74,330.165z M2817.154,233.571c0,0.552,0.448,1,1,1
		c0.553,0,1-0.448,1-1s-0.447-1-1-1C2817.602,232.571,2817.154,233.018,2817.154,233.571z M2828.74,227.477
		c0,0.828,0.672,1.5,1.5,1.5c0.829,0,1.5-0.672,1.5-1.5s-0.671-1.5-1.5-1.5C2829.412,225.977,2828.74,226.649,2828.74,227.477z
		 M2779.17,188.567c1.104,0,2-0.895,2-2s-0.896-2-2-2s-2,0.895-2,2S2778.066,188.567,2779.17,188.567z M2819.74,138.477
		c0.829,0,1.5-0.672,1.5-1.5s-0.671-1.5-1.5-1.5c-0.828,0-1.5,0.672-1.5,1.5S2818.912,138.477,2819.74,138.477z M2822.74,61.477
		c0,0.828,0.672,1.5,1.5,1.5c0.829,0,1.5-0.672,1.5-1.5s-0.671-1.5-1.5-1.5C2823.412,59.977,2822.74,60.649,2822.74,61.477z
		 M2538.154,296.571c0,0.552,0.448,1,1,1c0.553,0,1-0.448,1-1s-0.447-1-1-1C2538.602,295.571,2538.154,296.018,2538.154,296.571z
		 M2531.683,231.057c0,1.105,0.895,2,2,2c1.104,0,2-0.895,2-2s-0.896-2-2-2C2532.578,229.057,2531.683,229.953,2531.683,231.057z
		 M2531.24,56.977c0.829,0,1.5-0.672,1.5-1.5s-0.671-1.5-1.5-1.5c-0.828,0-1.5,0.672-1.5,1.5S2530.412,56.977,2531.24,56.977z
		 M2531.683,278.063c0,1.105,0.895,2,2,2c1.104,0,2-0.895,2-2s-0.896-2-2-2C2532.578,276.063,2531.683,276.958,2531.683,278.063z
		 M2532.74,317.477c0,0.828,0.672,1.5,1.5,1.5c0.829,0,1.5-0.672,1.5-1.5s-0.671-1.5-1.5-1.5
		C2533.412,315.977,2532.74,316.649,2532.74,317.477z M2870.666,236.565c0,1.105,0.895,2,2,2c1.104,0,2-0.895,2-2
		c0-1.105-0.896-2-2-2C2871.561,234.565,2870.666,235.46,2870.666,236.565z M2518.74,93.477c0,0.828,0.672,1.5,1.5,1.5
		c0.829,0,1.5-0.672,1.5-1.5s-0.671-1.5-1.5-1.5C2519.412,91.977,2518.74,92.649,2518.74,93.477z M2654.177,252.064
		c0,1.105,0.896,2,2,2s2-0.895,2-2c0-1.105-0.896-2-2-2S2654.177,250.96,2654.177,252.064z M2552.182,125.07c0,1.105,0.896,2,2,2
		s2-0.895,2-2c0-1.105-0.896-2-2-2S2552.182,123.966,2552.182,125.07z M2527.24,175.977c0,0.828,0.672,1.5,1.5,1.5
		c0.829,0,1.5-0.672,1.5-1.5s-0.671-1.5-1.5-1.5C2527.912,174.477,2527.24,175.149,2527.24,175.977z M2637.432,174.97
		c0,0.828,0.672,1.5,1.5,1.5c0.829,0,1.5-0.672,1.5-1.5s-0.671-1.5-1.5-1.5C2638.104,173.47,2637.432,174.142,2637.432,174.97z
		 M2623.218,115.449c0.829,0,1.5-0.672,1.5-1.5s-0.671-1.5-1.5-1.5c-0.828,0-1.5,0.672-1.5,1.5S2622.39,115.449,2623.218,115.449z
		 M2561.302,221.499c0,0.552,0.448,1,1,1s1-0.448,1-1s-0.448-1-1-1S2561.302,220.947,2561.302,221.499z M2646.177,306.061
		c0,1.105,0.896,2,2,2s2-0.895,2-2c0-1.105-0.896-2-2-2S2646.177,304.957,2646.177,306.061z M2618.679,325.06c0,1.105,0.895,2,2,2
		c1.104,0,2-0.895,2-2c0-1.105-0.896-2-2-2C2619.574,323.06,2618.679,323.956,2618.679,325.06z M2559.987,81.678
		c0,1.105,0.896,2,2,2c1.105,0,2-0.895,2-2c0-1.105-0.895-2-2-2C2560.882,79.678,2559.987,80.573,2559.987,81.678z
		 M2580.181,166.068c0,1.105,0.896,2,2,2s2-0.895,2-2c0-1.105-0.896-2-2-2S2580.181,164.964,2580.181,166.068z M2606.737,237.593
		c0,0.552,0.448,1,1,1s1-0.448,1-1s-0.448-1-1-1S2606.737,237.041,2606.737,237.593z M2599.74,285.477c0,0.828,0.672,1.5,1.5,1.5
		c0.829,0,1.5-0.672,1.5-1.5s-0.671-1.5-1.5-1.5C2600.412,283.977,2599.74,284.649,2599.74,285.477z M2803.169,280.063
		c0,1.105,0.896,2,2,2s2-0.895,2-2s-0.896-2-2-2S2803.169,278.958,2803.169,280.063z M2890.24,298.977c0,0.828,0.672,1.5,1.5,1.5
		c0.829,0,1.5-0.672,1.5-1.5s-0.671-1.5-1.5-1.5C2890.912,297.477,2890.24,298.149,2890.24,298.977z M2894.665,86.572
		c0,1.105,0.896,2,2,2s2-0.895,2-2c0-1.105-0.896-2-2-2S2894.665,85.468,2894.665,86.572z M2957.24,75.977
		c0,0.828,0.672,1.5,1.5,1.5c0.829,0,1.5-0.672,1.5-1.5s-0.671-1.5-1.5-1.5C2957.912,74.477,2957.24,75.149,2957.24,75.977z
		 M2991.16,201.566c0,1.105,0.896,2,2,2s2-0.895,2-2s-0.896-2-2-2S2991.16,200.462,2991.16,201.566z M2943.74,169.977
		c0,0.828,0.672,1.5,1.5,1.5c0.829,0,1.5-0.672,1.5-1.5s-0.671-1.5-1.5-1.5C2944.412,168.477,2943.74,169.149,2943.74,169.977z
		 M2994.154,231.571c0,0.552,0.448,1,1,1c0.553,0,1-0.448,1-1s-0.447-1-1-1C2994.602,230.571,2994.154,231.018,2994.154,231.571z
		 M2903.692,138.025c0,0.828,0.671,1.5,1.5,1.5c0.828,0,1.5-0.672,1.5-1.5s-0.672-1.5-1.5-1.5
		C2904.363,136.525,2903.692,137.197,2903.692,138.025z M2951.24,236.593c0,0.828,0.672,1.5,1.5,1.5c0.829,0,1.5-0.672,1.5-1.5
		s-0.671-1.5-1.5-1.5C2951.912,235.093,2951.24,235.765,2951.24,236.593z M2919.034,127.858c0,0.552,0.448,1,1,1s1-0.448,1-1
		s-0.448-1-1-1S2919.034,127.306,2919.034,127.858z M2963.154,197.571c0,0.552,0.448,1,1,1c0.553,0,1-0.448,1-1s-0.447-1-1-1
		C2963.602,196.571,2963.154,197.018,2963.154,197.571z M2888.165,214.066c0,1.105,0.896,2,2,2s2-0.895,2-2s-0.896-2-2-2
		S2888.165,212.961,2888.165,214.066z M2677.668,332.165c0.553,0,1-0.448,1-1s-0.447-1-1-1c-0.552,0-1,0.448-1,1
		S2677.116,332.165,2677.668,332.165z M2963.661,289.562c0,1.105,0.896,2,2,2c1.105,0,2-0.895,2-2s-0.895-2-2-2
		C2964.557,287.562,2963.661,288.457,2963.661,289.562z M2978.661,121.07c0,1.105,0.896,2,2,2s2-0.895,2-2c0-1.105-0.896-2-2-2
		S2978.661,119.966,2978.661,121.07z M2920.164,308.561c0,1.105,0.896,2,2,2s2-0.895,2-2s-0.896-2-2-2
		S2920.164,307.457,2920.164,308.561z M2559.612,31.573c0,1.105,0.896,2,2,2s2-0.895,2-2c0-1.105-0.896-2-2-2
		S2559.612,30.468,2559.612,31.573z M2998.99,56.668c0-0.828-0.671-1.5-1.5-1.5c-0.828,0-1.5,0.672-1.5,1.5s0.672,1.5,1.5,1.5
		C2998.319,58.168,2998.99,57.497,2998.99,56.668z M2893.49,7.168c0-0.552-0.448-1-1-1s-1,0.448-1,1s0.448,1,1,1
		S2893.49,7.721,2893.49,7.168z M2501.99,41.168c0,0.828,0.672,1.5,1.5,1.5c0.829,0,1.5-0.672,1.5-1.5s-0.671-1.5-1.5-1.5
		C2502.662,39.668,2501.99,40.34,2501.99,41.168z M2813.99,51.668c0,0.828,0.672,1.5,1.5,1.5c0.829,0,1.5-0.672,1.5-1.5
		s-0.671-1.5-1.5-1.5C2814.662,50.168,2813.99,50.84,2813.99,51.668z M2917.49,71.168c0,0.828,0.672,1.5,1.5,1.5
		c0.829,0,1.5-0.672,1.5-1.5s-0.671-1.5-1.5-1.5C2918.162,69.668,2917.49,70.34,2917.49,71.168z M2771.102,9.074
		c0,1.105,0.895,2,2,2c1.104,0,2-0.895,2-2s-0.896-2-2-2C2771.997,7.074,2771.102,7.969,2771.102,9.074z M2864.597,19.074
		c1.104,0,2-0.895,2-2s-0.896-2-2-2c-1.105,0-2,0.895-2,2S2863.492,19.074,2864.597,19.074z M2892.596,29.573c1.104,0,2-0.895,2-2
		c0-1.105-0.896-2-2-2s-2,0.895-2,2C2890.596,28.678,2891.491,29.573,2892.596,29.573z M2629.109,61.571c0,1.105,0.896,2,2,2
		s2-0.895,2-2s-0.896-2-2-2S2629.109,60.467,2629.109,61.571z M2680.49,26.168c0,0.552,0.448,1,1,1s1-0.448,1-1s-0.448-1-1-1
		S2680.49,25.616,2680.49,26.168z M2692.106,51.072c1.104,0,2-0.895,2-2c0-1.105-0.896-2-2-2s-2,0.895-2,2
		C2690.106,50.177,2691.001,51.072,2692.106,51.072z M2624.99,11.668c0,0.828,0.672,1.5,1.5,1.5c0.829,0,1.5-0.672,1.5-1.5
		s-0.671-1.5-1.5-1.5C2625.662,10.168,2624.99,10.84,2624.99,11.668z M2953.49,36.668c0.829,0,1.5-0.672,1.5-1.5s-0.671-1.5-1.5-1.5
		c-0.828,0-1.5,0.672-1.5,1.5S2952.662,36.668,2953.49,36.668z M2751.99,51.668c0,0.828,0.672,1.5,1.5,1.5
		c0.829,0,1.5-0.672,1.5-1.5s-0.671-1.5-1.5-1.5C2752.662,50.168,2751.99,50.84,2751.99,51.668z"/>
	<linearGradient id="SVGID_1_" gradientUnits="userSpaceOnUse" x1="1500" y1="1.9085" x2="1500" y2="239.9174">
		<stop  offset="0" style="stop-color:#FFFFFF"/>
		<stop  offset="1" style="stop-color:#FFFFFF;stop-opacity:0"/>
	</linearGradient>
	<rect x="0" fill="url(#SVGID_1_)" width="3000" height="240"/>
</g>
</svg>
